<svg width="152" height="135" viewBox="0 0 152 135" fill="none" xmlns="http://www.w3.org/2000/svg">
<g clip-path="url(#clip0)">
<path opacity="0.18" d="M83.2558 134.055C90.2126 133.142 97.1694 131.65 103.433 128.475C113.304 123.473 120.686 114.694 129.797 108.39C133.211 106.027 136.87 104.007 140.051 101.337C146.888 95.6074 151.123 86.9595 151.872 78.0465C152.62 69.1336 149.974 60.0421 144.882 52.6997C140.204 45.9515 133.578 40.6316 129.627 33.4287C127.381 29.3251 126.098 24.7501 124.014 20.5656C117.817 8.10698 104.132 -0.225737 90.2404 0.0058046C80.6429 0.164815 71.5351 4.02012 62.1351 5.90593C54.6895 7.39563 47.0505 7.65009 39.5228 6.65914C34.4888 5.99241 29.505 4.77054 24.4377 4.59758C19.3704 4.42463 14.0081 5.43448 10.1123 8.69559C4.37991 13.4938 3.1917 21.7903 3.21396 29.2693C3.23124 35.036 3.72548 40.7912 4.69158 46.476C5.91319 53.6621 7.89448 60.9543 6.65339 68.1377C5.5403 74.632 1.85878 80.4484 0.556469 86.9065C-2.50451 102.105 7.5689 110.34 18.1182 118.497C29.9391 127.627 43.2154 132.813 58.0779 134.42C66.4555 135.296 74.9071 135.173 83.2558 134.055Z" fill="#9AA5FB"/>
<path d="M27.2511 103.245H2.97754C2.97754 103.245 22.9657 124.413 30.8742 126.176C38.7827 127.939 113.028 122.667 113.028 122.667L125.328 111.215L138.654 102.701L119.506 102.933L27.2511 103.245Z" fill="url(#paint0_linear)"/>
<path d="M69.5759 34.377H69.1724C69.228 34.2124 69.2809 34.0451 69.331 33.8777C69.4172 34.0423 69.4979 34.2069 69.5759 34.377Z" fill="#9AA5FB"/>
<path d="M69.5759 34.377H69.1724C69.228 34.2124 69.2809 34.0451 69.331 33.8777C69.4172 34.0423 69.4979 34.2069 69.5759 34.377Z" fill="#9AA5FB"/>
<path d="M99.6908 16.618H58.5373C56.6039 16.618 55.0366 18.1893 55.0366 20.1274V75.7616C55.0366 77.6998 56.6039 79.271 58.5373 79.271H99.6908C101.624 79.271 103.191 77.6998 103.191 75.7616V20.1274C103.191 18.1893 101.624 16.618 99.6908 16.618Z" fill="#9AA5FB"/>
<path d="M99.1088 21.0117H58.5508V82.1332H99.1088V21.0117Z" fill="white"/>
<path d="M55.0005 65.1051C55.0005 65.1051 78.4309 58.5466 103.141 65.1051V72.5423L55.0005 69.5099V65.1051Z" fill="url(#paint1_linear)"/>
<path d="M119.506 102.922C119.537 111.254 98.9141 118.086 73.4328 118.175C47.9515 118.265 27.2787 111.581 27.2509 103.248L27.1758 82.1191C33.5287 76.2609 53.2943 88.0639 73.327 87.9942C88.6876 87.9384 111.036 78.0462 119.434 81.7955L119.506 102.922Z" fill="#9AA5FB"/>
<path d="M119.431 81.7955L119.506 102.919C119.537 111.254 98.9142 118.083 73.4329 118.173C47.9516 118.262 27.2789 111.581 27.2511 103.245L27.1787 82.1219C27.2065 90.4546 47.8821 97.1387 73.3717 97.0494C98.8613 96.9601 119.462 90.1282 119.431 81.7955Z" fill="url(#paint2_linear)"/>
<path d="M119.431 81.7956C119.462 90.1283 98.8391 96.9602 73.3578 97.0494C47.8765 97.1387 27.2065 90.4547 27.1787 82.122C33.5289 76.2637 53.2945 88.0667 73.3272 87.9802C88.6905 87.9412 111.038 78.0463 119.431 81.7956Z" fill="url(#paint3_linear)"/>
<path d="M119.431 81.7955C119.431 81.9601 119.431 82.1247 119.409 82.2893C118.644 90.3988 98.3299 96.9601 73.3578 97.0494C47.8821 97.1387 27.2066 90.4546 27.1787 82.1219C27.1509 73.7892 47.7708 66.9573 73.2521 66.8653C77.5041 66.8513 81.6225 67.0243 85.535 67.3674C105.053 69.0552 119.409 74.8549 119.431 81.7955Z" fill="#9AA5FB"/>
<path d="M39.2442 79.1482C38.3036 79.1789 37.1989 79.3044 36.7397 80.1246C38.432 80.9315 40.2424 81.4608 42.102 81.6924L42.205 83.0733C43.5314 83.1105 44.8597 83.1105 46.1898 83.0733C46.4876 83.0733 46.8577 83.0063 46.9551 82.7218C46.979 82.5899 46.979 82.4547 46.9551 82.3228C46.9245 81.4608 48.0682 80.8192 48.7861 81.3018C49.0644 81.4915 49.2536 81.79 49.5152 82.0048C50.1107 82.4846 50.9566 82.4344 51.7163 82.3619L54.8914 82.055L52.5149 80.4342L55.8291 79.6531C56.3273 79.536 56.9617 79.1873 56.792 78.7046C56.6751 78.3755 56.2549 78.2918 55.9071 78.2695C53.1244 78.0798 50.5587 78.4368 47.8372 78.8469C45.0879 79.2737 42.0603 79.0645 39.2442 79.1482Z" fill="url(#paint4_linear)"/>
<path d="M119.412 82.2809C117.928 94.6168 81.1967 96.8485 81.1967 96.8485L74.4653 79.1481L119.409 81.0395L119.412 82.2809Z" fill="url(#paint5_linear)"/>
<path d="M119.434 82.2809L119.506 102.924C119.695 115.534 81.2633 117.718 81.2633 117.718L81.1909 96.8569C81.1909 96.8569 117.923 94.6252 119.406 82.2893L119.434 82.2809Z" fill="url(#paint6_linear)"/>
<path d="M42.5174 82.9227C42.4782 82.9864 42.4575 83.0598 42.4575 83.1347C42.4575 83.2096 42.4782 83.2829 42.5174 83.3467C42.6454 83.6034 45.5784 83.9046 46.3241 83.2546C47.0699 82.6046 46.5245 82.1165 46.5245 82.1165L42.5174 82.9227Z" fill="#3F3D56"/>
<path d="M55.3008 82.6297C55.3433 82.6908 55.3681 82.7625 55.3725 82.8368C55.3769 82.9111 55.3608 82.9852 55.3259 83.051C55.2118 83.3132 53.7731 83.8879 51.3772 82.9784C50.4505 82.6325 51.252 82.0551 51.252 82.0551L55.3008 82.6297Z" fill="#3F3D56"/>
<path d="M119.431 79.0813C119.431 79.2431 119.431 79.4077 119.409 79.5723L74.4653 76.4367L85.535 64.642C105.053 66.3409 119.409 72.1378 119.431 79.0813Z" fill="#9AA5FB"/>
<path opacity="0.69" d="M119.431 79.0813C119.431 79.2431 119.431 79.4077 119.409 79.5723L74.4653 76.4367L85.535 64.642C105.053 66.3409 119.409 72.1378 119.431 79.0813Z" fill="url(#paint7_linear)"/>
<path d="M53.3505 79.9126L53.4757 81.1987C53.4757 81.1987 52.9831 81.9463 52.3403 81.9937C51.6975 82.0412 51.4805 81.7315 51.4805 81.7315L51.5862 79.8373" fill="url(#paint8_linear)"/>
<path d="M44.4094 80.0493L44.2842 81.3688C44.2842 81.3688 44.7878 82.136 45.4474 82.1862C46.1069 82.2364 46.3323 81.9072 46.3323 81.9072L46.2237 79.9545" fill="url(#paint9_linear)"/>
<path d="M45.99 51.1373C45.99 51.1373 43.4383 52.3703 43.3799 52.7776C43.3214 53.1849 43.6581 63.1384 43.6581 63.1384C43.6581 63.1384 44.4929 64.2152 47.0224 64.2152C49.6215 64.2152 50.448 63.4871 50.4062 63.1245C50.2615 61.8635 50.9349 52.8529 50.8793 52.4289C50.8236 52.0049 48.4667 51.1429 48.4667 51.1429L45.99 51.1373Z" fill="#9AA5FB"/>
<path d="M47.5763 57.4558C47.5763 57.4558 44.5154 58.0137 44.3122 57.8157C44.1091 57.6176 43.4023 52.6241 43.38 52.7775C43.3383 53.0565 43.508 57.8491 43.6054 60.5133C45.1804 60.0362 48.4807 58.3569 48.4807 58.3569C48.2368 58.0036 47.9302 57.6982 47.5763 57.4558Z" fill="url(#paint10_linear)"/>
<path d="M47.5426 56.9676H47.5565C47.7078 56.8748 47.8671 56.7954 48.0323 56.7305L48.1492 56.6803C48.2281 56.6458 48.3101 56.6187 48.3941 56.5994C48.4603 56.5869 48.5282 56.5869 48.5944 56.5994C48.625 56.5994 48.6584 56.6161 48.6584 56.6468C48.6574 56.6592 48.6526 56.6709 48.6445 56.6803C48.6135 56.7204 48.5721 56.7513 48.5249 56.7696C48.5117 56.7738 48.4994 56.7804 48.4887 56.7891C48.4846 56.7948 48.4824 56.8016 48.4824 56.8086C48.4824 56.8156 48.4846 56.8225 48.4887 56.8281H48.5082C48.7657 56.8516 49.0198 56.9049 49.2651 56.9872C49.3958 57.043 49.5433 57.149 49.5239 57.294C49.4989 57.3901 49.4382 57.473 49.3541 57.5256L48.984 57.8213C48.8689 57.9233 48.7395 58.0079 48.6 58.0723C48.2132 58.2313 47.7401 58.0723 47.3728 58.2704C47.2476 58.3401 47.0945 58.4517 46.9777 58.3792C46.9336 58.3487 46.8982 58.3074 46.8747 58.2592C46.7662 58.0723 46.4879 57.6232 46.6326 57.4223C46.801 57.2551 47.015 57.1416 47.2476 57.096C47.3505 57.0648 47.4495 57.0217 47.5426 56.9676Z" fill="url(#paint11_linear)"/>
<path d="M45.9984 49.5778C45.9984 49.5778 45.9789 50.4705 45.9984 51.1261C45.9984 51.6115 46.1709 52.5488 47.2061 52.5488C48.2413 52.5488 48.3609 51.3548 48.3442 51.1261C48.3726 50.7798 48.3726 50.4318 48.3442 50.0855C48.2663 49.5304 46.0568 49.1956 45.9984 49.5778Z" fill="url(#paint12_linear)"/>
<path d="M45.9847 51.0536C45.91 51.0229 45.8266 51.0214 45.7509 51.0493C45.6752 51.0771 45.6127 51.1324 45.5756 51.2042C45.4198 51.4637 45.4114 51.9853 45.5756 52.6995C45.6237 53.0135 45.7264 53.3165 45.8789 53.595C45.8789 53.595 46.5579 52.6353 47.0337 52.5963C47.0365 52.5963 46.0932 52.4094 45.9847 51.0536Z" fill="#9AA5FB"/>
<path d="M48.3411 51.0536C48.4157 51.0229 48.4991 51.0214 48.5748 51.0493C48.6505 51.0771 48.713 51.1324 48.7501 51.2042C48.906 51.4637 48.9143 51.9853 48.7501 52.6995C48.702 53.0135 48.5993 53.3165 48.4468 53.595C48.4468 53.595 47.7678 52.6353 47.292 52.5963C47.292 52.5963 48.2325 52.4094 48.3411 51.0536Z" fill="#9AA5FB"/>
<path d="M43.6691 63.1384C43.6691 63.1384 43.4799 64.6141 43.8416 70.6091C44.1811 76.1884 44.2757 80.0939 44.2757 80.0939C44.2757 80.0939 44.3119 80.5514 45.2719 80.5654C46.232 80.5793 46.4852 79.9433 46.4852 79.9433L47.423 65.6184L51.3327 80.2362C51.3327 80.2362 52.4847 80.9001 53.3835 80.4036C54.0208 80.0493 50.4172 63.1077 50.4172 63.1077C49.3633 63.6081 48.2126 63.8702 47.0465 63.8755C45.8804 63.8808 44.7274 63.6292 43.6691 63.1384Z" fill="#3F3D56"/>
<path d="M43.8556 52.3145C43.4921 52.562 43.1786 52.8763 42.9317 53.2407C42.5254 53.8376 41.8604 58.8562 42.1665 60.2148C42.2972 60.7895 47.0195 58.6442 47.0195 58.6442C47.0195 58.6442 46.9082 57.6818 46.4073 57.3554C46.4073 57.3554 44.0921 57.852 43.9196 57.679C43.747 57.506 43.8556 52.3145 43.8556 52.3145Z" fill="#9AA5FB"/>
<path d="M49.123 46.4394C49.123 46.4394 48.8642 47.2345 49.1035 47.6139C49.994 49.0087 49.4876 48.8692 49.1564 48.8971C49.1147 48.8971 49.1731 49.1761 49.0535 49.681C48.9588 50.0855 49.2427 51.0089 47.9988 50.6211C47.6426 50.5096 45.9146 50.0242 45.7921 48.9473C45.6391 47.6083 44.821 45.9122 46.4377 45.3459C48.3773 44.668 49.0089 45.1953 49.123 46.4394Z" fill="url(#paint13_linear)"/>
<path d="M48.3579 50.6937C48.3579 50.6937 47.0973 50.2278 46.5269 49.9656C46.5269 49.9656 47.7123 51.0982 48.3273 51.0815L48.3579 50.6937Z" fill="#B6765E"/>
<path d="M50.8905 52.4289C50.8905 52.4289 52.6547 56.8366 52.7438 57.6679C52.8328 58.4992 51.7726 58.9093 51.2996 58.7838C50.2505 58.4881 50.4174 56.6887 50.4174 56.6887L50.8905 52.4289Z" fill="#9AA5FB"/>
<path d="M49.6964 51.2265C49.6365 51.0942 49.5608 50.9696 49.471 50.8555C49.4319 50.8036 49.3774 50.7655 49.3152 50.7467C49.2664 50.7391 49.2171 50.7345 49.1677 50.7327C49.1042 50.7213 49.0425 50.7016 48.9841 50.6741C48.8177 50.6062 48.6331 50.5973 48.4609 50.649C48.376 50.677 48.299 50.7251 48.2365 50.7892C48.1741 50.8533 48.1279 50.9315 48.102 51.0173C48.0905 51.0504 48.0868 51.0858 48.0911 51.1206C48.0955 51.1555 48.1077 51.1888 48.127 51.2181C48.1514 51.2452 48.1844 51.263 48.2204 51.2686C48.2563 51.2742 48.2931 51.2672 48.3246 51.2488C48.3392 51.3539 48.3287 51.461 48.294 51.5613C48.2634 51.6991 48.2634 51.8419 48.294 51.9797C48.3198 52.1202 48.3948 52.2468 48.5055 52.3368C48.6891 52.4818 48.9535 52.4902 49.1399 52.6353C49.1687 52.66 49.1994 52.6824 49.2317 52.7022C49.2879 52.7268 49.3486 52.7391 49.4098 52.7385C49.5336 52.7554 49.6594 52.7319 49.7688 52.6715C49.8272 52.6269 49.869 52.5627 49.9302 52.5237C49.9531 52.5102 49.9746 52.4943 49.9942 52.4763C50.0499 52.4065 50.0359 52.2447 50.0415 52.1582C50.0433 52.0679 50.0282 51.978 49.997 51.8932C49.916 51.6628 49.8154 51.4397 49.6964 51.2265Z" fill="url(#paint14_linear)"/>
<path d="M52.7434 57.6679L50.3141 52.2587L48.9951 52.9004L50.5228 57.9468C50.5228 57.9468 50.9597 59.1464 51.7917 58.7307C52.6238 58.3151 52.6683 58.4016 52.7434 57.6679Z" fill="#9AA5FB"/>
<path d="M49.2399 45.2678C49.2221 45.4457 49.1479 45.6132 49.0282 45.7457C48.9085 45.8782 48.7496 45.9688 48.5749 46.0043C48.359 46.0196 48.1423 46.0196 47.9265 46.0043C47.8178 45.9973 47.7092 46.021 47.6133 46.0728C47.5174 46.1246 47.4379 46.2023 47.3839 46.2972C47.3505 46.3725 47.3421 46.4646 47.2781 46.5148C47.2141 46.565 47.0917 46.5511 46.9999 46.5706C46.7522 46.6236 46.691 46.9444 46.6826 47.1983L46.6548 48.1188C46.5351 47.9649 46.4009 47.8229 46.2541 47.6948C46.1848 47.7833 46.1371 47.8869 46.115 47.9973C46.0928 48.1076 46.0968 48.2216 46.1265 48.3301C46.1563 48.4386 46.211 48.5386 46.2864 48.6221C46.3617 48.7055 46.4555 48.7701 46.5602 48.8107C46.4071 48.9083 46.3988 49.1231 46.3849 49.3017C46.371 49.4802 46.2986 49.7062 46.1066 49.7285C45.9146 49.7508 45.8478 49.6336 45.7588 49.5248C45.1109 48.7283 44.7302 47.7472 44.6707 46.7212C44.6705 46.5537 44.649 46.3868 44.6067 46.2247C44.5705 46.1131 44.5093 46.0099 44.4648 45.8983C44.2422 45.3152 44.6262 44.6401 45.1633 44.3249C45.7003 44.0097 46.3459 43.9595 46.9692 43.9176L48.9867 43.7865C49.0225 43.7794 49.0594 43.7794 49.0952 43.7865C49.2511 43.8228 49.2817 44.0655 49.1843 44.1799C48.9895 44.4393 48.881 44.2886 48.9477 44.5899C49.0173 44.8354 49.2622 44.9414 49.2399 45.2678Z" fill="#3F3D56"/>
<path d="M50.5341 58.0389L49.1622 52.8278L48.9424 53.1402L50.0193 57.8018L50.4534 60.6416L50.5341 58.0389Z" fill="url(#paint15_linear)"/>
<path d="M50.409 63.038C50.409 63.038 48.4861 63.5624 47.5706 63.529C46.6551 63.4955 43.6748 62.8929 43.6748 62.8929C43.6748 62.8929 43.3409 64.1817 43.5162 64.3128C43.6915 64.444 44.5876 64.3603 45.8565 64.4105C47.1254 64.4607 47.899 65.0409 48.9175 65.0186C49.9359 64.9963 50.537 63.6238 50.537 63.6238L50.409 63.038Z" fill="#9AA5FB"/>
<path d="M44.3841 81.0675C44.3006 81.009 43.4185 81.5836 42.9426 81.9044C42.6922 82.0774 42.4195 82.295 42.4111 82.599C42.4166 82.7116 42.4517 82.8206 42.5128 82.9152C42.5738 83.0097 42.6588 83.0864 42.759 83.1374C42.9617 83.2378 43.1841 83.2921 43.4101 83.2965C44.1422 83.33 44.8756 83.2681 45.5918 83.1123C46.0481 83.0231 46.5741 82.8501 46.7049 82.4066C46.7564 82.1735 46.736 81.9303 46.6464 81.7092C46.5713 81.4692 46.421 81.0229 46.2819 81.1735C46.0426 81.4358 45.2801 81.6868 44.3841 81.0675Z" fill="#9AA5FB"/>
<path d="M53.4361 80.9336C53.9559 81.1141 54.4393 81.3862 54.8637 81.737C55.1113 81.91 55.3868 82.1276 55.3924 82.4289C55.388 82.542 55.3534 82.6519 55.2922 82.7471C55.231 82.8423 55.1455 82.9193 55.0445 82.9701C54.8428 83.0704 54.6214 83.1247 54.3962 83.1291C53.6632 83.1626 52.9289 83.1007 52.2117 82.945C51.7554 82.8557 51.2295 82.6827 51.0987 82.2392C51.0485 82.0051 51.0688 81.7614 51.1571 81.539C51.2168 81.3297 51.3404 81.1443 51.5105 81.009C51.5105 81.009 52.067 81.4469 52.426 81.4637C52.7043 81.4776 53.4361 80.9336 53.4361 80.9336Z" fill="#9AA5FB"/>
<path opacity="0.69" d="M44.3841 81.0675C44.3006 81.009 43.4185 81.5836 42.9426 81.9044C42.6922 82.0774 42.4195 82.295 42.4111 82.599C42.4166 82.7116 42.4517 82.8206 42.5128 82.9152C42.5738 83.0097 42.6588 83.0864 42.759 83.1374C42.9617 83.2378 43.1841 83.2921 43.4101 83.2965C44.1422 83.33 44.8756 83.2681 45.5918 83.1123C46.0481 83.0231 46.5741 82.8501 46.7049 82.4066C46.7564 82.1735 46.736 81.9303 46.6464 81.7092C46.5713 81.4692 46.421 81.0229 46.2819 81.1735C46.0426 81.4358 45.2801 81.6868 44.3841 81.0675Z" fill="url(#paint16_linear)"/>
<path opacity="0.69" d="M53.4361 80.9336C53.9559 81.1141 54.4393 81.3862 54.8637 81.737C55.1113 81.91 55.3868 82.1276 55.3924 82.4289C55.388 82.542 55.3534 82.6519 55.2922 82.7471C55.231 82.8423 55.1455 82.9193 55.0445 82.9701C54.8428 83.0704 54.6214 83.1247 54.3962 83.1291C53.6632 83.1626 52.9289 83.1007 52.2117 82.945C51.7554 82.8557 51.2295 82.6827 51.0987 82.2392C51.0485 82.0051 51.0688 81.7614 51.1571 81.539C51.2168 81.3297 51.3404 81.1443 51.5105 81.009C51.5105 81.009 52.067 81.4469 52.426 81.4637C52.7043 81.4776 53.4361 80.9336 53.4361 80.9336Z" fill="url(#paint17_linear)"/>
<path d="M74.4683 76.4367V79.151L119.409 82.2894V79.5723L74.4683 76.4367Z" fill="#9AA5FB"/>
<path d="M74.4683 76.4367V79.151L119.409 82.2894V79.5723L74.4683 76.4367Z" fill="url(#paint18_linear)"/>
<path d="M119.412 81.034C117.926 93.3755 81.1939 95.6072 81.1939 95.6072L74.4653 77.9012L119.412 81.034Z" fill="url(#paint19_linear)"/>
<path opacity="0.69" d="M81.1943 95.6072V117.715C81.1943 117.715 102.582 116.287 110.538 111.932L110.051 90.0279C110.051 90.0279 98.3664 94.3547 81.1943 95.6072Z" fill="url(#paint20_linear)"/>
<path opacity="0.69" d="M74.5129 78.5373L45.812 94.1733V115.165C45.812 115.165 64.587 119.83 81.1942 117.718V96.857L74.5129 78.5373Z" fill="url(#paint21_linear)"/>
<path d="M85.8242 14.1631H72.5757C71.483 14.1631 70.5972 15.0511 70.5972 16.1465V17.3182C70.5972 18.4136 71.483 19.3016 72.5757 19.3016H85.8242C86.9168 19.3016 87.8027 18.4136 87.8027 17.3182V16.1465C87.8027 15.0511 86.9168 14.1631 85.8242 14.1631Z" fill="#9AA5FB"/>
<path d="M85.3176 14.5732H73.0347C71.9573 14.5732 71.084 15.4487 71.084 16.5287V17.9319C71.084 19.012 71.9573 19.8875 73.0347 19.8875H85.3176C86.3949 19.8875 87.2682 19.012 87.2682 17.9319V16.5287C87.2682 15.4487 86.3949 14.5732 85.3176 14.5732Z" fill="white"/>
<path opacity="0.18" d="M69.8768 43.8674H63.0425V50.7188H69.8768V43.8674Z" fill="#9AA5FB"/>
<path opacity="0.18" d="M69.8768 53.263H63.0425V60.1144H69.8768V53.263Z" fill="#9AA5FB"/>
<path opacity="0.18" d="M78.3695 43.8674H71.5352V50.7188H78.3695V43.8674Z" fill="#9AA5FB"/>
<path opacity="0.18" d="M78.3695 53.263H71.5352V60.1144H78.3695V53.263Z" fill="#9AA5FB"/>
<path opacity="0.18" d="M90.9669 24.39H63.5321C63.128 24.39 62.8003 24.7184 62.8003 25.1236C62.8003 25.5288 63.128 25.8573 63.5321 25.8573H90.9669C91.3711 25.8573 91.6988 25.5288 91.6988 25.1236C91.6988 24.7184 91.3711 24.39 90.9669 24.39Z" fill="#9AA5FB"/>
<path d="M87.8722 51.0452H80.5815V43.4406H87.8722V51.0452ZM80.8431 50.783H87.6107V43.7028H80.8431V50.783Z" fill="#9AA5FB"/>
<path d="M87.8722 60.8313H80.5815V53.2294H87.8722V60.8313ZM80.8431 60.569H87.6107V53.4833H80.8431V60.569Z" fill="#9AA5FB"/>
<path d="M79.9249 41.5492H63.0088V28.1895C63.0095 28.0517 63.0647 27.9197 63.1622 27.8225C63.2597 27.7252 63.3916 27.6707 63.5292 27.6707C63.5974 27.6703 63.665 27.6834 63.7281 27.7094C63.7912 27.7353 63.8486 27.7734 63.8969 27.8216C63.9453 27.8699 63.9837 27.9272 64.0099 27.9903C64.036 28.0535 64.0495 28.1212 64.0495 28.1895V40.5087H79.9249C80.0624 40.5087 80.1944 40.5633 80.2919 40.6605C80.3894 40.7577 80.4445 40.8897 80.4453 41.0276C80.4453 41.1659 80.3904 41.2986 80.2929 41.3964C80.1953 41.4943 80.0629 41.5492 79.9249 41.5492Z" fill="#9AA5FB"/>
<path opacity="0.18" d="M63.8716 34.96L68.0707 30.7532L74.7102 36.0368L77.3455 33.8832L79.9334 36.4776V40.5087H64.0525L63.8716 34.96Z" fill="#9AA5FB"/>
<path d="M82.7886 46.7185L84.8394 48.5903L91.5012 41.764L84.9841 47.1202L83.5928 45.7254L82.7886 46.7185Z" fill="#9AA5FB"/>
</g>
<defs>
<linearGradient id="paint0_linear" x1="67.7368" y1="155.875" x2="74.2109" y2="45.172" gradientUnits="userSpaceOnUse">
<stop stop-opacity="0"/>
<stop offset="0.99"/>
</linearGradient>
<linearGradient id="paint1_linear" x1="15233.8" y1="2150.21" x2="15227.6" y2="3269.48" gradientUnits="userSpaceOnUse">
<stop stop-opacity="0"/>
<stop offset="0.99"/>
</linearGradient>
<linearGradient id="paint2_linear" x1="28807.6" y1="9529.81" x2="28284.3" y2="15912.2" gradientUnits="userSpaceOnUse">
<stop stop-opacity="0"/>
<stop offset="0.99"/>
</linearGradient>
<linearGradient id="paint3_linear" x1="27673.9" y1="4607.76" x2="27618.5" y2="6170.9" gradientUnits="userSpaceOnUse">
<stop stop-opacity="0"/>
<stop offset="0.99"/>
</linearGradient>
<linearGradient id="paint4_linear" x1="3979.71" y1="1336.04" x2="3986.61" y2="1802.86" gradientUnits="userSpaceOnUse">
<stop stop-opacity="0"/>
<stop offset="0.99"/>
</linearGradient>
<linearGradient id="paint5_linear" x1="12035.8" y1="8327.85" x2="13076.7" y2="4252.87" gradientUnits="userSpaceOnUse">
<stop stop-opacity="0"/>
<stop offset="0.99"/>
</linearGradient>
<linearGradient id="paint6_linear" x1="17175.1" y1="7522.02" x2="15071.3" y2="14083.6" gradientUnits="userSpaceOnUse">
<stop stop-opacity="0"/>
<stop offset="0.99"/>
</linearGradient>
<linearGradient id="paint7_linear" x1="104.853" y1="54.9787" x2="92.8893" y2="89.6078" gradientUnits="userSpaceOnUse">
<stop offset="0.02" stop-color="white" stop-opacity="0"/>
<stop offset="0.58" stop-color="white" stop-opacity="0.39"/>
<stop offset="0.68" stop-color="white" stop-opacity="0.68"/>
<stop offset="1" stop-color="white"/>
</linearGradient>
<linearGradient id="paint8_linear" x1="51.4805" y1="80.9169" x2="53.4757" y2="80.9169" gradientUnits="userSpaceOnUse">
<stop stop-color="#ECC4D7"/>
<stop offset="0.42" stop-color="#EFD4D1"/>
<stop offset="1" stop-color="#F2EAC9"/>
</linearGradient>
<linearGradient id="paint9_linear" x1="431.597" y1="732.986" x2="446.671" y2="732.986" gradientUnits="userSpaceOnUse">
<stop stop-color="#ECC4D7"/>
<stop offset="0.42" stop-color="#EFD4D1"/>
<stop offset="1" stop-color="#F2EAC9"/>
</linearGradient>
<linearGradient id="paint10_linear" x1="1051.99" y1="1598.06" x2="793.322" y2="1670.84" gradientUnits="userSpaceOnUse">
<stop stop-opacity="0"/>
<stop offset="0.99"/>
</linearGradient>
<linearGradient id="paint11_linear" x1="625.724" y1="432.506" x2="656.617" y2="432.506" gradientUnits="userSpaceOnUse">
<stop stop-color="#ECC4D7"/>
<stop offset="0.42" stop-color="#EFD4D1"/>
<stop offset="1" stop-color="#F2EAC9"/>
</linearGradient>
<linearGradient id="paint12_linear" x1="509.814" y1="626.406" x2="530.103" y2="626.406" gradientUnits="userSpaceOnUse">
<stop stop-color="#ECC4D7"/>
<stop offset="0.42" stop-color="#EFD4D1"/>
<stop offset="1" stop-color="#F2EAC9"/>
</linearGradient>
<linearGradient id="paint13_linear" x1="848.242" y1="1024.85" x2="910.206" y2="1024.85" gradientUnits="userSpaceOnUse">
<stop stop-color="#ECC4D7"/>
<stop offset="0.42" stop-color="#EFD4D1"/>
<stop offset="1" stop-color="#F2EAC9"/>
</linearGradient>
<linearGradient id="paint14_linear" x1="443.993" y1="447.554" x2="457.62" y2="447.554" gradientUnits="userSpaceOnUse">
<stop stop-color="#ECC4D7"/>
<stop offset="0.42" stop-color="#EFD4D1"/>
<stop offset="1" stop-color="#F2EAC9"/>
</linearGradient>
<linearGradient id="paint15_linear" x1="345.159" y1="1651.93" x2="267.798" y2="1649.1" gradientUnits="userSpaceOnUse">
<stop stop-opacity="0"/>
<stop offset="0.99"/>
</linearGradient>
<linearGradient id="paint16_linear" x1="878.193" y1="765.295" x2="872.156" y2="733.621" gradientUnits="userSpaceOnUse">
<stop offset="0.02" stop-color="white" stop-opacity="0"/>
<stop offset="0.58" stop-color="white" stop-opacity="0.39"/>
<stop offset="0.68" stop-color="white" stop-opacity="0.68"/>
<stop offset="1" stop-color="white"/>
</linearGradient>
<linearGradient id="paint17_linear" x1="999.661" y1="743.438" x2="1002.56" y2="727.325" gradientUnits="userSpaceOnUse">
<stop offset="0.02" stop-color="white" stop-opacity="0"/>
<stop offset="0.58" stop-color="white" stop-opacity="0.39"/>
<stop offset="0.68" stop-color="white" stop-opacity="0.68"/>
<stop offset="1" stop-color="white"/>
</linearGradient>
<linearGradient id="paint18_linear" x1="16467.5" y1="1554.19" x2="16427.5" y2="2153.21" gradientUnits="userSpaceOnUse">
<stop stop-opacity="0"/>
<stop offset="0.99"/>
</linearGradient>
<linearGradient id="paint19_linear" x1="12135.1" y1="8190.22" x2="13145.1" y2="4237.83" gradientUnits="userSpaceOnUse">
<stop stop-opacity="0"/>
<stop offset="0.99"/>
</linearGradient>
<linearGradient id="paint20_linear" x1="11981.5" y1="7434.66" x2="8589.27" y2="19929.8" gradientUnits="userSpaceOnUse">
<stop offset="0.02" stop-color="white" stop-opacity="0"/>
<stop offset="0.58" stop-color="white" stop-opacity="0.39"/>
<stop offset="0.68" stop-color="white" stop-opacity="0.68"/>
<stop offset="1" stop-color="white"/>
</linearGradient>
<linearGradient id="paint21_linear" x1="10776.5" y1="19023.6" x2="5746.08" y2="8951.39" gradientUnits="userSpaceOnUse">
<stop offset="0.02" stop-color="white" stop-opacity="0"/>
<stop offset="0.58" stop-color="white" stop-opacity="0.39"/>
<stop offset="0.68" stop-color="white" stop-opacity="0.68"/>
<stop offset="1" stop-color="white"/>
</linearGradient>
<clipPath id="clip0">
<rect width="152" height="135" fill="white"/>
</clipPath>
</defs>
</svg>
