<svg width="123" height="124" viewBox="0 0 123 124" fill="none" xmlns="http://www.w3.org/2000/svg">
<g clip-path="url(#clip0)">
<path opacity="0.18" d="M40.4366 113.641C53.6257 120.415 68.2414 123.965 83.078 124.001C88.6077 124.001 94.2164 123.503 99.4056 121.601C112.79 116.675 121.62 101.685 119.423 87.6342C118.646 82.65 116.648 77.8167 116.775 72.7743C116.909 67.468 119.371 62.5455 120.936 57.4757C122.688 51.7802 123.324 45.8019 122.81 39.8667C122.037 30.9885 118.34 21.9801 111.139 16.684C108.247 14.5518 104.918 13.1019 101.62 11.669L86.4584 5.06005C77.5174 1.17284 66.8261 -2.6321 58.511 2.44801C50.9766 7.05165 48.6932 17.1879 41.7846 22.6725C33.2081 29.494 18.8063 28.2222 13.2045 37.6215C8.53456 45.4644 13.2526 55.8715 10.2437 64.4823C9.23952 67.3514 7.43069 69.8504 5.79725 72.4144C0.522087 80.7339 -5.04881 98.8502 8.17348 103.324C12.0972 104.65 16.7705 103.646 20.8421 104.558C27.9192 106.141 34.0782 110.371 40.4366 113.641Z" fill="#9AA5FB"/>
<path d="M10.7603 94.2426C10.7603 94.2426 19.9798 91.5757 18.9859 82.8826C17.9921 74.1895 20.2102 58.2019 25.3959 58.5447C30.5817 58.8875 56.5482 58.5447 56.5482 58.5447V78.3338H39.502C39.502 78.3338 40.6918 84.9496 37.6175 89.5944C34.5432 94.2392 32.9613 93.5467 32.9613 93.5467L10.7603 94.2426Z" fill="#9AA5FB"/>
<path d="M10.7603 94.2426C10.7603 94.2426 19.9798 91.5757 18.9859 82.8826C17.9921 74.1895 20.2102 58.2019 25.3959 58.5447C30.5817 58.8875 56.5482 58.5447 56.5482 58.5447V78.3338H39.502C39.502 78.3338 40.6918 84.9496 37.6175 89.5944C34.5432 94.2392 32.9613 93.5467 32.9613 93.5467L10.7603 94.2426Z" fill="url(#paint0_linear)"/>
<path d="M49.8081 51.4695H91.0225C91.0225 51.4695 95.5789 52.5562 96.0741 58.5824V112.421L65.4513 112.914C65.1585 112.938 64.8645 112.944 64.571 112.931C62.1383 112.833 59.8385 111.798 58.1551 110.045C56.4718 108.291 55.5358 105.956 55.5441 103.529V57.0021C55.5441 57.0021 54.9629 52.162 49.8081 51.4695Z" fill="#9AA5FB"/>
<path d="M49.8081 51.4695H91.0225C91.0225 51.4695 95.5789 52.5562 96.0741 58.5824V112.421L65.4513 112.914C65.0942 112.941 64.7356 112.941 64.3784 112.914C61.9819 112.772 59.7309 111.721 58.0879 109.976C56.4448 108.231 55.5346 105.925 55.5441 103.532V57.0021C55.5441 57.0021 54.9629 52.162 49.8081 51.4695Z" fill="url(#paint1_linear)"/>
<path d="M67.3496 99.71C67.3496 99.71 62.6316 99.2438 62.5834 105.623C62.5353 112.002 66.82 110.765 66.82 110.765L67.7279 110.713C67.7279 110.713 73.4295 106.792 70.3517 102.466C70.3517 102.456 69.0897 99.9294 67.3496 99.71Z" fill="url(#paint2_linear)"/>
<path d="M67.8545 100.615C67.8545 100.615 63.611 100.186 63.5663 105.935C63.5216 111.684 67.38 110.556 67.38 110.556L68.195 110.511C68.195 110.511 73.3257 106.981 70.5575 103.086C70.5575 103.069 69.4192 100.8 67.8545 100.615Z" fill="url(#paint3_linear)"/>
<path d="M67.3493 99.71H107.529C107.529 99.71 110.469 100.762 110.173 105.606C109.877 110.45 104.723 112.914 104.723 112.914H65.4648C65.4648 112.914 69.4298 110.594 69.4814 106.058C69.533 101.523 67.3493 99.71 67.3493 99.71Z" fill="#9AA5FB"/>
<path d="M67.3493 99.71H107.529C107.529 99.71 110.469 100.762 110.173 105.606C109.877 110.45 104.723 112.914 104.723 112.914H65.4648C65.4648 112.914 69.4298 110.594 69.4814 106.058C69.533 101.523 67.3493 99.71 67.3493 99.71Z" fill="url(#paint4_linear)"/>
<path d="M25.3955 58.5482C25.3955 58.5482 28.236 58.8121 27.9712 63.2238C27.7064 67.6355 27.3109 78.5704 32.5964 78.5704C37.8819 78.5704 41.4514 77.7134 41.6474 74.6832C41.8434 71.6529 41.9913 58.3528 41.9913 58.3528L25.3955 58.5482Z" fill="#9AA5FB"/>
<path d="M49.8079 51.4695C49.8079 51.4695 42.5864 51.2399 41.9777 58.3527C41.369 65.4656 41.6338 74.6831 41.6338 74.6831C41.6338 74.6831 40.5781 78.4538 35.0278 78.6355H55.6023L55.5714 57.0021C55.5714 57.0021 54.8286 52.0283 49.8079 51.4695Z" fill="#9AA5FB"/>
<path d="M49.8079 51.4695C49.8079 51.4695 42.5864 51.2399 41.9777 58.3527C41.369 65.4656 41.6338 74.6831 41.6338 74.6831C41.6338 74.6831 40.5781 78.4538 35.0278 78.6355H55.6023L55.5714 57.0021C55.5714 57.0021 54.8286 52.0283 49.8079 51.4695Z" fill="url(#paint5_linear)"/>
<path d="M68.4533 14.3457C67.0468 14.6885 66.1321 16.1145 65.8639 17.5336C65.5956 18.9528 65.8329 20.4096 65.9567 21.8493C66.0874 23.3953 66.0805 24.9344 66.0908 26.5009C66.0908 27.1865 66.108 27.9235 66.4553 28.5268C66.8955 29.2878 67.7724 29.6854 68.6287 29.898C70.042 30.2408 71.5139 30.1791 72.9651 30.1174C73.5325 30.0934 74.1446 30.0522 74.571 29.682C74.8778 29.3778 75.0852 28.9883 75.1659 28.5645C75.4143 27.4792 75.5423 26.3699 75.5476 25.2566L75.7952 19.8303C75.8846 17.897 75.8158 15.3295 73.7319 14.38C73.137 14.1092 72.4836 14.1983 71.8509 14.2223C70.7608 14.2634 69.54 14.068 68.4533 14.3457Z" fill="#9AA5FB"/>
<path d="M68.2814 27.231C67.8516 27.5738 68.2814 28.753 68.9692 28.945C69.3887 29.0581 66.9059 29.1061 66.6446 28.7564C66.3519 28.3425 66.1697 27.8613 66.115 27.3579C66.0531 25.8256 66.2216 24.2728 66.1597 22.7234C66.0946 22.0469 66.1446 21.3642 66.3076 20.7043C66.6136 19.7 67.4114 18.9253 67.8413 17.962C68.3124 18.5208 68.2505 19.3332 68.2058 20.0668C68.1407 21.1627 68.181 22.2624 68.3261 23.3507C68.3536 23.6841 68.4361 24.0107 68.5703 24.3173C69.0002 25.1983 70.2897 25.4177 70.5511 26.374C70.8812 27.6012 68.9898 27.447 68.2814 27.231Z" fill="url(#paint6_linear)"/>
<path d="M70.5408 14.8461L70.8021 15.5009C70.9121 15.7751 71.0669 16.0836 71.3557 16.1453C71.506 16.1619 71.6579 16.1382 71.7959 16.0768C72.1299 15.9753 72.4126 15.751 72.5868 15.4495C72.6724 15.2316 72.7054 14.9968 72.6831 14.7639C72.6556 13.9343 72.5696 10.8595 71.3489 11.0138C70.3688 11.1475 70.2622 14.1537 70.5408 14.8461Z" fill="url(#paint7_linear)"/>
<path d="M71.614 14.8598C71.8169 15.0792 72.1298 15.2746 72.398 15.1443C72.6663 15.014 72.7144 14.7192 72.7419 14.4587C72.7694 14.1982 72.7866 13.9377 72.7901 13.6772C72.8058 13.5495 72.7772 13.4203 72.709 13.3112C72.6408 13.202 72.5371 13.1195 72.4152 13.0773C72.116 12.8888 70.8815 12.0935 70.8574 12.9196C70.8648 13.6365 71.1338 14.3261 71.614 14.8598Z" fill="url(#paint8_linear)"/>
<path d="M75.1689 9.09069C75.0052 10.0435 74.7754 10.9839 74.4812 11.905C74.368 12.3085 74.2002 12.6948 73.9825 13.0533C73.7609 13.4123 73.4203 13.6827 73.0197 13.8177C72.7529 13.8784 72.476 13.8791 72.2089 13.8198C71.9418 13.7605 71.6914 13.6427 71.4756 13.4749C71.0708 13.1886 70.7521 12.7975 70.554 12.3437C70.4079 11.9849 70.3185 11.6056 70.2893 11.2194C70.1712 10.2055 70.3503 9.17914 70.8051 8.26457C70.9536 7.9613 71.1631 7.69175 71.4206 7.47273C71.6746 7.28623 71.9649 7.15481 72.2728 7.08692C72.5808 7.01902 72.8997 7.01616 73.2088 7.07852C73.8262 7.2056 74.4171 7.4375 74.9557 7.7641C75.4372 8.03833 75.248 8.64163 75.1689 9.09069Z" fill="url(#paint9_linear)"/>
<path d="M75.0798 6.54383C75.2554 6.68736 75.4125 6.85201 75.5475 7.03402L76.2697 7.92527C76.3808 8.03871 76.4572 8.18141 76.4897 8.33661C76.496 8.4737 76.4587 8.60927 76.3831 8.72396C76.2626 8.9195 76.0972 9.08365 75.9005 9.20286C75.7037 9.32207 75.4814 9.39291 75.2518 9.40954C74.7269 9.395 74.2158 9.2386 73.7731 8.95706C73.7059 9.05215 73.6117 9.12491 73.5025 9.16587C73.3933 9.20683 73.2743 9.2141 73.161 9.18673C72.9306 9.14902 72.7173 9.04276 72.4732 9.0119C72.2704 8.99081 72.0657 9.02457 71.8805 9.10962C71.6953 9.19467 71.5366 9.32788 71.4209 9.49523C71.3556 9.59122 71.2421 9.71462 71.1527 9.63921C71.136 9.62382 71.1226 9.6053 71.1131 9.58471C71.1037 9.56411 71.0984 9.54186 71.0977 9.51923C71.0598 9.32727 70.9601 9.09075 70.7538 9.10103C70.6905 9.10993 70.632 9.13978 70.5877 9.18578C70.5434 9.23177 70.5159 9.29126 70.5096 9.35469C70.5023 9.48055 70.521 9.60657 70.5646 9.7249L70.7331 10.2699C70.7383 10.2913 70.7383 10.3137 70.7331 10.3351C70.7331 10.3933 70.6334 10.3899 70.5715 10.3968C70.434 10.3968 70.348 10.551 70.3067 10.6813C70.2803 10.8176 70.224 10.9464 70.1417 11.0583C70.1267 11.0738 70.1076 11.0845 70.0866 11.0892C70.0637 11.0866 70.0421 11.077 70.0247 11.0618C69.9248 10.9577 69.847 10.8344 69.7962 10.6995C69.7454 10.5646 69.7225 10.4208 69.729 10.2768C69.6946 9.85859 69.6705 9.43696 69.6534 9.01533C69.6169 8.68406 69.6509 8.34884 69.7531 8.03153C69.864 7.78437 70.0087 7.55367 70.1829 7.34596C70.3373 7.11422 70.5224 6.90436 70.7331 6.72208C71.0622 6.49706 71.4432 6.35906 71.8404 6.32102C72.4203 6.2178 73.0088 6.17074 73.5977 6.18048C74.1176 6.14555 74.6355 6.27252 75.0798 6.54383Z" fill="#3E3E54"/>
<path d="M77.5044 18.0957C77.948 19.4669 77.9343 20.9511 77.9102 22.4011C77.9144 22.9359 77.8753 23.4701 77.7933 23.9985C77.7247 24.4449 77.5515 24.8688 77.2878 25.236C77.1553 25.4184 76.9858 25.571 76.7903 25.6838C76.5948 25.7966 76.3776 25.8671 76.153 25.8907C75.9681 25.9054 75.7829 25.866 75.62 25.7776C75.2039 25.5342 75.142 24.972 75.1248 24.4921L74.9253 18.8499C74.8944 17.9895 73.3159 15.5865 73.4673 14.7364C73.6323 13.8143 75.7059 15.4425 76.2011 15.9293C76.8033 16.537 77.2503 17.28 77.5044 18.0957Z" fill="#9AA5FB"/>
<path d="M77.3186 19.9092C77.3186 19.7823 77.3186 19.6246 77.2051 19.5664C77.1697 19.5521 77.1312 19.5471 77.0932 19.5519C77.0553 19.5567 77.0192 19.5711 76.9885 19.5938C76.9183 19.6592 76.8631 19.7391 76.8269 19.8279C76.7907 19.9167 76.7742 20.0122 76.7787 20.108C76.7409 20.5159 76.6996 20.9238 76.6618 21.3317C76.6412 21.5717 76.5002 21.9967 76.8681 21.935C77.4012 21.8459 77.2911 20.3068 77.3186 19.9092Z" fill="#3E3E54"/>
<path d="M76.3659 21.2939C76.1862 21.3143 76.0136 21.3751 75.861 21.472C75.7085 21.5688 75.5801 21.699 75.4856 21.8527C75.4735 21.8743 75.4643 21.8973 75.4581 21.9212C75.4571 21.9532 75.4668 21.9845 75.4856 22.0104C75.5423 22.0801 75.6134 22.1367 75.6942 22.1764C75.7749 22.216 75.8633 22.2377 75.9533 22.24C76.3454 22.3035 76.7425 22.331 77.1397 22.3223C77.2213 22.3275 77.3027 22.3085 77.3735 22.2675C77.4349 22.2123 77.4771 22.139 77.4939 22.0584C77.5695 21.8116 77.7174 21.3316 77.3941 21.2631C77.2272 21.2654 77.0606 21.2792 76.8955 21.3042C76.7193 21.2905 76.5425 21.2871 76.3659 21.2939Z" fill="url(#paint10_linear)"/>
<path d="M63.6493 19.3744C63.0646 20.1285 62.4491 21.0026 62.597 21.9419C62.7199 22.4952 63.0119 22.997 63.4326 23.3782C64.7428 24.7185 66.5619 25.4006 68.3226 26.045C68.3967 26.083 68.4811 26.0962 68.5633 26.0827C68.6328 26.0599 68.6939 26.0169 68.7387 25.9593C69.3096 25.2909 68.8969 24.2454 68.2745 23.6112C67.652 22.9771 66.8302 22.5349 66.4278 21.7533C66.3823 21.6831 66.3607 21.6002 66.3659 21.5168C66.3945 21.4226 66.4523 21.3398 66.531 21.2803C67.5111 20.3925 68.4086 19.3127 68.6596 18.017C68.8212 17.1737 68.3398 14.4143 66.9884 15.1821C66.3384 15.5489 65.8191 16.5738 65.3687 17.1566L63.6493 19.3744Z" fill="#9AA5FB"/>
<path d="M66.3559 30.0693L68.1578 50.071L65.8057 51.3565L70.2761 51.1302L70.8057 34.3336L72.6283 34.2548L74.0726 51.2879L78.7047 51.5896L76.2735 49.8516L76.4007 28.9416L66.913 28.9176C66.3559 28.9244 66.3043 29.5072 66.3559 30.0693Z" fill="#3E3E54"/>
<path d="M72.2495 22.2778C72.3166 22.0796 72.4549 21.9132 72.6378 21.8107C72.8207 21.7082 73.0351 21.6767 73.2399 21.7224C74.9684 21.7224 76.697 21.7921 78.4256 21.9315C78.6499 21.9224 78.8691 21.9998 79.0377 22.1475C79.1102 22.2726 79.1498 22.4139 79.1528 22.5584C79.1558 22.7028 79.1221 22.8456 79.0549 22.9736C78.3134 25.0228 77.4298 27.0181 76.4105 28.945C76.3773 29.0222 76.3307 29.093 76.2729 29.1541C76.1229 29.269 75.9353 29.324 75.7468 29.3083C73.7144 29.3832 71.6793 29.3329 69.6532 29.1575C69.5362 29.1575 69.3953 29.1232 69.3471 29.0135C69.2336 28.7564 69.7942 27.9852 69.9042 27.6972C70.1312 27.1008 70.3444 26.4975 70.592 25.9044C71.0768 24.6738 71.6374 23.4604 72.2495 22.2778Z" fill="white"/>
<path d="M69.97 24.2557C70.2451 24.1974 70.6061 24.1974 70.7162 24.4545C70.7815 24.6088 70.7334 24.8247 70.8744 24.9173C70.929 24.9471 70.9912 24.9602 71.0532 24.955C71.2733 24.955 71.4899 24.9036 71.7066 24.9138C71.8159 24.9093 71.9246 24.9324 72.0226 24.981C72.1206 25.0295 72.2047 25.1019 72.2671 25.1915C72.3135 25.3022 72.3322 25.4225 72.3214 25.5419C72.3106 25.6614 72.2707 25.7764 72.2052 25.8771C72.1038 26.0802 71.9728 26.2673 71.8166 26.4324C71.6961 26.5662 71.55 26.6746 71.3868 26.7512C71.2359 26.8132 71.0753 26.8481 70.9122 26.854C70.227 26.9101 69.5403 26.7635 68.9383 26.4324C68.5874 26.2706 68.3093 25.9848 68.1577 25.6303C67.7794 24.5505 69.2856 24.3928 69.97 24.2557Z" fill="url(#paint11_linear)"/>
<path d="M90.737 57.89H64.9699C64.4229 57.89 63.9795 58.332 63.9795 58.8772C63.9795 59.4224 64.4229 59.8644 64.9699 59.8644H90.737C91.284 59.8644 91.7274 59.4224 91.7274 58.8772C91.7274 58.332 91.284 57.89 90.737 57.89Z" fill="url(#paint12_linear)"/>
<path d="M90.737 62.2365H64.9699C64.4229 62.2365 63.9795 62.6785 63.9795 63.2237C63.9795 63.7689 64.4229 64.2109 64.9699 64.2109H90.737C91.284 64.2109 91.7274 63.7689 91.7274 63.2237C91.7274 62.6785 91.284 62.2365 90.737 62.2365Z" fill="url(#paint13_linear)"/>
<path d="M90.737 66.5831H64.9699C64.4229 66.5831 63.9795 67.0251 63.9795 67.5703C63.9795 68.1156 64.4229 68.5576 64.9699 68.5576H90.737C91.284 68.5576 91.7274 68.1156 91.7274 67.5703C91.7274 67.0251 91.284 66.5831 90.737 66.5831Z" fill="url(#paint14_linear)"/>
<path d="M90.737 70.9296H64.9699C64.4229 70.9296 63.9795 71.3716 63.9795 71.9168C63.9795 72.462 64.4229 72.904 64.9699 72.904H90.737C91.284 72.904 91.7274 72.462 91.7274 71.9168C91.7274 71.3716 91.284 70.9296 90.737 70.9296Z" fill="url(#paint15_linear)"/>
<path d="M90.737 75.2762H64.9699C64.4229 75.2762 63.9795 75.7182 63.9795 76.2634C63.9795 76.8087 64.4229 77.2507 64.9699 77.2507H90.737C91.284 77.2507 91.7274 76.8087 91.7274 76.2634C91.7274 75.7182 91.284 75.2762 90.737 75.2762Z" fill="url(#paint16_linear)"/>
<path d="M90.737 79.6227H64.9699C64.4229 79.6227 63.9795 80.0647 63.9795 80.6099C63.9795 81.1552 64.4229 81.5972 64.9699 81.5972H90.737C91.284 81.5972 91.7274 81.1552 91.7274 80.6099C91.7274 80.0647 91.284 79.6227 90.737 79.6227Z" fill="url(#paint17_linear)"/>
<path d="M90.737 83.9693H64.9699C64.4229 83.9693 63.9795 84.4113 63.9795 84.9566C63.9795 85.5018 64.4229 85.9438 64.9699 85.9438H90.737C91.284 85.9438 91.7274 85.5018 91.7274 84.9566C91.7274 84.4113 91.284 83.9693 90.737 83.9693Z" fill="url(#paint18_linear)"/>
<path d="M69.7289 88.381H66.689V97.338H69.7289V88.381Z" fill="url(#paint19_linear)"/>
<path d="M73.9589 91.1163H70.9189V97.3379H73.9589V91.1163Z" fill="url(#paint20_linear)"/>
<path d="M82.2152 88.7718H79.1753V97.338H82.2152V88.7718Z" fill="url(#paint21_linear)"/>
<path d="M78.12 93.3857H75.0801V97.338H78.12V93.3857Z" fill="url(#paint22_linear)"/>
<path d="M88.9523 90.5336H85.3862V97.4031H88.9523V90.5336Z" fill="url(#paint23_linear)"/>
<path d="M92.5216 90.5508H88.9556V97.4065H92.5216V90.5508Z" fill="url(#paint24_linear)"/>
<path d="M92.5218 88.6449H85.3862V90.4891H92.5218V88.6449Z" fill="url(#paint25_linear)"/>
<path d="M55.8467 105.647C56.0633 106.892 57.714 111.259 61.8509 112.338C63.756 112.835 65.9775 113.319 67.8 112.575C68.3455 112.37 68.8421 112.053 69.2581 111.646C69.7357 111.111 70.0038 110.423 70.0133 109.707C70.0228 108.991 69.7729 108.296 69.3097 107.748C68.9049 107.346 68.4411 107.007 67.9342 106.744C66.4692 105.891 64.681 104.492 62.9169 104.451C61.1528 104.41 57.5179 105.071 55.8467 105.647Z" fill="url(#paint26_linear)"/>
</g>
<defs>
<linearGradient id="paint0_linear" x1="10.7603" y1="76.3937" x2="56.5482" y2="76.3937" gradientUnits="userSpaceOnUse">
<stop stop-opacity="0"/>
<stop offset="0.99"/>
</linearGradient>
<linearGradient id="paint1_linear" x1="49.815" y1="81.8474" x2="121.566" y2="82.7581" gradientUnits="userSpaceOnUse">
<stop offset="0.02" stop-color="white" stop-opacity="0"/>
<stop offset="0.32" stop-color="white" stop-opacity="0.39"/>
<stop offset="0.68" stop-color="white" stop-opacity="0.68"/>
<stop offset="1" stop-color="white"/>
</linearGradient>
<linearGradient id="paint2_linear" x1="2754.73" y1="4169.78" x2="1403.41" y2="3339.37" gradientUnits="userSpaceOnUse">
<stop stop-opacity="0"/>
<stop offset="0.99"/>
</linearGradient>
<linearGradient id="paint3_linear" x1="2445.22" y1="3715.84" x2="1351.31" y2="3043.39" gradientUnits="userSpaceOnUse">
<stop stop-opacity="0"/>
<stop offset="0.99"/>
</linearGradient>
<linearGradient id="paint4_linear" x1="14221.3" y1="3659.56" x2="14074.2" y2="5164.05" gradientUnits="userSpaceOnUse">
<stop stop-opacity="0"/>
<stop offset="0.99"/>
</linearGradient>
<linearGradient id="paint5_linear" x1="3104.95" y1="5274.28" x2="4334.28" y2="5274.28" gradientUnits="userSpaceOnUse">
<stop stop-opacity="0"/>
<stop offset="0.99"/>
</linearGradient>
<linearGradient id="paint6_linear" x1="1186.56" y1="792.939" x2="1074.39" y2="805.561" gradientUnits="userSpaceOnUse">
<stop stop-opacity="0"/>
<stop offset="0.99"/>
</linearGradient>
<linearGradient id="paint7_linear" x1="70.4066" y1="13.5881" x2="72.6831" y2="13.5881" gradientUnits="userSpaceOnUse">
<stop stop-color="#E5C5D5"/>
<stop offset="0.42" stop-color="#EAD4D1"/>
<stop offset="1" stop-color="#F0E9CB"/>
</linearGradient>
<linearGradient id="paint8_linear" x1="567.704" y1="140.973" x2="564.95" y2="98.7133" gradientUnits="userSpaceOnUse">
<stop stop-opacity="0"/>
<stop offset="0.99"/>
</linearGradient>
<linearGradient id="paint9_linear" x1="1333.11" y1="232.424" x2="1406.24" y2="232.424" gradientUnits="userSpaceOnUse">
<stop stop-color="#E5C5D5"/>
<stop offset="0.42" stop-color="#EAD4D1"/>
<stop offset="1" stop-color="#F0E9CB"/>
</linearGradient>
<linearGradient id="paint10_linear" x1="645.244" y1="91.3277" x2="658.509" y2="91.3277" gradientUnits="userSpaceOnUse">
<stop stop-color="#E5C5D5"/>
<stop offset="0.42" stop-color="#EAD4D1"/>
<stop offset="1" stop-color="#F0E9CB"/>
</linearGradient>
<linearGradient id="paint11_linear" x1="1105.03" y1="227.572" x2="1157.02" y2="227.572" gradientUnits="userSpaceOnUse">
<stop stop-color="#E5C5D5"/>
<stop offset="0.42" stop-color="#EAD4D1"/>
<stop offset="1" stop-color="#F0E9CB"/>
</linearGradient>
<linearGradient id="paint12_linear" x1="6396.6" y1="359.488" x2="6394.85" y2="616.469" gradientUnits="userSpaceOnUse">
<stop offset="0.02" stop-color="white" stop-opacity="0"/>
<stop offset="0.32" stop-color="white" stop-opacity="0.39"/>
<stop offset="0.68" stop-color="white" stop-opacity="0.68"/>
<stop offset="1" stop-color="white"/>
</linearGradient>
<linearGradient id="paint13_linear" x1="6429.9" y1="364.075" x2="6428.15" y2="621.038" gradientUnits="userSpaceOnUse">
<stop offset="0.02" stop-color="white" stop-opacity="0"/>
<stop offset="0.32" stop-color="white" stop-opacity="0.39"/>
<stop offset="0.68" stop-color="white" stop-opacity="0.68"/>
<stop offset="1" stop-color="white"/>
</linearGradient>
<linearGradient id="paint14_linear" x1="6463.2" y1="368.636" x2="6461.45" y2="625.616" gradientUnits="userSpaceOnUse">
<stop offset="0.02" stop-color="white" stop-opacity="0"/>
<stop offset="0.32" stop-color="white" stop-opacity="0.39"/>
<stop offset="0.68" stop-color="white" stop-opacity="0.68"/>
<stop offset="1" stop-color="white"/>
</linearGradient>
<linearGradient id="paint15_linear" x1="6496.49" y1="373.219" x2="6494.74" y2="630.18" gradientUnits="userSpaceOnUse">
<stop offset="0.02" stop-color="white" stop-opacity="0"/>
<stop offset="0.32" stop-color="white" stop-opacity="0.39"/>
<stop offset="0.68" stop-color="white" stop-opacity="0.68"/>
<stop offset="1" stop-color="white"/>
</linearGradient>
<linearGradient id="paint16_linear" x1="6529.79" y1="377.784" x2="6528.04" y2="634.766" gradientUnits="userSpaceOnUse">
<stop offset="0.02" stop-color="white" stop-opacity="0"/>
<stop offset="0.32" stop-color="white" stop-opacity="0.39"/>
<stop offset="0.68" stop-color="white" stop-opacity="0.68"/>
<stop offset="1" stop-color="white"/>
</linearGradient>
<linearGradient id="paint17_linear" x1="6563.09" y1="382.365" x2="6561.34" y2="639.322" gradientUnits="userSpaceOnUse">
<stop offset="0.02" stop-color="white" stop-opacity="0"/>
<stop offset="0.32" stop-color="white" stop-opacity="0.39"/>
<stop offset="0.68" stop-color="white" stop-opacity="0.68"/>
<stop offset="1" stop-color="white"/>
</linearGradient>
<linearGradient id="paint18_linear" x1="6596.38" y1="386.929" x2="6594.64" y2="643.905" gradientUnits="userSpaceOnUse">
<stop offset="0.02" stop-color="white" stop-opacity="0"/>
<stop offset="0.32" stop-color="white" stop-opacity="0.39"/>
<stop offset="0.68" stop-color="white" stop-opacity="0.68"/>
<stop offset="1" stop-color="white"/>
</linearGradient>
<linearGradient id="paint19_linear" x1="673.672" y1="2321.55" x2="636.209" y2="2529.86" gradientUnits="userSpaceOnUse">
<stop offset="0.02" stop-color="white" stop-opacity="0"/>
<stop offset="0.32" stop-color="white" stop-opacity="0.39"/>
<stop offset="0.68" stop-color="white" stop-opacity="0.68"/>
<stop offset="1" stop-color="white"/>
</linearGradient>
<linearGradient id="paint20_linear" x1="715.901" y1="1647.08" x2="697.405" y2="1794.13" gradientUnits="userSpaceOnUse">
<stop offset="0.02" stop-color="white" stop-opacity="0"/>
<stop offset="0.32" stop-color="white" stop-opacity="0.39"/>
<stop offset="0.68" stop-color="white" stop-opacity="0.68"/>
<stop offset="1" stop-color="white"/>
</linearGradient>
<linearGradient id="paint21_linear" x1="796.231" y1="2243.61" x2="761.874" y2="2443.28" gradientUnits="userSpaceOnUse">
<stop offset="0.02" stop-color="white" stop-opacity="0"/>
<stop offset="0.32" stop-color="white" stop-opacity="0.39"/>
<stop offset="0.68" stop-color="white" stop-opacity="0.68"/>
<stop offset="1" stop-color="white"/>
</linearGradient>
<linearGradient id="paint22_linear" x1="757.33" y1="1084.79" x2="749.796" y2="1179.08" gradientUnits="userSpaceOnUse">
<stop offset="0.02" stop-color="white" stop-opacity="0"/>
<stop offset="0.32" stop-color="white" stop-opacity="0.39"/>
<stop offset="0.68" stop-color="white" stop-opacity="0.68"/>
<stop offset="1" stop-color="white"/>
</linearGradient>
<linearGradient id="paint23_linear" x1="988.852" y1="1862.65" x2="992.689" y2="2088.4" gradientUnits="userSpaceOnUse">
<stop offset="0.02" stop-color="white" stop-opacity="0"/>
<stop offset="0.32" stop-color="white" stop-opacity="0.39"/>
<stop offset="0.68" stop-color="white" stop-opacity="0.68"/>
<stop offset="1" stop-color="white"/>
</linearGradient>
<linearGradient id="paint24_linear" x1="1029.79" y1="1885.12" x2="1031.77" y2="2272.39" gradientUnits="userSpaceOnUse">
<stop offset="0.02" stop-color="white" stop-opacity="0"/>
<stop offset="0.32" stop-color="white" stop-opacity="0.39"/>
<stop offset="0.68" stop-color="white" stop-opacity="0.68"/>
<stop offset="1" stop-color="white"/>
</linearGradient>
<linearGradient id="paint25_linear" x1="1927.28" y1="556.922" x2="1927.92" y2="589.826" gradientUnits="userSpaceOnUse">
<stop offset="0.02" stop-color="white" stop-opacity="0"/>
<stop offset="0.32" stop-color="white" stop-opacity="0.39"/>
<stop offset="0.68" stop-color="white" stop-opacity="0.68"/>
<stop offset="1" stop-color="white"/>
</linearGradient>
<linearGradient id="paint26_linear" x1="3457.17" y1="2625.67" x2="3210.54" y2="3516.46" gradientUnits="userSpaceOnUse">
<stop stop-opacity="0"/>
<stop offset="0.99"/>
</linearGradient>
<clipPath id="clip0">
<rect width="123" height="124" fill="white"/>
</clipPath>
</defs>
</svg>
