<svg width="3504" height="243" viewBox="0 0 3504 243" fill="none" xmlns="http://www.w3.org/2000/svg">
<rect x="0.000427246" y="2.99982" width="3500" height="240" fill="#576CA8"/>
<path fill-rule="evenodd" clip-rule="evenodd" d="M266.396 4.99982L251.144 40.2772L189.189 53.8016L159.349 4.99982H266.396Z" fill="url(#paint0_linear)" fill-opacity="0.56"/>
<path d="M147.724 207.539L43.7294 206.462L44.6617 116.434L96.6314 71.3366L148.656 117.511L147.724 207.539Z" fill="url(#paint1_linear)" fill-opacity="0.56"/>
<path fill-rule="evenodd" clip-rule="evenodd" d="M1397.14 243H1272.21L1269 240.599L1325.47 165.21L1395.3 157.873L1408.71 227.557L1397.14 243Z" fill="url(#paint2_linear)" fill-opacity="0.56"/>
<path fill-rule="evenodd" clip-rule="evenodd" d="M2837.99 241.21H2724L2743.28 198.52L2805.45 186L2837.99 241.21Z" fill="url(#paint3_linear)" fill-opacity="0.56"/>
<path fill-rule="evenodd" clip-rule="evenodd" d="M2673.57 242.8H2560L2579.1 200.52L2641.26 188L2673.57 242.8Z" fill="url(#paint4_linear)" fill-opacity="0.56"/>
<path d="M2581.12 37.9999L2685.12 39.06L2684.37 112.056L2632.5 148.529L2580.38 110.996L2581.12 37.9999Z" fill="url(#paint5_linear)" fill-opacity="0.56"/>
<path d="M769.496 156.501L706.622 239.343L648.473 195.211L650.135 131.819L711.347 112.368L769.496 156.501Z" fill="url(#paint6_linear)" fill-opacity="0.56"/>
<path fill-rule="evenodd" clip-rule="evenodd" d="M2591.78 241.519H2393.15L2392 240.135L2411.52 138.857L2515.85 137L2598.34 236.055L2591.78 241.519Z" fill="url(#paint7_linear)" fill-opacity="0.56"/>
<path fill-rule="evenodd" clip-rule="evenodd" d="M993.189 242.24H798.39L790 229.881L819.339 131L923.349 139.359L993.189 242.24Z" fill="url(#paint8_linear)" fill-opacity="0.56"/>
<path fill-rule="evenodd" clip-rule="evenodd" d="M558.135 242H381.305L430.969 169.678L533.746 161L558.135 242Z" fill="url(#paint9_linear)" fill-opacity="0.56"/>
<path fill-rule="evenodd" clip-rule="evenodd" d="M1478.79 3.99982L1488.54 44.5297L1426.22 126.716L1331.84 82.221L1313.02 3.99982H1478.79Z" fill="url(#paint10_linear)" fill-opacity="0.56"/>
<path fill-rule="evenodd" clip-rule="evenodd" d="M2473.55 3.99982L2475.15 4.77363L2419.19 120.896L2318.93 145.104L2274 50.928L2296.61 3.99982H2473.55Z" fill="url(#paint11_linear)" fill-opacity="0.56"/>
<path fill-rule="evenodd" clip-rule="evenodd" d="M411.88 242H285.619L285 241.558L327.386 182.124L390.799 181.903L411.88 242Z" fill="url(#paint12_linear)" fill-opacity="0.56"/>
<path fill-rule="evenodd" clip-rule="evenodd" d="M3093.28 242H2972.83L2968 238.558L3010.39 179.124L3073.8 178.903L3095.06 239.51L3093.28 242Z" fill="url(#paint13_linear)" fill-opacity="0.56"/>
<path fill-rule="evenodd" clip-rule="evenodd" d="M3230.34 3.99982L3194.51 86.8821L3117.89 107.306L3079.17 37.0159L3093.44 3.99982H3230.34Z" fill="url(#paint14_linear)" fill-opacity="0.56"/>
<path fill-rule="evenodd" clip-rule="evenodd" d="M3422.47 3.99982L3425.67 8.11845L3368.03 52.9126L3307.21 34.952L3305.77 3.99982H3422.47Z" fill="url(#paint15_linear)" fill-opacity="0.56"/>
<path fill-rule="evenodd" clip-rule="evenodd" d="M8.87812 3.97647L108.507 3.81555L108.571 43.2304L86.2351 74.6564L22.8226 74.9804L1.46452 14.4074L8.87812 3.97647Z" fill="url(#paint16_linear)" fill-opacity="0.56"/>
<path d="M214.653 40.9998L310.113 82.2714L281.143 149.277L219.189 162.802L185.683 108.005L214.653 40.9998Z" fill="url(#paint17_linear)" fill-opacity="0.56"/>
<path d="M697.179 168.818L612.506 108.433L654.892 48.9985L718.305 48.7769L739.566 109.384L697.179 168.818Z" fill="url(#paint18_linear)" fill-opacity="0.56"/>
<path fill-rule="evenodd" clip-rule="evenodd" d="M1248.62 3.99982L1190.67 83.6211L1131.65 40.6624L1131.87 3.99982H1248.62Z" fill="url(#paint19_linear)" fill-opacity="0.56"/>
<path fill-rule="evenodd" clip-rule="evenodd" d="M3283.49 242H3164.6L3158.93 231.763L3186.05 174.441L3249.9 181.365L3283.49 242Z" fill="url(#paint20_linear)" fill-opacity="0.56"/>
<path fill-rule="evenodd" clip-rule="evenodd" d="M2102.29 242H2045.21L2084.12 228.774L2102.29 242Z" fill="url(#paint21_linear)" fill-opacity="0.56"/>
<path d="M1219.14 130.732L1157.94 214.818L1098.92 171.859L1099.31 108.447L1160.12 87.7735L1219.14 130.732Z" fill="url(#paint22_linear)" fill-opacity="0.56"/>
<path fill-rule="evenodd" clip-rule="evenodd" d="M1040.24 242H941.309L918 220.005L968.099 166.911L1030.95 175.344L1043.74 238.286L1040.24 242Z" fill="url(#paint23_linear)" fill-opacity="0.56"/>
<path fill-rule="evenodd" clip-rule="evenodd" d="M873.823 3.99982L850.874 57.0807L788.92 70.6051L755.414 15.809L760.52 3.99982H873.823Z" fill="url(#paint24_linear)" fill-opacity="0.56"/>
<path fill-rule="evenodd" clip-rule="evenodd" d="M1922.92 2.99982L1922.13 13.572L1867.35 55.2183L1818.42 5.77979L1818.63 2.99982H1922.92Z" fill="url(#paint25_linear)" fill-opacity="0.56"/>
<path d="M2155.32 104.432L2085.23 181.265L2018.71 120.587L2019.71 51.7858L2088.8 43.7544L2155.32 104.432Z" fill="url(#paint26_linear)" fill-opacity="0.56"/>
<path fill-rule="evenodd" clip-rule="evenodd" d="M1447.73 242H1327.62L1321.33 237.287L1375.3 165.226L1443.88 159.575L1458.54 227.572L1447.73 242Z" fill="url(#paint27_linear)" fill-opacity="0.56"/>
<path d="M104.993 242.458L0.998554 241.382L1.97381 147.196L53.9654 99.9921L105.968 148.273L104.993 242.458Z" fill="url(#paint28_linear)" fill-opacity="0.56"/>
<path d="M2061.95 125.308L1991.86 202.141L1922.27 138.662L1921.71 68.4404L1992.36 61.829L2061.95 125.308Z" fill="url(#paint29_linear)" fill-opacity="0.56"/>
<path d="M2662.44 88.9009L2763.47 64.2367L2780.79 135.154L2739.53 183.312L2679.75 159.818L2662.44 88.9009Z" fill="url(#paint30_linear)" fill-opacity="0.56"/>
<path d="M3158 55.4765L3259.08 30.9998L3276.26 101.949L3234.91 150.031L3175.18 126.426L3158 55.4765Z" fill="url(#paint31_linear)" fill-opacity="0.56"/>
<path d="M2920.99 137.071L2817 135.994L2817.76 62.9979L2869.64 26.5331L2921.75 64.0747L2920.99 137.071Z" fill="url(#paint32_linear)" fill-opacity="0.56"/>
<path fill-rule="evenodd" clip-rule="evenodd" d="M2273.17 243H2169.17L2169.76 185.998L2221.64 149.533L2273.75 187.075L2273.17 243Z" fill="url(#paint33_linear)" fill-opacity="0.56"/>
<path fill-rule="evenodd" clip-rule="evenodd" d="M890 98.9939L993.994 100.071L994.75 27.0746L964.107 4.99982H920.631L890.756 25.9978L890 98.9939Z" fill="url(#paint34_linear)" fill-opacity="0.56"/>
<path fill-rule="evenodd" clip-rule="evenodd" d="M2310 3.99982V74.9998L2258.5 112L2206 74.9998V3.99982H2310Z" fill="url(#paint35_linear)" fill-opacity="0.56"/>
<path fill-rule="evenodd" clip-rule="evenodd" d="M1071 3.99982V38.9998L1019.5 75.9998L967 38.9998V3.99982H1071Z" fill="url(#paint36_linear)" fill-opacity="0.56"/>
<path fill-rule="evenodd" clip-rule="evenodd" d="M1608.41 241H1504.4L1504.76 206.998L1556.64 170.533L1608.75 208.075L1608.41 241Z" fill="url(#paint37_linear)" fill-opacity="0.56"/>
<path d="M1696.99 134.071L1593 132.994L1593.76 59.9979L1645.64 23.5331L1697.75 61.0747L1696.99 134.071Z" fill="url(#paint38_linear)" fill-opacity="0.56"/>
<path d="M472.724 111.874L368.729 110.797L369.485 37.8012L421.365 1.33645L473.48 38.8781L472.724 111.874Z" fill="url(#paint39_linear)" fill-opacity="0.56"/>
<path fill-rule="evenodd" clip-rule="evenodd" d="M549.729 3.99982V52.8033L498.229 89.8033L445.729 52.8033V3.99982H549.729Z" fill="url(#paint40_linear)" fill-opacity="0.56"/>
<path fill-rule="evenodd" clip-rule="evenodd" d="M1774 3.99982V74.9998L1722.5 112L1670 74.9998V3.99982H1774Z" fill="url(#paint41_linear)" fill-opacity="0.56"/>
<path fill-rule="evenodd" clip-rule="evenodd" d="M3499.12 53.9999L3499.13 218.365L3442.73 229.65L3363.01 164.209L3411.11 71.611L3499.12 53.9999Z" fill="url(#paint42_linear)" fill-opacity="0.56"/>
<path d="M2894 3.99982H2998V76.9998L2946.5 114L2894 76.9998V3.99982Z" fill="url(#paint43_linear)" fill-opacity="0.56"/>
<path fill-rule="evenodd" clip-rule="evenodd" d="M1871.76 241H1668.04L1697.38 179.199L1826.42 147.09L1871.76 241Z" fill="url(#paint44_linear)" fill-opacity="0.56"/>
<defs>
<linearGradient id="paint0_linear" x1="179.296" y1="-55.6087" x2="188.73" y2="53.6032" gradientUnits="userSpaceOnUse">
<stop stop-color="#798DC5"/>
<stop offset="1" stop-color="#798DC5" stop-opacity="0"/>
</linearGradient>
<linearGradient id="paint1_linear" x1="147.896" y1="190.89" x2="78.2075" y2="83.6379" gradientUnits="userSpaceOnUse">
<stop stop-color="#798DC5"/>
<stop offset="1" stop-color="#798DC5" stop-opacity="0"/>
</linearGradient>
<linearGradient id="paint2_linear" x1="1362.68" y1="289.004" x2="1367.34" y2="157.171" gradientUnits="userSpaceOnUse">
<stop stop-color="#798DC5"/>
<stop offset="1" stop-color="#798DC5" stop-opacity="0"/>
</linearGradient>
<linearGradient id="paint3_linear" x1="2813.57" y1="295.556" x2="2805.9" y2="186.206" gradientUnits="userSpaceOnUse">
<stop stop-color="#798DC5"/>
<stop offset="1" stop-color="#798DC5" stop-opacity="0"/>
</linearGradient>
<linearGradient id="paint4_linear" x1="2649.39" y1="297.556" x2="2641.72" y2="188.206" gradientUnits="userSpaceOnUse">
<stop stop-color="#798DC5"/>
<stop offset="1" stop-color="#798DC5" stop-opacity="0"/>
</linearGradient>
<linearGradient id="paint5_linear" x1="2580.98" y1="51.4992" x2="2632" y2="148.524" gradientUnits="userSpaceOnUse">
<stop stop-color="#798DC5"/>
<stop offset="1" stop-color="#798DC5" stop-opacity="0"/>
</linearGradient>
<linearGradient id="paint6_linear" x1="758.742" y1="148.339" x2="650.437" y2="131.421" gradientUnits="userSpaceOnUse">
<stop stop-color="#798DC5"/>
<stop offset="1" stop-color="#798DC5" stop-opacity="0"/>
</linearGradient>
<linearGradient id="paint7_linear" x1="2583.08" y1="217.736" x2="2405.56" y2="157.767" gradientUnits="userSpaceOnUse">
<stop stop-color="#798DC5"/>
<stop offset="1" stop-color="#798DC5" stop-opacity="0"/>
</linearGradient>
<linearGradient id="paint8_linear" x1="982.358" y1="226.286" x2="811.557" y2="149.236" gradientUnits="userSpaceOnUse">
<stop stop-color="#798DC5"/>
<stop offset="1" stop-color="#798DC5" stop-opacity="0"/>
</linearGradient>
<linearGradient id="paint9_linear" x1="504.356" y1="347.524" x2="513.929" y2="160.392" gradientUnits="userSpaceOnUse">
<stop stop-color="#798DC5"/>
<stop offset="1" stop-color="#798DC5" stop-opacity="0"/>
</linearGradient>
<linearGradient id="paint10_linear" x1="1307.27" y1="-19.9294" x2="1439.93" y2="112.395" gradientUnits="userSpaceOnUse">
<stop stop-color="#798DC5"/>
<stop offset="1" stop-color="#798DC5" stop-opacity="0"/>
</linearGradient>
<linearGradient id="paint11_linear" x1="2319.61" y1="-43.7193" x2="2338.61" y2="142.691" gradientUnits="userSpaceOnUse">
<stop stop-color="#798DC5"/>
<stop offset="1" stop-color="#798DC5" stop-opacity="0"/>
</linearGradient>
<linearGradient id="paint12_linear" x1="377.512" y1="290.953" x2="391.206" y2="182.193" gradientUnits="userSpaceOnUse">
<stop stop-color="#798DC5"/>
<stop offset="1" stop-color="#798DC5" stop-opacity="0"/>
</linearGradient>
<linearGradient id="paint13_linear" x1="3060.51" y1="287.953" x2="3074.21" y2="179.193" gradientUnits="userSpaceOnUse">
<stop stop-color="#798DC5"/>
<stop offset="1" stop-color="#798DC5" stop-opacity="0"/>
</linearGradient>
<linearGradient id="paint14_linear" x1="3110.54" y1="-35.5383" x2="3128.53" y2="105.638" gradientUnits="userSpaceOnUse">
<stop stop-color="#798DC5"/>
<stop offset="1" stop-color="#798DC5" stop-opacity="0"/>
</linearGradient>
<linearGradient id="paint15_linear" x1="3351.2" y1="-65.7163" x2="3306.91" y2="34.5572" gradientUnits="userSpaceOnUse">
<stop stop-color="#798DC5"/>
<stop offset="1" stop-color="#798DC5" stop-opacity="0"/>
</linearGradient>
<linearGradient id="paint16_linear" x1="35.9339" y1="-34.0911" x2="22.4151" y2="74.6907" gradientUnits="userSpaceOnUse">
<stop stop-color="#798DC5"/>
<stop offset="1" stop-color="#798DC5" stop-opacity="0"/>
</linearGradient>
<linearGradient id="paint17_linear" x1="209.295" y1="53.3912" x2="218.73" y2="162.603" gradientUnits="userSpaceOnUse">
<stop stop-color="#798DC5"/>
<stop offset="1" stop-color="#798DC5" stop-opacity="0"/>
</linearGradient>
<linearGradient id="paint18_linear" x1="705.018" y1="157.827" x2="718.712" y2="49.0673" gradientUnits="userSpaceOnUse">
<stop stop-color="#798DC5"/>
<stop offset="1" stop-color="#798DC5" stop-opacity="0"/>
</linearGradient>
<linearGradient id="paint19_linear" x1="1240.95" y1="-8.4089" x2="1132.33" y2="-23.154" gradientUnits="userSpaceOnUse">
<stop stop-color="#798DC5"/>
<stop offset="1" stop-color="#798DC5" stop-opacity="0"/>
</linearGradient>
<linearGradient id="paint20_linear" x1="3278.74" y1="233.412" x2="3186.49" y2="174.199" gradientUnits="userSpaceOnUse">
<stop stop-color="#798DC5"/>
<stop offset="1" stop-color="#798DC5" stop-opacity="0"/>
</linearGradient>
<linearGradient id="paint21_linear" x1="2132.22" y1="263.788" x2="2023.6" y2="249.043" gradientUnits="userSpaceOnUse">
<stop stop-color="#798DC5"/>
<stop offset="1" stop-color="#798DC5" stop-opacity="0"/>
</linearGradient>
<linearGradient id="paint22_linear" x1="1208.22" y1="122.788" x2="1099.6" y2="108.043" gradientUnits="userSpaceOnUse">
<stop stop-color="#798DC5"/>
<stop offset="1" stop-color="#798DC5" stop-opacity="0"/>
</linearGradient>
<linearGradient id="paint23_linear" x1="1002.91" y1="281.561" x2="1031.31" y2="175.687" gradientUnits="userSpaceOnUse">
<stop stop-color="#798DC5"/>
<stop offset="1" stop-color="#798DC5" stop-opacity="0"/>
</linearGradient>
<linearGradient id="paint24_linear" x1="779.026" y1="-38.8053" x2="788.461" y2="70.4066" gradientUnits="userSpaceOnUse">
<stop stop-color="#798DC5"/>
<stop offset="1" stop-color="#798DC5" stop-opacity="0"/>
</linearGradient>
<linearGradient id="paint25_linear" x1="1823.92" y1="-67.397" x2="1886.53" y2="44.1328" gradientUnits="userSpaceOnUse">
<stop stop-color="#798DC5"/>
<stop offset="1" stop-color="#798DC5" stop-opacity="0"/>
</linearGradient>
<linearGradient id="paint26_linear" x1="2143.02" y1="93.2109" x2="2016.61" y2="73.7207" gradientUnits="userSpaceOnUse">
<stop stop-color="#798DC5"/>
<stop offset="1" stop-color="#798DC5" stop-opacity="0"/>
</linearGradient>
<linearGradient id="paint27_linear" x1="1414.55" y1="286.307" x2="1421.74" y2="158.605" gradientUnits="userSpaceOnUse">
<stop stop-color="#798DC5"/>
<stop offset="1" stop-color="#798DC5" stop-opacity="0"/>
</linearGradient>
<linearGradient id="paint28_linear" x1="105.173" y1="225.041" x2="30.9943" y2="115.958" gradientUnits="userSpaceOnUse">
<stop stop-color="#798DC5"/>
<stop offset="1" stop-color="#798DC5" stop-opacity="0"/>
</linearGradient>
<linearGradient id="paint29_linear" x1="2049.08" y1="113.569" x2="1918.31" y2="96.2079" gradientUnits="userSpaceOnUse">
<stop stop-color="#798DC5"/>
<stop offset="1" stop-color="#798DC5" stop-opacity="0"/>
</linearGradient>
<linearGradient id="paint30_linear" x1="2665.64" y1="102.016" x2="2739.04" y2="183.431" gradientUnits="userSpaceOnUse">
<stop stop-color="#798DC5"/>
<stop offset="1" stop-color="#798DC5" stop-opacity="0"/>
</linearGradient>
<linearGradient id="paint31_linear" x1="3161.18" y1="68.5973" x2="3234.43" y2="150.148" gradientUnits="userSpaceOnUse">
<stop stop-color="#798DC5"/>
<stop offset="1" stop-color="#798DC5" stop-opacity="0"/>
</linearGradient>
<linearGradient id="paint32_linear" x1="2921.13" y1="123.572" x2="2870.14" y2="26.5383" gradientUnits="userSpaceOnUse">
<stop stop-color="#798DC5"/>
<stop offset="1" stop-color="#798DC5" stop-opacity="0"/>
</linearGradient>
<linearGradient id="paint33_linear" x1="2273.13" y1="246.571" x2="2222.14" y2="149.538" gradientUnits="userSpaceOnUse">
<stop stop-color="#798DC5"/>
<stop offset="1" stop-color="#798DC5" stop-opacity="0"/>
</linearGradient>
<linearGradient id="paint34_linear" x1="994.134" y1="86.5714" x2="943.136" y2="-10.4618" gradientUnits="userSpaceOnUse">
<stop stop-color="#798DC5"/>
<stop offset="1" stop-color="#798DC5" stop-opacity="0"/>
</linearGradient>
<linearGradient id="paint35_linear" x1="2206" y1="15.4998" x2="2258" y2="112" gradientUnits="userSpaceOnUse">
<stop stop-color="#798DC5"/>
<stop offset="1" stop-color="#798DC5" stop-opacity="0"/>
</linearGradient>
<linearGradient id="paint36_linear" x1="967" y1="-20.5002" x2="1019" y2="75.9998" gradientUnits="userSpaceOnUse">
<stop stop-color="#798DC5"/>
<stop offset="1" stop-color="#798DC5" stop-opacity="0"/>
</linearGradient>
<linearGradient id="paint37_linear" x1="1608.13" y1="267.572" x2="1557.14" y2="170.538" gradientUnits="userSpaceOnUse">
<stop stop-color="#798DC5"/>
<stop offset="1" stop-color="#798DC5" stop-opacity="0"/>
</linearGradient>
<linearGradient id="paint38_linear" x1="1697.13" y1="120.572" x2="1646.14" y2="23.5383" gradientUnits="userSpaceOnUse">
<stop stop-color="#798DC5"/>
<stop offset="1" stop-color="#798DC5" stop-opacity="0"/>
</linearGradient>
<linearGradient id="paint39_linear" x1="472.863" y1="98.3749" x2="421.865" y2="1.34162" gradientUnits="userSpaceOnUse">
<stop stop-color="#798DC5"/>
<stop offset="1" stop-color="#798DC5" stop-opacity="0"/>
</linearGradient>
<linearGradient id="paint40_linear" x1="445.729" y1="-6.69672" x2="497.729" y2="89.8033" gradientUnits="userSpaceOnUse">
<stop stop-color="#798DC5"/>
<stop offset="1" stop-color="#798DC5" stop-opacity="0"/>
</linearGradient>
<linearGradient id="paint41_linear" x1="1670" y1="15.4998" x2="1722" y2="112" gradientUnits="userSpaceOnUse">
<stop stop-color="#798DC5"/>
<stop offset="1" stop-color="#798DC5" stop-opacity="0"/>
</linearGradient>
<linearGradient id="paint42_linear" x1="3514.13" y1="50.9966" x2="3376.79" y2="178.463" gradientUnits="userSpaceOnUse">
<stop stop-color="#798DC5"/>
<stop offset="1" stop-color="#798DC5" stop-opacity="0"/>
</linearGradient>
<linearGradient id="paint43_linear" x1="2894" y1="17.4998" x2="2946" y2="114" gradientUnits="userSpaceOnUse">
<stop stop-color="#798DC5"/>
<stop offset="1" stop-color="#798DC5" stop-opacity="0"/>
</linearGradient>
<linearGradient id="paint44_linear" x1="1846.73" y1="353.682" x2="1820.57" y2="113.339" gradientUnits="userSpaceOnUse">
<stop stop-color="#798DC5"/>
<stop offset="1" stop-color="#798DC5" stop-opacity="0"/>
</linearGradient>
</defs>
</svg>
