<svg width="164" height="122" viewBox="0 0 164 122" fill="none" xmlns="http://www.w3.org/2000/svg">
<g clip-path="url(#clip0)">
<path opacity="0.18" d="M59.4431 8.90092C55.1334 12.9204 51.9391 18.0872 47.3596 21.7842C39.6162 28.0472 29.1065 29.2924 20.0002 33.2793C13.9767 35.9168 8.26551 40.0955 5.60056 46.1401C3.44872 51.0394 3.72049 56.8145 5.95751 61.6547C7.02634 63.9753 7.50128 66.5281 7.33903 69.0807C7.17679 71.6333 6.38253 74.1045 5.02863 76.269C1.71265 81.5563 -0.287077 87.5968 0.0353943 93.8006C0.534312 103.342 7.73212 112.755 17.1852 113.633C20.4302 113.935 23.6914 113.271 26.9039 112.679C46.307 109.107 66.8437 108.188 85.2997 115.184C90.3578 117.103 95.2273 119.604 100.486 120.865C106.629 122.339 113.034 122.06 119.348 121.772C129.2 121.323 140.696 119.935 145.728 111.393C152.702 99.5532 141.592 84.7715 143.172 71.1023C144.046 63.5491 148.778 56.9064 149.776 49.3757C150.859 41.1897 147.003 32.5362 140.209 27.9063C130.774 21.478 117.727 23.0376 107.986 17.0869C100.279 12.3774 94.9819 3.1748 85.8959 0.670004C76.9844 -1.78375 65.9291 2.85838 59.4431 8.90092Z" fill="#9AA5FB"/>
<path opacity="0.11" d="M18.4395 91.13C17.4863 84.5424 15.2128 78.1998 14.292 71.6061C13.3712 65.0124 14.0121 57.7613 18.2083 52.6211C20.9463 49.2671 24.8808 47.1746 28.7282 45.2129C32.1496 43.4675 35.6724 41.7282 39.4772 41.2546C42.8317 40.8463 46.2167 41.4281 49.5712 41.8323C55.8827 42.5917 62.3098 42.6917 68.5747 41.6098C76.7541 40.1808 84.4873 36.9146 92.4822 34.7037C100.313 32.5276 108.064 31.4191 116.82 35.5203C122.872 38.3578 127.337 44.282 128.786 50.8308C131.126 61.4113 125.841 73.1371 130.284 83.0093C131.538 85.7897 133.485 88.1863 135.075 90.787C137.029 93.9935 138.44 97.5051 139.249 101.178C139.526 102.441 139.731 103.774 139.376 105.018C138.464 108.202 134.554 109.262 131.264 109.523C120.326 110.393 109.399 108.339 98.4895 107.145C80.7799 105.209 62.9101 105.55 45.1701 106.883C40.8286 107.21 36.4898 107.591 32.1537 108.027C28.6551 108.372 22.0131 110.476 18.7153 109.474C15.0383 108.353 17.4518 105.926 18.2306 102.441C19.0642 98.7423 18.979 94.8535 18.4395 91.13Z" fill="#9AA5FB"/>
<path d="M77.8801 28.0039C77.8801 28.0039 76.2028 34.8671 73.6961 36.7819C71.1082 38.758 68.4229 34.961 68.4229 34.961L66.9282 37.6801C66.9282 37.6801 69.6926 42.1712 72.4792 42.2753C75.2658 42.3794 77.7117 39.8685 77.7117 39.8685L77.8801 28.0039Z" fill="#9AA5FB"/>
<path d="M63.5552 23.2903L63.9344 23.1208L71.6656 25.099L73.9878 40.8585H73.6978L63.5552 23.2903Z" fill="#3F3D56"/>
<path opacity="0.05" d="M26.9842 108.327C26.9842 108.327 10.1203 109.464 7.69469 111.091C5.26906 112.718 24.2644 113.075 54.5747 112.158C84.885 111.242 108.223 112.158 124.748 113.836C141.273 115.514 163.688 115.19 163.998 111.081C164.308 106.971 123.081 106.922 123.081 106.922L26.9842 108.327Z" fill="#000405"/>
<path d="M131.828 75.6154C131.828 75.6154 131.262 80.3555 127.624 80.821H111.642L109.369 54.5053H126.202C127.561 54.5053 130.346 55.9792 130.901 58.0655C130.976 58.4517 131.025 58.8425 131.049 59.2352C131.422 63.2833 131.828 75.6154 131.828 75.6154Z" fill="#9AA5FB"/>
<path d="M153.565 25.4889H138.151L133.576 20.9672L133.373 20.7631H148.726C150.085 20.7631 152.869 22.237 153.425 24.3233C153.496 24.7085 153.543 25.0978 153.565 25.4889Z" fill="url(#paint0_linear)"/>
<path d="M29.0467 56.9549L27.5418 56.2956C27.346 56.2098 27.1855 56.0588 27.0873 55.8679C26.9892 55.677 26.9594 55.4579 27.0029 55.2474C27.0465 55.037 27.1608 54.8481 27.3266 54.7125C27.4923 54.577 27.6994 54.5031 27.913 54.5032H109.368C110.375 54.4937 111.37 54.7127 112.28 55.1439C113.191 55.5751 113.993 56.2074 114.627 56.9937C115.156 57.6392 115.506 58.4139 115.641 59.2393C116.009 61.7032 115.783 72.4349 115.682 76.4646C115.627 78.653 114.025 80.5474 111.867 80.8087L111.636 80.8311H32.7419L29.0467 56.9549Z" fill="#9AA5FB"/>
<path d="M29.0467 56.9549L27.5418 56.2956C27.346 56.2098 27.1855 56.0588 27.0873 55.8679C26.9892 55.677 26.9594 55.4579 27.0029 55.2474C27.0465 55.037 27.1608 54.8481 27.3266 54.7125C27.4923 54.577 27.6994 54.5031 27.913 54.5032H109.368C110.375 54.4937 111.37 54.7127 112.28 55.1439C113.191 55.5751 113.993 56.2074 114.627 56.9937C115.156 57.6392 115.506 58.4139 115.641 59.2393C116.009 61.7032 115.783 72.4349 115.682 76.4646C115.627 78.653 114.025 80.5474 111.867 80.8087L111.636 80.8311H32.7419L29.0467 56.9549Z" fill="#9AA5FB"/>
<path d="M115.688 76.4544C115.633 78.6427 114.031 80.5372 111.873 80.7985L111.642 80.8209H32.748L29.0467 56.9549L27.5418 56.2956C27.346 56.2098 27.1855 56.0588 27.0873 55.8679C26.9892 55.677 26.9594 55.4579 27.0029 55.2474C27.0465 55.037 27.1608 54.8481 27.3266 54.7125C27.4923 54.577 27.6994 54.5031 27.913 54.5032H109.368C110.375 54.4937 111.37 54.7127 112.28 55.1439C113.191 55.5751 113.993 56.2074 114.627 56.9937C115.156 57.6392 115.506 58.4139 115.641 59.2393C116.008 61.693 115.789 72.4246 115.688 76.4544Z" fill="url(#paint1_linear)"/>
<path opacity="0.61" d="M24.9619 80.8393H111.928C112.229 80.8393 112.517 80.7192 112.73 80.5052C112.943 80.2913 113.063 80.001 113.064 79.6982C113.064 79.5481 113.034 79.3994 112.977 79.2607C112.92 79.122 112.836 78.996 112.731 78.8898C112.625 78.7837 112.5 78.6995 112.362 78.642C112.225 78.5846 112.077 78.555 111.928 78.555H24.9619C24.6607 78.555 24.3718 78.6754 24.1588 78.8898C23.9458 79.1042 23.8262 79.395 23.8262 79.6982C23.8267 80.001 23.9466 80.2913 24.1595 80.5052C24.3725 80.7192 24.6611 80.8393 24.9619 80.8393Z" fill="url(#paint2_linear)"/>
<path d="M24.9619 80.8393H111.928C112.229 80.8393 112.517 80.7192 112.73 80.5052C112.943 80.2913 113.063 80.001 113.064 79.6982C113.064 79.5481 113.034 79.3994 112.977 79.2607C112.92 79.122 112.836 78.996 112.731 78.8898C112.625 78.7837 112.5 78.6995 112.362 78.642C112.225 78.5846 112.077 78.555 111.928 78.555H24.9619C24.6607 78.555 24.3718 78.6754 24.1588 78.8898C23.9458 79.1042 23.8262 79.395 23.8262 79.6982C23.8267 80.001 23.9466 80.2913 24.1595 80.5052C24.3725 80.7192 24.6611 80.8393 24.9619 80.8393Z" fill="#9AA5FB"/>
<path d="M129.774 88.3292V102.609C129.774 104.472 129.039 106.258 127.731 107.576C126.422 108.893 124.648 109.634 122.797 109.635H31.0427C30.1276 109.637 29.2212 109.456 28.3752 109.105C27.5292 108.754 26.7602 108.238 26.1122 107.588C25.4642 106.938 24.9497 106.165 24.5983 105.315C24.2469 104.464 24.0653 103.552 24.064 102.631V88.3292C24.0623 87.0313 24.4205 85.7588 25.0983 84.6547C25.2463 84.4099 25.4103 84.1754 25.5891 83.9525C26.2418 83.1271 27.0713 82.4606 28.0156 82.0029C28.9599 81.5452 29.9946 81.3079 31.0427 81.3088H122.795C124.646 81.3099 126.42 82.0503 127.728 83.3674C129.037 84.6846 129.773 86.4706 129.774 88.3333V88.3292Z" fill="#9AA5FB"/>
<path d="M94.044 109.635H31.0424C29.7055 109.637 28.3963 109.251 27.2705 108.525C26.1448 107.799 25.2499 106.763 24.6924 105.54H90.0364C90.0364 105.54 90.9775 109.011 94.044 109.635Z" fill="url(#paint3_linear)"/>
<path d="M94.0441 81.3007C91.148 81.7824 90.3387 84.6465 90.3387 84.6465H25.0981L25.5889 83.9443C26.2417 83.1189 27.0711 82.4525 28.0154 81.9947C28.9597 81.537 29.9945 81.2997 31.0426 81.3007H94.0441Z" fill="url(#paint4_linear)"/>
<path d="M129.774 88.3292V102.609C129.775 103.866 129.44 105.1 128.806 106.182C128.171 107.264 127.259 108.155 126.166 108.762H97.3501C96.7748 108.762 96.2051 108.648 95.6735 108.427C95.1419 108.205 94.6588 107.881 94.2518 107.472C93.8448 107.062 93.5219 106.576 93.3015 106.041C93.0811 105.507 92.9676 104.933 92.9673 104.354V87.0268C92.967 86.4474 93.0802 85.8736 93.3004 85.3383C93.5205 84.803 93.8433 84.3165 94.2504 83.9068C94.6574 83.4971 95.1407 83.1722 95.6725 82.9506C96.2044 82.729 96.7744 82.6151 97.3501 82.6154H126.859C127.762 83.2656 128.497 84.1232 129.004 85.117C129.511 86.1108 129.775 87.2121 129.774 88.3292Z" fill="url(#paint5_linear)"/>
<path d="M129.773 88.3292V102.609C129.773 102.872 129.759 103.135 129.731 103.397C129.719 103.511 129.702 103.623 129.684 103.736C129.609 104.225 129.48 104.704 129.299 105.165C129.256 105.281 129.21 105.393 129.157 105.506C128.93 106.014 128.644 106.494 128.305 106.935C128.216 107.049 128.122 107.163 128.023 107.273C127.494 107.877 126.865 108.384 126.165 108.774H101.489C100.866 108.775 100.25 108.642 99.6817 108.383C99.1139 108.124 98.6078 107.746 98.1975 107.273C98.1021 107.165 98.0128 107.052 97.9298 106.935C97.62 106.504 97.3923 106.02 97.2585 105.506C97.2281 105.395 97.2037 105.281 97.1834 105.165C97.1331 104.899 97.1079 104.629 97.1084 104.358V87.0268C97.1084 86.718 97.141 86.4101 97.2058 86.1082C97.2263 85.9936 97.2541 85.8804 97.2889 85.7693C97.4394 85.252 97.6842 84.7674 98.0109 84.3404C98.1001 84.2223 98.1956 84.1092 98.2969 84.0015C98.7054 83.5611 99.1997 83.2102 99.7489 82.9707C100.298 82.7312 100.891 82.6081 101.489 82.6093H126.859C127.402 83.0012 127.887 83.4701 128.297 84.0015C128.382 84.1117 128.465 84.224 128.544 84.3404C128.85 84.7849 129.102 85.2646 129.295 85.7693C129.339 85.8816 129.382 85.9959 129.416 86.1082C129.573 86.5714 129.678 87.0507 129.729 87.5372C129.743 87.6495 129.753 87.7638 129.759 87.8781C129.765 87.9924 129.773 88.1884 129.773 88.3292Z" fill="#9AA5FB"/>
<path d="M129.773 88.3292V102.609C129.773 102.872 129.759 103.135 129.731 103.397C129.719 103.511 129.702 103.623 129.684 103.736C129.609 104.225 129.48 104.704 129.299 105.165C129.256 105.281 129.21 105.393 129.157 105.506C128.93 106.014 128.644 106.494 128.305 106.935C128.216 107.049 128.122 107.163 128.023 107.273C127.494 107.877 126.865 108.384 126.165 108.774H101.489C100.866 108.775 100.25 108.642 99.6817 108.383C99.1139 108.124 98.6078 107.746 98.1975 107.273C98.1021 107.165 98.0128 107.052 97.9298 106.935C97.62 106.504 97.3923 106.02 97.2585 105.506C97.2281 105.395 97.2037 105.281 97.1834 105.165C97.1331 104.899 97.1079 104.629 97.1084 104.358V87.0268C97.1084 86.718 97.141 86.4101 97.2058 86.1082C97.2263 85.9936 97.2541 85.8804 97.2889 85.7693C97.4394 85.252 97.6842 84.7674 98.0109 84.3404C98.1001 84.2223 98.1956 84.1092 98.2969 84.0015C98.7054 83.5611 99.1997 83.2102 99.7489 82.9707C100.298 82.7312 100.891 82.6081 101.489 82.6093H126.859C127.402 83.0012 127.887 83.4701 128.297 84.0015C128.382 84.1117 128.465 84.224 128.544 84.3404C128.85 84.7849 129.102 85.2646 129.295 85.7693C129.339 85.8816 129.382 85.9959 129.416 86.1082C129.573 86.5714 129.678 87.0507 129.729 87.5372C129.743 87.6495 129.753 87.7638 129.759 87.8781C129.765 87.9924 129.773 88.1884 129.773 88.3292Z" fill="url(#paint6_linear)"/>
<path d="M128.545 84.3465H98.0112C98.1004 84.2284 98.1959 84.1153 98.2972 84.0076H128.295C128.38 84.1178 128.466 84.2301 128.545 84.3465Z" fill="white"/>
<path d="M129.417 86.1082H97.2061C97.2266 85.9935 97.2544 85.8803 97.2892 85.7693H129.295C129.34 85.8816 129.382 85.9959 129.417 86.1082Z" fill="white"/>
<path d="M129.759 87.8719H97.1064V87.531H129.729C129.743 87.6433 129.753 87.7576 129.759 87.8719Z" fill="white"/>
<path d="M129.775 89.2948H97.1084V89.6337H129.775V89.2948Z" fill="white"/>
<path d="M129.775 91.0565H97.1084V91.3954H129.775V91.0565Z" fill="white"/>
<path d="M129.775 92.8203H97.1084V93.1592H129.775V92.8203Z" fill="white"/>
<path d="M129.775 94.584H97.1084V94.9209H129.775V94.584Z" fill="white"/>
<path d="M129.775 96.3458H97.1084V96.6826H129.775V96.3458Z" fill="white"/>
<path d="M129.775 98.1096H97.1084V98.4464H129.775V98.1096Z" fill="white"/>
<path d="M129.775 99.8712H97.1084V100.208H129.775V99.8712Z" fill="white"/>
<path d="M129.775 101.635H97.1084V101.974H129.775V101.635Z" fill="white"/>
<path d="M129.731 103.397C129.719 103.511 129.702 103.623 129.684 103.736H97.1084V103.397H129.731Z" fill="white"/>
<path d="M129.309 105.159C129.266 105.275 129.22 105.387 129.167 105.499H97.2645C97.2341 105.389 97.2097 105.275 97.1895 105.159H129.309Z" fill="white"/>
<path d="M128.305 106.922C128.216 107.037 128.122 107.151 128.023 107.261H98.1974C98.102 107.153 98.0127 107.04 97.9297 106.922H128.305Z" fill="white"/>
<path d="M89.2903 78.0079H110.079C109.197 78.4506 108.224 78.6799 107.239 78.6775H29.9434C28.6663 78.6889 27.4169 78.3032 26.3657 77.5731C26.068 77.3665 25.7915 77.1306 25.5403 76.8688C25.4592 76.7851 25.3801 76.6973 25.305 76.6096C25.0221 76.2766 24.7809 75.9098 24.5871 75.5174C24.5445 75.4317 24.5039 75.3439 24.4674 75.2582C24.3169 74.9082 24.208 74.5416 24.1429 74.166C24.1287 74.0803 24.1145 73.9945 24.1044 73.9047C24.0801 73.7015 24.0679 73.497 24.0679 73.2923V62.3382C24.0659 62.2217 24.0699 62.1051 24.0801 61.9891C24.0922 61.8748 24.0943 61.8156 24.1044 61.7298C24.1497 61.3569 24.2375 60.9904 24.366 60.6377C24.3985 60.5499 24.4329 60.4642 24.4695 60.3764C24.634 59.9877 24.8466 59.6214 25.1022 59.2863L25.305 59.025C25.4548 58.849 25.6154 58.6827 25.7857 58.5269C26.9292 57.5007 28.4115 56.9403 29.9434 56.955H107.239C108.454 56.9532 109.643 57.3079 110.661 57.9757H89.2903C88.9649 57.9753 88.6406 58.0151 88.3249 58.0941C87.6764 58.2489 87.0811 58.576 86.601 59.0413C86.5153 59.1234 86.4347 59.2107 86.3596 59.3026C86.0879 59.6224 85.8812 59.9928 85.7512 60.3927C85.7226 60.4784 85.6989 60.5656 85.6802 60.654C85.6259 60.8848 85.5987 61.1211 85.5991 61.3583V74.6417C85.5997 74.8474 85.6208 75.0526 85.6619 75.2541C85.6786 75.3417 85.7002 75.4283 85.7268 75.5133C85.8417 75.9111 86.0333 76.2822 86.2907 76.6055C86.3613 76.6956 86.4365 76.7822 86.5158 76.8647C86.8639 77.2278 87.2831 77.5142 87.7469 77.7058C88.2357 77.9106 88.7608 78.0134 89.2903 78.0079Z" fill="#9AA5FB"/>
<path d="M113.117 62.4178V73.5005C113.119 73.5634 113.115 73.6263 113.105 73.6883C113.092 73.7496 113.105 73.8128 113.088 73.8741C113.076 73.9298 113.069 73.9865 113.066 74.0435C113.066 74.0986 113.052 74.1313 113.044 74.1742C113.042 74.1963 113.038 74.2182 113.032 74.2395C113.021 74.2987 113.009 74.3599 112.995 74.4191C112.981 74.4783 112.977 74.4967 112.965 74.5355C112.952 74.5743 112.946 74.611 112.934 74.6498C112.922 74.6886 112.912 74.7315 112.9 74.7723L112.857 74.8968C112.852 74.9319 112.841 74.9658 112.825 74.9968C112.812 75.0295 112.792 75.0846 112.774 75.1275L112.719 75.2602C112.71 75.2849 112.7 75.3088 112.687 75.3316C112.674 75.3659 112.659 75.3993 112.642 75.4317C112.63 75.4602 112.614 75.4888 112.6 75.5174C112.585 75.546 112.557 75.6052 112.533 75.646C112.508 75.6868 112.464 75.7787 112.425 75.8501L112.362 75.9522C112.305 76.0461 112.247 76.1359 112.184 76.2237C112.151 76.2707 112.119 76.3135 112.086 76.3564C112.021 76.4442 111.953 76.5279 111.884 76.6116C111.815 76.6953 111.729 76.7871 111.646 76.8708C111.48 77.0419 111.303 77.2021 111.117 77.3506C111.114 77.3563 111.109 77.3606 111.103 77.3628C111.042 77.4118 110.981 77.4567 110.918 77.5037L110.715 77.6445L110.513 77.7752C110.448 77.816 110.383 77.8528 110.31 77.8915L110.077 78.0161H89.2903C88.7605 78.0184 88.2357 77.9136 87.7469 77.7078C87.284 77.5165 86.865 77.2316 86.5158 76.8708C86.4365 76.7883 86.3614 76.7017 86.2907 76.6116C86.0335 76.2905 85.8419 75.9215 85.7269 75.5256C85.7 75.4412 85.6784 75.3553 85.662 75.2683C85.6208 75.0668 85.5998 74.8617 85.5991 74.6559V61.4236C85.5986 61.1878 85.6258 60.9528 85.6803 60.7234C85.6989 60.6357 85.7226 60.5491 85.7512 60.4642C85.8813 60.0661 86.0881 59.6977 86.3597 59.3802C86.4348 59.2882 86.5154 59.201 86.601 59.1189C87.0831 58.6571 87.6778 58.3317 88.3249 58.1757C88.641 58.0984 88.9651 58.0593 89.2903 58.0594H110.661C110.754 58.1206 110.847 58.1839 110.936 58.2513L111.04 58.3289C111.181 58.4345 111.316 58.5476 111.446 58.6677L111.557 58.7739L111.638 58.8555L111.748 58.9698L111.857 59.0923L111.88 59.1189L111.896 59.1393C111.961 59.2169 112.026 59.2985 112.086 59.3802C112.119 59.421 112.149 59.4639 112.18 59.5047C112.182 59.5113 112.186 59.517 112.192 59.521C112.247 59.6 112.3 59.6796 112.35 59.7599L112.437 59.9028C112.49 59.9926 112.541 60.0865 112.587 60.1784C112.61 60.2274 112.634 60.2723 112.656 60.3192C112.679 60.3662 112.701 60.4172 112.719 60.4642C112.737 60.5111 112.758 60.5499 112.774 60.5948C112.79 60.6397 112.808 60.6805 112.823 60.7234L112.867 60.852C112.929 61.0288 112.978 61.2095 113.015 61.393C113.022 61.4163 113.027 61.4402 113.029 61.4644C113.034 61.508 113.042 61.551 113.054 61.593C113.054 61.6359 113.076 61.738 113.086 61.8094C113.096 61.8809 113.107 61.9809 113.111 62.0687V62.2075C113.111 62.2626 113.117 62.3463 113.117 62.4178Z" fill="url(#paint7_linear)"/>
<path d="M87.7469 77.6976C87.2885 77.8099 86.816 77.912 86.3272 78.0079H31.217C29.5898 78.0215 27.965 77.8758 26.3657 77.5731C26.068 77.3665 25.7915 77.1306 25.5403 76.8688C25.4592 76.7851 25.3801 76.6973 25.305 76.6096C25.0221 76.2766 24.7809 75.9098 24.5871 75.5174C24.5445 75.4317 24.5039 75.3439 24.4674 75.2582C24.3169 74.9082 24.208 74.5417 24.1429 74.166C24.1287 74.0803 24.1145 73.9945 24.1044 73.9047C24.0801 73.7015 24.0679 73.497 24.0679 73.2923V62.3382C24.0659 62.2217 24.0699 62.1052 24.0801 61.9891C24.0922 61.8748 24.0943 61.8156 24.1044 61.7298C24.1497 61.3569 24.2375 60.9904 24.366 60.6377C24.3985 60.5499 24.4329 60.4642 24.4695 60.3764C24.634 59.9877 24.8466 59.6214 25.1022 59.2863L25.305 59.025C25.4548 58.8491 25.6154 58.6827 25.7857 58.5269C27.5715 58.1393 29.3943 57.951 31.2211 57.9655H87.8706L88.3249 58.0839C87.6764 58.2388 87.0811 58.5659 86.601 59.0311C86.5154 59.1132 86.4348 59.2005 86.3596 59.2924C86.0879 59.6122 85.8812 59.9826 85.7512 60.3825C85.7226 60.4682 85.6989 60.5554 85.6802 60.6438C85.6259 60.8746 85.5987 61.1109 85.5991 61.3481V74.6315C85.5997 74.8372 85.6208 75.0424 85.662 75.2439C85.6786 75.3315 85.7002 75.4181 85.7269 75.5031C85.8417 75.9009 86.0333 76.272 86.2907 76.5953C86.3614 76.6854 86.4365 76.772 86.5158 76.8545C86.8638 77.2182 87.283 77.5053 87.7469 77.6976Z" fill="#9AA5FB"/>
<path d="M87.7469 77.6976C87.2885 77.8099 86.816 77.912 86.3272 78.0079H31.217C29.5898 78.0215 27.965 77.8758 26.3657 77.5731C26.068 77.3665 25.7915 77.1306 25.5403 76.8688C25.4592 76.7851 25.3801 76.6973 25.305 76.6096C25.0221 76.2766 24.7809 75.9098 24.5871 75.5174C24.5445 75.4317 24.5039 75.3439 24.4674 75.2582C24.3169 74.9082 24.208 74.5417 24.1429 74.166C24.1287 74.0803 24.1145 73.9945 24.1044 73.9047C24.0801 73.7015 24.0679 73.497 24.0679 73.2923V62.3382C24.0659 62.2217 24.0699 62.1052 24.0801 61.9891C24.0922 61.8748 24.0943 61.8156 24.1044 61.7298C24.1497 61.3569 24.2375 60.9904 24.366 60.6377C24.3985 60.5499 24.4329 60.4642 24.4695 60.3764C24.634 59.9877 24.8466 59.6214 25.1022 59.2863L25.305 59.025C25.4548 58.8491 25.6154 58.6827 25.7857 58.5269C27.5715 58.1393 29.3943 57.951 31.2211 57.9655H87.8706L88.3249 58.0839C87.6764 58.2388 87.0811 58.5659 86.601 59.0311C86.5154 59.1132 86.4348 59.2005 86.3596 59.2924C86.0879 59.6122 85.8812 59.9826 85.7512 60.3825C85.7226 60.4682 85.6989 60.5554 85.6802 60.6438C85.6259 60.8746 85.5987 61.1109 85.5991 61.3481V74.6315C85.5997 74.8372 85.6208 75.0424 85.662 75.2439C85.6786 75.3315 85.7002 75.4181 85.7269 75.5031C85.8417 75.9009 86.0333 76.272 86.2907 76.5953C86.3614 76.6854 86.4365 76.772 86.5158 76.8545C86.8638 77.2182 87.283 77.5053 87.7469 77.6976Z" fill="url(#paint8_linear)"/>
<path d="M111.642 78.8204C111.479 79.0103 111.302 79.1878 111.113 79.3511C111.301 79.1862 111.478 79.0089 111.642 78.8204Z" fill="url(#paint9_linear)"/>
<path d="M112.174 59.6558C112.143 59.6088 112.113 59.5619 112.08 59.517C112.019 59.4271 111.955 59.3373 111.89 59.2516C111.991 59.3822 112.086 59.517 112.174 59.6558Z" fill="url(#paint10_linear)"/>
<path d="M112.816 61.001C112.832 61.048 112.847 61.0949 112.861 61.1419C112.834 61.0459 112.802 60.952 112.768 60.8581C112.786 60.905 112.802 60.952 112.816 61.001Z" fill="url(#paint11_linear)"/>
<path d="M113.117 62.4178V73.623C113.116 73.7023 113.109 73.7815 113.096 73.8598C113.061 74.196 112.988 74.5273 112.881 74.8478C112.857 74.9274 112.831 75.005 112.8 75.0805C112.289 76.3614 111.322 77.4049 110.089 78.0079H85.7999C83.9259 78.0079 82.3785 76.7341 82.1493 75.0846C82.1351 75.0064 82.1269 74.9273 82.125 74.8478C82.1175 74.78 82.1142 74.7119 82.1148 74.6437V61.4236C82.1148 59.5639 83.7657 58.0594 85.806 58.0594H110.661C112.155 59.0311 113.117 60.6295 113.117 62.4178Z" fill="#9AA5FB"/>
<path d="M112.08 59.2863H86.3594C86.4345 59.1943 86.5151 59.1071 86.6007 59.025H111.867C111.944 59.1069 112.015 59.1942 112.08 59.2863Z" fill="white"/>
<path d="M112.816 60.6295H85.6802C85.6988 60.5411 85.7225 60.4538 85.7512 60.3682H112.725C112.752 60.4621 112.786 60.5498 112.816 60.6295Z" fill="white"/>
<path d="M113.107 61.989H85.5991V61.7277H113.084C113.084 61.8135 113.1 61.9012 113.107 61.989Z" fill="white"/>
<path d="M113.119 63.0792H85.5991V63.3405H113.119V63.0792Z" fill="white"/>
<path d="M113.119 64.4305H85.5991V64.6918H113.119V64.4305Z" fill="white"/>
<path d="M113.119 65.782H85.5991V66.0433H113.119V65.782Z" fill="white"/>
<path d="M113.119 67.1354H85.5991V67.3947H113.119V67.1354Z" fill="white"/>
<path d="M113.119 68.4868H85.5991V68.7461H113.119V68.4868Z" fill="white"/>
<path d="M113.119 69.8382H85.5991V70.0974H113.119V69.8382Z" fill="white"/>
<path d="M113.119 71.1896H85.5991V71.4489H113.119V71.1896Z" fill="white"/>
<path d="M113.119 72.5411H85.5991V72.8024H113.119V72.5411Z" fill="white"/>
<path d="M113.121 73.8986V74.1599H85.5991V73.8986H113.121Z" fill="white"/>
<path d="M112.717 75.2439C112.717 75.3317 112.605 75.4174 112.597 75.5052H85.7265C85.6999 75.4194 85.6782 75.3322 85.6616 75.2439H112.717Z" fill="white"/>
<path d="M87.3473 59.2863H25.0981L25.301 59.025H86.8524C87.0228 59.1107 87.1871 59.2005 87.3473 59.2863Z" fill="white"/>
<path d="M86.7874 60.6295H24.3618C24.3943 60.5417 24.4287 60.4559 24.4652 60.3682H86.542C86.6289 60.4502 86.7109 60.5375 86.7874 60.6295Z" fill="white"/>
<path d="M87.4768 61.989H24.0757C24.0777 61.9022 24.0858 61.8155 24.1 61.7298H87.4119C87.4395 61.8146 87.4611 61.9012 87.4768 61.989Z" fill="white"/>
<path d="M87.5052 63.0792H24.0615V63.3384H87.5052V63.0792Z" fill="white"/>
<path d="M87.5052 64.4305H24.0615V64.6898H87.5052V64.4305Z" fill="white"/>
<path d="M87.5052 65.782H24.0615V66.0433H87.5052V65.782Z" fill="white"/>
<path d="M87.5052 67.1354H24.0615V67.3947H87.5052V67.1354Z" fill="white"/>
<path d="M87.5052 68.4888H24.0615V68.746H87.5052V68.4888Z" fill="white"/>
<path d="M87.5052 69.8382H24.0615V70.0954H87.5052V69.8382Z" fill="white"/>
<path d="M87.5052 71.1896H24.0615V71.4489H87.5052V71.1896Z" fill="white"/>
<path d="M87.5052 72.5411H24.0615V72.8024H87.5052V72.5411Z" fill="white"/>
<path d="M87.4121 73.8986C87.3855 73.9875 87.3537 74.0747 87.3168 74.1599H24.1347C24.1205 74.0741 24.1063 73.9884 24.0962 73.8986H87.4121Z" fill="white"/>
<path d="M86.5498 75.2459C86.4589 75.3371 86.3634 75.4236 86.2638 75.5052H24.5825C24.54 75.4194 24.4994 75.3316 24.4629 75.2459H86.5498Z" fill="white"/>
<path opacity="0.2" d="M89.718 54.5053C88.8033 55.6117 87.621 56.7243 87.1525 56.9713C84.4875 58.3839 81.4007 59.4659 79.837 62.0585C77.8576 65.3247 79.1373 69.5973 78.2287 73.3168C78.0624 73.9945 77.8048 74.6865 77.2836 75.154C76.7624 75.6215 75.9248 75.7807 75.3711 75.3582C74.8843 74.9887 74.7627 74.3191 74.6714 73.7128C73.8721 67.9896 73.8421 62.1841 74.5822 56.4528C71.54 57.8205 69.4814 60.707 67.8569 63.6262C66.2324 66.5454 64.8695 69.6749 62.6061 72.1266C61.9632 72.8207 61.1175 73.5005 60.1845 73.3658C59.063 71.9368 59.6511 69.8484 60.288 68.1377C61.5636 64.6919 62.8434 61.2419 64.4943 57.9757C65.0256 56.9141 65.6158 55.8485 66.5082 55.0687C66.7523 54.8557 67.0157 54.6664 67.2951 54.5032L89.718 54.5053Z" fill="#3F3D56"/>
<path d="M111.879 76.5973C111.81 76.6892 111.733 76.7606 111.656 76.8566H25.536C25.4549 76.7729 25.3758 76.6851 25.3008 76.5973H111.879Z" fill="white"/>
<path d="M44.1686 109.635H33.7623C30.426 108.79 28.8096 105.158 28.8096 105.158C28.8096 105.158 28.5074 87.3983 28.8096 85.1528C29.1118 82.9073 34.1659 81.2946 34.1659 81.2946H44.1686C40.8323 81.7763 38.4087 85.0507 38.4087 85.0507C38.4087 85.0507 38.2059 104.679 38.4087 106C38.6115 107.32 44.1686 109.635 44.1686 109.635Z" fill="url(#paint12_linear)"/>
<path d="M44.1686 109.635H40.8324C37.5002 108.79 35.8837 105.158 35.8837 105.158C35.8837 105.158 35.5795 87.3983 35.8837 85.1528C36.188 82.9073 41.238 81.2946 41.238 81.2946H44.1686C40.8324 81.7763 38.4088 85.0507 38.4088 85.0507C38.4088 85.0507 38.2059 104.679 38.4088 106C38.6116 107.32 44.1686 109.635 44.1686 109.635Z" fill="#9AA5FB"/>
<path d="M44.1686 109.635H40.8324C37.5002 108.79 35.8837 105.158 35.8837 105.158C35.8837 105.158 35.5795 87.3983 35.8837 85.1528C36.188 82.9073 41.238 81.2946 41.238 81.2946H44.1686C40.8324 81.7763 38.4088 85.0507 38.4088 85.0507C38.4088 85.0507 38.2059 104.679 38.4088 106C38.6116 107.32 44.1686 109.635 44.1686 109.635Z" fill="url(#paint13_linear)"/>
<path d="M58.6613 67.3253L57.6919 69.0196L59.9431 70.0056L60.874 68.3929L58.6613 67.3253Z" fill="url(#paint14_linear)"/>
<path d="M73.7974 71.8755L73.6919 73.7638L76.1459 73.6209L76.2494 71.8755H73.7974Z" fill="url(#paint15_linear)"/>
<path d="M58.1341 68.6441C58.0851 68.5409 58.0162 68.4485 57.9313 68.3726C57.8317 68.3056 57.7176 68.2636 57.5986 68.2501L53.7026 67.4621C53.562 67.4272 53.4174 67.4114 53.2727 67.4151C52.8995 67.4396 52.5932 67.7152 52.3478 67.999C52.2073 68.1331 52.1171 68.3119 52.0923 68.5053C52.1065 68.6266 52.1455 68.7437 52.207 68.8491C52.2684 68.9545 52.3509 69.046 52.4492 69.1177C52.723 69.3732 53.0108 69.6131 53.3112 69.8363C53.8886 70.2436 54.4893 70.6165 55.1101 70.9529C55.5279 71.1897 55.9457 71.4265 56.3736 71.6429C57.0774 71.9981 57.8075 72.2961 58.5417 72.586C58.5901 72.6163 58.6485 72.6261 58.704 72.613C58.7596 72.6 58.8077 72.5653 58.8378 72.5166C59.369 71.9592 59.7878 71.3033 60.0709 70.5854C60.1419 70.4078 60.2737 70.0179 60.0709 69.871C59.9999 69.8199 59.7991 69.8281 59.7099 69.8077C59.3836 69.7288 59.0761 69.5855 58.8053 69.3861C58.5344 69.1867 58.3056 68.9352 58.132 68.6461L58.1341 68.6441Z" fill="#3F3D56"/>
<path d="M73.941 72.9065C73.8468 72.8429 73.7415 72.7979 73.6307 72.7738C73.5113 72.7673 73.392 72.7883 73.2819 72.835L69.5217 74.1272C69.3793 74.167 69.2428 74.2261 69.1161 74.3028C68.8058 74.5069 68.678 74.9152 68.607 75.2765C68.5522 75.4633 68.5644 75.6634 68.6415 75.842C68.7138 75.9387 68.8051 76.0193 68.9098 76.0786C69.0146 76.138 69.1304 76.1749 69.25 76.187C69.6137 76.2707 69.9821 76.3321 70.3533 76.3707C71.0553 76.4319 71.7603 76.4504 72.4645 76.4258C72.9452 76.4258 73.4238 76.4136 73.9025 76.383C74.6894 76.334 75.4702 76.2217 76.247 76.1013C76.3033 76.1035 76.3583 76.0833 76.4 76.0452C76.4418 76.007 76.4669 75.9538 76.4701 75.8971C76.6502 75.146 76.6853 74.367 76.5735 73.6026C76.5451 73.4127 76.4579 73.0126 76.2125 72.9902C76.1253 72.98 75.957 73.0902 75.8697 73.1167C75.7374 73.1576 75.6016 73.1863 75.4641 73.2025C74.9381 73.2674 74.4052 73.1638 73.941 72.9065Z" fill="#3F3D56"/>
<path d="M89.1644 47.4421C89.1644 47.4421 88.5276 53.4417 83.0334 54.5053C79.3138 55.2218 74.7647 54.9666 72.2174 54.7278C71.615 54.6718 71.009 54.7846 70.4664 55.0538C69.9238 55.3229 69.4657 55.7378 69.1428 56.2527L61.2331 68.9339L58.9413 67.8193H58.9231L58.1118 67.4273L64.6971 51.9515C65.084 50.9905 65.678 50.128 66.4363 49.4262C67.1946 48.7244 68.0982 48.2008 69.0819 47.8932L76.6488 45.5354L78.4174 44.9842C78.4174 44.9842 85.5016 44.2656 89.1644 47.4421Z" fill="#3F3D56"/>
<path opacity="0.24" d="M76.6632 45.5231L77.1601 46.5826C77.1601 46.5826 68.4392 49.1548 67.3683 50.4062C65.9385 52.0801 58.9496 67.8091 58.9496 67.8091H58.9314L58.1201 67.4171L64.6973 51.9515C65.0842 50.9905 65.6782 50.128 66.4365 49.4262C67.1947 48.7244 68.0984 48.2008 69.0821 47.8932L76.6632 45.5231Z" fill="white"/>
<path d="M79.7538 46.4009C79.7538 46.4009 72.7486 53.2805 72.5215 56.955C72.2943 60.6295 73.2739 72.1511 73.2739 72.1511H76.673C76.673 72.1511 76.5047 58.1635 77.8899 58.0655C79.2751 57.9675 85.5542 53.8929 86.5622 52.7293C87.5702 51.5657 89.1785 47.438 89.1785 47.438L79.7538 46.4009Z" fill="#3F3D56"/>
<path d="M89.1644 47.442C89.1644 47.442 83.5586 50.3265 77.7177 46.9521C77.2089 46.6581 76.7204 46.3301 76.2554 45.9702C76.2554 45.9702 78.7135 41.5506 76.7563 35.1304C75.9187 32.3847 75.9005 27.1424 80.048 26.3952H80.0682C84.1934 25.6583 83.9602 26.6831 83.9602 26.6831L85.8261 28.5081C89.4138 31.4375 89.8073 35.9286 89.1644 47.442Z" fill="#9AA5FB"/>
<path opacity="0.24" d="M80.0683 26.3912C79.8959 26.7692 79.6281 27.0951 79.2915 27.3363C79.2915 27.3363 76.8253 28.4367 77.3181 32.0765C77.8109 35.7163 78.7135 42.7162 78.7135 42.7162L77.7177 46.9521C77.2089 46.6582 76.7204 46.3301 76.2554 45.9702C76.2554 45.9702 78.7135 41.5506 76.7563 35.1304C75.9187 32.3847 75.9005 27.1424 80.048 26.3953L80.0683 26.3912Z" fill="white"/>
<path d="M83.7776 26.1584C83.5601 26.42 83.2936 26.6358 82.9933 26.7937C82.693 26.9516 82.3647 27.0483 82.0272 27.0785C81.6897 27.1086 81.3496 27.0715 81.0263 26.9694C80.7031 26.8672 80.403 26.7019 80.1432 26.483L80.0539 26.4055C80.0539 26.4055 77.0118 29.4676 80.0864 29.837C81.7089 30.0412 83.7066 28.0651 84.2846 26.9485L83.7776 26.1584Z" fill="#3F3D56"/>
<path d="M84.6902 23.2903C84.678 23.3311 84.1061 25.0928 83.6761 26.3524C83.3571 27.3342 82.6802 28.1577 81.7818 28.6571C81.2547 28.9776 80.6681 29.186 80.0579 29.2695C79.9539 29.2791 79.8491 29.2679 79.7493 29.2366C79.6496 29.2054 79.557 29.1547 79.4768 29.0874C79.3965 29.0201 79.3303 28.9375 79.2817 28.8444C79.2332 28.7513 79.2034 28.6495 79.1939 28.5448C79.1782 28.3775 79.2158 28.2094 79.3014 28.0651C79.4434 27.814 79.5975 27.5241 79.7395 27.2159C80.0356 26.5749 80.283 25.8624 80.2425 25.299V25.2378C80.206 24.9438 80.3966 24.6846 80.7171 24.458C81.1693 24.1415 81.8812 23.8925 82.5769 23.7047C83.273 23.5268 83.9786 23.3884 84.6902 23.2903Z" fill="url(#paint16_linear)"/>
<path d="M80.1817 27.1914C80.0423 27.2199 79.8998 27.2302 79.7578 27.222C80.0539 26.581 80.3013 25.8686 80.2608 25.3052L80.7313 24.4641L81.0822 23.8394L82.5911 23.7108L84.1162 23.5822C83.1103 25.9768 81.4209 26.9689 80.1817 27.1914Z" fill="url(#paint17_linear)"/>
<path d="M83.0153 15.235C81.9538 15.0115 80.8476 15.2214 79.9398 15.8185C79.032 16.4157 78.397 17.3512 78.1742 18.4195C78.1539 18.5237 78.1357 18.6237 78.1215 18.736C77.8096 20.3858 77.7965 22.0788 78.0829 23.7333C78.7786 26.2952 82.5164 25.3664 83.2749 24.5886C84.0335 23.8109 87.0817 20.2262 86.5828 18.8319C86.2644 17.8847 85.1489 15.7188 83.0153 15.235Z" fill="url(#paint18_linear)"/>
<path d="M80.0034 12.7363L80.5794 13.2691C80.1836 13.1515 79.7657 13.1303 79.3601 13.2073C78.9546 13.2843 78.5731 13.4574 78.2471 13.7121C77.4745 14.1583 76.9061 14.891 76.6631 15.7535L77.9428 15.5228C77.9428 15.5228 77.4764 16.9089 79.5978 17.6009C81.7192 18.293 83.9643 19.0054 83.9643 19.0054L83.51 17.7806C83.51 17.7806 84.7005 18.6829 84.7999 19.2463C84.7963 20.1008 84.7285 20.9538 84.5971 21.798C84.5971 21.798 85.5057 20.5528 85.6436 20.9162C85.7815 21.2795 84.9906 22.4166 84.6296 22.6187C84.2686 22.8208 84.0982 23.6598 84.0536 23.721C84.009 23.7823 85.6761 23.0188 85.8403 22.6432C86.0046 22.2676 88.4262 18.6931 87.761 17.6234L88.3065 17.7275C88.0469 17.427 87.7241 17.1886 87.3614 17.0293C87.3614 17.0293 85.096 11.4318 80.0034 12.7363Z" fill="#3F3D56"/>
<path d="M79.2 42.8796C78.8938 42.5713 78.5916 42.2039 78.1636 42.1304C78.0136 42.4897 78.3198 42.8591 78.4496 43.2246C78.4696 43.2652 78.48 43.3099 78.48 43.3552C78.48 43.4005 78.4696 43.4453 78.4496 43.4859C78.3888 43.5838 78.2468 43.59 78.1353 43.5818C77.5942 43.543 77.0631 43.4147 76.5635 43.2021C76.1011 42.998 75.6569 42.7346 75.1559 42.6836C75.1024 42.6729 75.0469 42.6801 74.9978 42.704C74.8761 42.7816 74.947 42.9694 75.0343 43.0837C75.2204 43.3306 75.4318 43.557 75.665 43.7594C75.3116 43.6018 74.9347 43.5045 74.5495 43.4716C74.442 43.4716 74.296 43.494 74.298 43.6022C74.305 43.6467 74.3264 43.6876 74.3589 43.7186C74.644 44.0471 74.988 44.3186 75.373 44.5188C75.0931 44.4593 74.8069 44.4353 74.5211 44.4474C74.3974 44.4474 74.2331 44.5127 74.2514 44.6352C74.2593 44.6755 74.2791 44.7125 74.3082 44.7413C74.6513 45.1582 75.1149 45.4572 75.6346 45.5967L74.8233 45.615C74.7722 45.613 74.7214 45.6235 74.6753 45.6457C74.5293 45.7396 74.657 45.9702 74.799 46.0703C75.4237 46.5092 76.2187 46.5867 76.9833 46.6419C78.4456 46.748 79.9849 46.8052 81.3032 46.156C81.3985 46.107 81.506 46.0417 81.5242 45.9355C81.5284 45.8799 81.5201 45.8241 81.4999 45.7722C81.3397 45.2353 81.2586 44.2616 80.7738 43.935C80.5386 43.7778 80.2486 43.688 80.0072 43.5267C79.7659 43.3654 79.4758 43.0184 79.2 42.8796Z" fill="url(#paint19_linear)"/>
<path d="M90.3549 41.7405C89.8966 46.2744 81.7334 46.8297 81.7334 46.8297L80.8917 43.9166L80.7437 43.4042C80.7437 43.4042 85.1163 42.8489 85.9519 41.471C86.7875 40.093 83.3478 35.4734 85.4266 32.8971C87.5054 30.3209 87.978 31.1129 87.978 31.1129C87.978 31.1129 90.8092 37.2065 90.3549 41.7405Z" fill="#9AA5FB"/>
<path d="M68.4266 34.963C68.4243 35.1052 68.4128 35.247 68.3922 35.3876C68.3232 36.0225 68.1265 37.184 67.6032 37.6066C66.867 38.2007 66.7656 37.3351 66.7818 36.9942C66.7979 36.807 66.8284 36.6214 66.8731 36.4389C67.0434 35.7 67.946 35.1937 68.2928 35.0263L68.4266 34.963Z" fill="url(#paint20_linear)"/>
<path d="M68.3921 35.3876C68.3231 36.0225 68.1264 37.184 67.6031 37.6066C67.376 37.4413 67.0839 37.2208 66.7818 36.9942C66.3761 36.688 65.9441 36.3654 65.6379 36.1409C65.3654 35.957 65.1173 35.7389 64.8997 35.4917C64.7088 35.2409 64.5507 34.9664 64.4291 34.6752L63.8004 33.2993C63.5976 32.8481 63.3948 32.252 63.7558 31.903C63.8471 31.8131 64.6786 31.6498 64.7333 31.5314C64.8855 31.1925 63.9221 30.476 63.9829 30.1024C64.0131 30.0007 64.0777 29.9128 64.1654 29.8539C64.2532 29.795 64.3587 29.7688 64.4636 29.7799C64.6664 29.7901 65.2424 30.3229 65.4229 30.4311C65.7799 30.6352 65.4797 30.9251 65.8285 31.1374C66.2811 31.3715 66.6923 31.6791 67.0454 32.0479C67.4389 32.5113 67.6376 33.1053 67.8262 33.681C67.9641 34.1036 68.1487 34.5609 68.2907 35.0161C68.3292 35.1467 68.3637 35.2672 68.3921 35.3876Z" fill="url(#paint21_linear)"/>
<path d="M65.4089 32.1336L64.0561 25.6767L63.5552 23.2903L71.4162 25.4113L73.6978 40.8585L66.3925 38.6171L65.4089 32.1336Z" fill="#9AA5FB"/>
<path d="M67.0457 32.0561L63.9346 25.099L66.3927 38.6171L73.698 40.8586L72.9151 35.5612L67.0457 32.0561Z" fill="url(#paint22_linear)"/>
<path d="M65.8572 34.9181C66.1046 34.7936 66.6116 34.567 66.7394 34.32C66.7698 34.2608 66.8144 34.1832 66.7759 34.1301C66.5994 33.8852 65.8734 34.1975 65.6665 34.1301C65.8085 33.8954 67.074 33.1829 66.4778 33.0217C66.35 32.987 65.557 33.3912 65.4292 33.3544C65.5286 33.2728 66.3439 32.6889 66.4838 32.5379C66.5243 32.4929 66.5483 32.4354 66.5519 32.3748C66.5556 32.3143 66.5387 32.2543 66.5041 32.2047C66.4694 32.1551 66.419 32.1188 66.3612 32.1018C66.3033 32.0848 66.2414 32.0881 66.1857 32.1112C65.7539 32.3108 65.311 32.4853 64.8593 32.6338C64.9465 32.4889 66.1249 31.8172 66.1715 31.6458C66.1978 31.5809 66.202 31.5092 66.1837 31.4416C66.1674 31.4053 66.1435 31.3728 66.1138 31.3464C66.0841 31.32 66.0492 31.3003 66.0113 31.2885C65.6827 31.1599 65.3136 31.2885 64.9851 31.4212L64.2062 31.7315C63.9568 31.8295 63.681 31.9561 63.5978 32.2092C63.5614 32.3373 63.5551 32.4722 63.5796 32.6032C63.6745 33.4297 63.9675 34.2206 64.4334 34.9079C64.6646 35.2468 65.3947 36.0654 65.8146 36.145C66.1877 36.2165 65.5083 35.1121 65.8572 34.9181Z" fill="url(#paint23_linear)"/>
<path opacity="0.24" d="M73.9897 55.8444C73.9897 55.8444 76.6709 49.661 79.7698 47.9013L78.7132 47.4706C78.7132 47.4706 73.2717 53.2947 72.6288 56.2915C71.9859 59.2882 73.2758 72.147 73.2758 72.147H74.1682C74.1682 72.147 72.6937 57.106 73.9897 55.8444Z" fill="white"/>
<path opacity="0.24" d="M86.1789 42.4611C84.453 43.1756 81.5142 43.7982 80.8814 43.9288L80.7598 43.9533L80.7334 43.4164C80.7334 43.4164 85.106 42.8612 85.9416 41.4832C86.7772 40.1053 83.3375 35.4856 85.4163 32.9094C85.4163 32.9094 85.1527 35.1876 85.8361 36.8717C86.5196 38.5559 88.1178 41.6445 86.1789 42.4611Z" fill="white"/>
</g>
<defs>
<linearGradient id="paint0_linear" x1="141.81" y1="19.9526" x2="154.522" y2="39.1984" gradientUnits="userSpaceOnUse">
<stop stop-color="white" stop-opacity="0"/>
<stop offset="0.99" stop-color="white"/>
</linearGradient>
<linearGradient id="paint1_linear" x1="31403.4" y1="13505.6" x2="31417.2" y2="9287.96" gradientUnits="userSpaceOnUse">
<stop stop-color="white" stop-opacity="0"/>
<stop offset="0.99" stop-color="white"/>
</linearGradient>
<linearGradient id="paint2_linear" x1="83.6152" y1="42.9651" x2="66.5443" y2="83.7612" gradientUnits="userSpaceOnUse">
<stop offset="0.17" stop-color="#00272E"/>
<stop offset="1" stop-color="#69B9EB" stop-opacity="0"/>
</linearGradient>
<linearGradient id="paint3_linear" x1="59.1603" y1="100.282" x2="59.8528" y2="124.249" gradientUnits="userSpaceOnUse">
<stop stop-opacity="0"/>
<stop offset="0.91" stop-opacity="0.8"/>
<stop offset="1"/>
</linearGradient>
<linearGradient id="paint4_linear" x1="20491" y1="1939.15" x2="20490.2" y2="2162.73" gradientUnits="userSpaceOnUse">
<stop stop-color="white" stop-opacity="0"/>
<stop offset="0.99" stop-color="white"/>
</linearGradient>
<linearGradient id="paint5_linear" x1="18897.3" y1="3555.88" x2="11539.8" y2="3949.1" gradientUnits="userSpaceOnUse">
<stop stop-opacity="0"/>
<stop offset="0.91" stop-opacity="0.8"/>
<stop offset="1"/>
</linearGradient>
<linearGradient id="paint6_linear" x1="18030.5" y1="15091.9" x2="18752.9" y2="5587.59" gradientUnits="userSpaceOnUse">
<stop stop-color="white" stop-opacity="0"/>
<stop offset="0.99" stop-color="white"/>
</linearGradient>
<linearGradient id="paint7_linear" x1="113.478" y1="69.1646" x2="85.1444" y2="66.8452" gradientUnits="userSpaceOnUse">
<stop stop-color="#68E1FD"/>
<stop offset="1" stop-color="white"/>
</linearGradient>
<linearGradient id="paint8_linear" x1="27544.3" y1="10141.9" x2="3688.03" y2="10141.9" gradientUnits="userSpaceOnUse">
<stop stop-color="white" stop-opacity="0"/>
<stop offset="0.99" stop-color="white"/>
</linearGradient>
<linearGradient id="paint9_linear" x1="111.113" y1="79.0858" x2="111.642" y2="79.0858" gradientUnits="userSpaceOnUse">
<stop stop-color="#68E1FD"/>
<stop offset="1" stop-color="#69B9EB"/>
</linearGradient>
<linearGradient id="paint10_linear" x1="268.941" y1="245.706" x2="269.339" y2="245.706" gradientUnits="userSpaceOnUse">
<stop stop-color="#68E1FD"/>
<stop offset="1" stop-color="#69B9EB"/>
</linearGradient>
<linearGradient id="paint11_linear" x1="164.76" y1="193.904" x2="164.803" y2="193.904" gradientUnits="userSpaceOnUse">
<stop stop-color="#68E1FD"/>
<stop offset="1" stop-color="#69B9EB"/>
</linearGradient>
<linearGradient id="paint12_linear" x1="2612.18" y1="20944.6" x2="4290.95" y2="15344.6" gradientUnits="userSpaceOnUse">
<stop stop-color="white" stop-opacity="0"/>
<stop offset="0.99" stop-color="white"/>
</linearGradient>
<linearGradient id="paint13_linear" x1="1683.22" y1="17816" x2="2274.04" y2="135.286" gradientUnits="userSpaceOnUse">
<stop stop-color="white" stop-opacity="0"/>
<stop offset="0.99" stop-color="white"/>
</linearGradient>
<linearGradient id="paint14_linear" x1="61.2249" y1="68.8257" x2="56.5436" y2="68.4408" gradientUnits="userSpaceOnUse">
<stop stop-color="#ECC4D7"/>
<stop offset="0.42" stop-color="#EFD4D1"/>
<stop offset="1" stop-color="#F2EAC9"/>
</linearGradient>
<linearGradient id="paint15_linear" x1="1982.42" y1="-1711.72" x2="1927.8" y2="-1691.52" gradientUnits="userSpaceOnUse">
<stop stop-color="#ECC4D7"/>
<stop offset="0.42" stop-color="#EFD4D1"/>
<stop offset="1" stop-color="#F2EAC9"/>
</linearGradient>
<linearGradient id="paint16_linear" x1="2362.79" y1="-2719.49" x2="2272.98" y2="-2720.45" gradientUnits="userSpaceOnUse">
<stop stop-color="#ECC4D7"/>
<stop offset="0.42" stop-color="#EFD4D1"/>
<stop offset="1" stop-color="#F2EAC9"/>
</linearGradient>
<linearGradient id="paint17_linear" x1="1846.49" y1="-1642.38" x2="1664.46" y2="-1550.66" gradientUnits="userSpaceOnUse">
<stop stop-color="#ECC4D7"/>
<stop offset="0.42" stop-color="#EFD4D1"/>
<stop offset="1" stop-color="#F2EAC9"/>
</linearGradient>
<linearGradient id="paint18_linear" x1="3803.43" y1="-5062.22" x2="3479.05" y2="-5028.37" gradientUnits="userSpaceOnUse">
<stop stop-color="#ECC4D7"/>
<stop offset="0.42" stop-color="#EFD4D1"/>
<stop offset="1" stop-color="#F2EAC9"/>
</linearGradient>
<linearGradient id="paint19_linear" x1="2747.49" y1="1781.63" x2="3008.45" y2="1781.63" gradientUnits="userSpaceOnUse">
<stop stop-color="#ECC4D7"/>
<stop offset="0.42" stop-color="#EFD4D1"/>
<stop offset="1" stop-color="#F2EAC9"/>
</linearGradient>
<linearGradient id="paint20_linear" x1="66.7798" y1="36.3859" x2="68.4266" y2="36.3859" gradientUnits="userSpaceOnUse">
<stop stop-color="#183866"/>
<stop offset="1" stop-color="#1A7FC1"/>
</linearGradient>
<linearGradient id="paint21_linear" x1="1585.31" y1="2618.55" x2="1700.58" y2="2618.55" gradientUnits="userSpaceOnUse">
<stop stop-color="#ECC4D7"/>
<stop offset="0.42" stop-color="#EFD4D1"/>
<stop offset="1" stop-color="#F2EAC9"/>
</linearGradient>
<linearGradient id="paint22_linear" x1="3257.44" y1="4909.59" x2="4251.51" y2="6398.78" gradientUnits="userSpaceOnUse">
<stop stop-color="white" stop-opacity="0"/>
<stop offset="0.99" stop-color="white"/>
</linearGradient>
<linearGradient id="paint23_linear" x1="1078.76" y1="1642.81" x2="1130.25" y2="1642.81" gradientUnits="userSpaceOnUse">
<stop stop-color="#ECC4D7"/>
<stop offset="0.42" stop-color="#EFD4D1"/>
<stop offset="1" stop-color="#F2EAC9"/>
</linearGradient>
<clipPath id="clip0">
<rect width="164" height="122" fill="white"/>
</clipPath>
</defs>
</svg>
