<svg width="18" height="17" viewBox="0 0 18 17" fill="none" xmlns="http://www.w3.org/2000/svg">
<path d="M17.3443 0H1.21754C0.981504 0 0.794064 0.191089 0.794064 0.423871V8.16473C0.794064 8.40098 0.984975 8.5886 1.21754 8.5886C1.4501 8.5886 1.64449 8.39751 1.64449 8.16473V0.851216H16.9243V16.1453H9.56905C9.33301 16.1453 9.1421 16.3364 9.1421 16.5727C9.1421 16.8089 9.33301 17 9.56905 17H17.3443C17.5804 17 17.7713 16.8089 17.7713 16.5727V0.427345C17.7713 0.191089 17.5804 0 17.3443 0Z" fill="white"/>
<path d="M0.789551 16.5691C0.789551 16.8054 0.980462 16.9965 1.21303 16.9965H7.12781C7.36384 16.9965 7.55476 16.8054 7.55476 16.5691V10.6523C7.55476 10.4161 7.36384 10.225 7.12781 10.225H1.2165C0.980462 10.225 0.793022 10.4161 0.793022 10.6523V16.5691H0.789551ZM1.63997 11.0762H6.70433V16.1453H1.63997V11.0762Z" fill="white"/>
<path d="M7.51774 8.16008C7.60104 8.24347 7.70865 8.28516 7.81972 8.28516C7.9308 8.28516 8.03841 8.24347 8.12171 8.16008L12.9327 3.34116V6.11717C12.9327 6.35342 13.1236 6.54451 13.3596 6.54451C13.5957 6.54451 13.7866 6.35342 13.7866 6.11717V2.31623C13.7866 2.07998 13.5957 1.88889 13.3596 1.88889H9.55876C9.32272 1.88889 9.13181 2.07998 9.13181 2.31623C9.13181 2.55249 9.32272 2.74358 9.55876 2.74358H12.3322L7.51774 7.55902C7.35112 7.72579 7.35112 7.99331 7.51774 8.16008Z" fill="white"/>
</svg>
