<svg width="147" height="118" viewBox="0 0 147 118" fill="none" xmlns="http://www.w3.org/2000/svg">
<g clip-path="url(#clip0)">
<path opacity="0.18" d="M112.092 6.40244C108.789 5.19777 105.778 3.296 102.491 2.06241C98.0293 0.391935 93.2093 -0.00640989 88.4341 1.50238e-05C73.0364 1.50238e-05 57.3282 4.30792 45.2943 13.9485C40.4999 17.781 36.192 22.5001 30.4535 24.6364C25.9119 26.3325 20.5734 26.3743 16.8992 29.545C12.7898 33.0787 12.2809 39.2434 12.6489 44.6724C13.017 50.1015 13.8972 55.8357 11.5864 60.7572C10.2294 63.6484 7.90257 65.9325 5.99506 68.4896C3.4099 71.9606 1.59604 75.9476 0.675716 80.1817C-0.244607 84.4158 -0.250008 88.7988 0.659877 93.0351C1.56976 97.2715 3.37379 101.263 5.95039 104.74C8.52699 108.218 11.8163 111.101 15.5966 113.194C23.1531 117.37 32.1113 118.129 40.7431 117.984C48.6228 117.852 56.8642 116.924 63.4028 112.507C67.6147 109.657 70.9241 105.481 75.4976 103.264C81.0121 100.598 87.4452 101.183 93.5678 101.144C100.82 101.093 108.252 100.013 114.579 96.4541C120.907 92.8947 125.973 86.5243 126.549 79.2706C126.988 73.7034 124.859 67.8985 126.719 62.6397C127.426 60.6384 128.671 58.8747 130.006 57.2299C134.915 51.1552 141.416 46.1245 144.517 38.9286C146.197 35.0351 146.757 30.7464 146.956 26.5092C147.199 21.1733 146.482 15.0247 142.12 11.96C138.164 9.18122 133.293 10.4662 128.834 9.82371C123.355 9.02381 117.312 8.29779 112.092 6.40244Z" fill="#9AA5FB"/>
<path d="M53.8584 61.5443C53.8584 61.5443 39.6993 58.0588 30.2129 65.9678C20.7266 73.8769 31.5507 70.5295 35.0137 71.6025C38.4767 72.6754 43.6967 74.6864 43.6967 74.6864C43.6967 74.6864 58.1343 67.8407 53.8584 61.5443Z" fill="#3E3E54"/>
<path d="M53.8584 61.5443C53.8584 61.5443 39.6993 58.0588 30.2129 65.9678C20.7266 73.8769 31.5507 70.5295 35.0137 71.6025C38.4767 72.6754 43.6967 74.6864 43.6967 74.6864C43.6967 74.6864 58.1343 67.8407 53.8584 61.5443Z" fill="url(#paint0_linear)"/>
<path d="M48.8975 84.1086C48.8975 84.1086 57.8046 78.2105 63.3255 79.9966L67.9566 81.4262C67.9566 81.4262 65.1082 99.4866 49.2528 101.096C49.2528 101.096 45.8698 101.453 49.6113 95.1948C53.3527 88.9369 48.8975 84.1086 48.8975 84.1086Z" fill="#3E3E54"/>
<path d="M48.8975 84.1086C48.8975 84.1086 57.8046 78.2105 63.3255 79.9966L67.9566 81.4262C67.9566 81.4262 65.1082 99.4866 49.2528 101.096C49.2528 101.096 45.8698 101.453 49.6113 95.1948C53.3527 88.9369 48.8975 84.1086 48.8975 84.1086Z" fill="url(#paint1_linear)"/>
<path d="M73.7052 25.2627C74.3424 25.6031 75.0278 25.8436 75.7375 25.9759C76.7841 26.114 77.8242 25.7799 78.8388 25.494C80.0203 25.1625 81.2177 24.8913 82.4266 24.6813C83.0923 24.5688 83.87 24.5078 84.3469 25.0025C84.8238 25.4972 84.7278 26.3518 84.3117 26.9011C83.8956 27.4504 83.2523 27.7652 82.6314 28.064L78.9892 29.8084C78.366 30.131 77.7146 30.3955 77.0433 30.5986C74.2684 31.3503 71.388 29.9561 68.9716 28.4045C68.0402 27.8006 67.0321 27.0039 66.9937 25.8924C67.0056 25.4513 67.0967 25.016 67.2625 24.6074C67.3922 24.1004 67.6553 23.6377 68.0242 23.2678C69.1252 22.3137 72.5946 24.7391 73.7052 25.2627Z" fill="#9AA5FB"/>
<path d="M73.6279 25.3013C74.2651 25.6416 74.9505 25.8821 75.6602 26.0145C76.7068 26.1526 77.747 25.8185 78.7615 25.5326C79.9469 25.2002 81.1487 24.93 82.3621 24.723C83.0246 24.6074 83.8055 24.5464 84.2824 25.0443C84.7593 25.5422 84.6633 26.3903 84.2472 26.9396C83.8312 27.489 83.1878 27.8038 82.5669 28.1026L78.9248 29.8469C78.3015 30.1695 77.6502 30.434 76.9788 30.6372C74.204 31.3889 71.3235 29.9947 68.9071 28.4431C67.9758 27.8423 66.9676 27.0424 66.9292 25.9309C66.9389 25.4896 67.03 25.0539 67.198 24.6459C67.3225 24.1453 67.5764 23.6865 67.9342 23.316C69.0479 22.3523 72.5045 24.7809 73.6279 25.3013Z" fill="url(#paint2_linear)"/>
<path d="M80.9443 38.829C79.9105 40.4352 78.5823 41.8519 77.2637 43.2429C75.945 44.6339 74.6264 46.0024 72.8725 46.6546C72.0084 46.9758 70.9842 47.085 70.1969 46.5967C69.3424 46.0699 68.9903 44.9423 69.1503 43.9465C69.3645 42.954 69.8564 42.0435 70.5682 41.3219C71.114 40.6456 71.7204 40.0209 72.3797 39.4554C73.103 38.9029 73.8711 38.9318 74.8153 38.8643C76.8552 38.7161 78.9027 38.7043 80.9443 38.829Z" fill="#3E3E54"/>
<path d="M80.9443 38.829C79.9105 40.4352 78.5823 41.8519 77.2637 43.2429C75.945 44.6339 74.6264 46.0024 72.8725 46.6546C72.0084 46.9758 70.9842 47.085 70.1969 46.5967C69.3424 46.0699 68.9903 44.9423 69.1503 43.9465C69.3645 42.954 69.8564 42.0435 70.5682 41.3219C71.114 40.6456 71.7204 40.0209 72.3797 39.4554C73.103 38.9029 73.8711 38.9318 74.8153 38.8643C76.8552 38.7161 78.9027 38.7043 80.9443 38.829Z" fill="url(#paint3_linear)"/>
<path d="M135.388 24.4404C135.261 25.2167 135.092 25.9856 134.883 26.7437C133.774 30.7172 132.203 34.5459 130.203 38.1511C125.748 46.3525 117.587 57.1046 102.788 67.0633C79.552 82.7593 59.1582 85.3743 51.6338 85.7694C49.6431 85.8818 48.5517 85.8401 48.5517 85.8401L41.7378 75.239C41.7378 75.239 49.419 63.7608 63.2837 51.7238C69.6779 46.138 76.6164 41.2131 83.9943 37.0236C88.4096 34.5266 92.981 32.3182 97.6797 30.4123C104.128 27.7581 110.856 25.8473 117.734 24.7166C128.875 22.9755 135.388 24.4404 135.388 24.4404Z" fill="#9AA5FB"/>
<path d="M80.7781 41.6656C80.4581 42.2599 81.4534 44.1553 81.9975 44.5568C82.5416 44.9584 83.2073 45.1993 83.5978 45.7583C83.6762 45.8556 83.7321 45.9692 83.7615 46.0909C83.7908 46.2126 83.7928 46.3393 83.7674 46.4618C83.665 46.8216 83.2553 46.9822 82.9001 47.1043L73.3497 50.0533C73.0852 50.1095 72.8401 50.2347 72.6392 50.4163C72.2551 50.8275 72.4472 51.5471 72.8856 51.8909C73.3607 52.1971 73.9233 52.3372 74.4859 52.2892C77.5744 52.2892 80.967 51.0042 83.553 52.6875C84.2883 53.215 84.9263 53.8673 85.4381 54.615C87.2618 57.0436 88.6582 59.7674 89.5668 62.6687C89.8452 63.5617 90.0756 64.5351 89.7556 65.4153C88.2442 64.7953 86.9454 63.7472 86.0174 62.3988C84.8588 60.7026 84.2635 58.5246 82.5768 57.3617C81.3446 56.5104 79.7508 56.3979 78.2593 56.5232C76.7679 56.6485 75.2988 57.0244 73.8042 57.0436C70.4757 57.0854 67.4032 55.4374 64.4715 53.8312C63.8602 53.5099 63.1657 53.0313 63.1529 52.331C63.1514 52.1385 63.1976 51.9486 63.2873 51.7784C69.6815 46.1927 76.62 41.2677 83.9979 37.0782C88.4132 34.5812 92.9845 32.3729 97.6833 30.467C98.9507 32.2756 80.9158 41.4182 80.7781 41.6656Z" fill="url(#paint4_linear)"/>
<path d="M135.27 24.5561C135.27 24.5561 134.48 30.1779 130.085 38.2668C128.672 37.8224 127.283 37.3034 125.925 36.712C120.349 34.3155 118.051 26.4803 117.629 24.8548C128.757 23.0944 135.27 24.5561 135.27 24.5561Z" fill="url(#paint5_linear)"/>
<path opacity="0.31" d="M108.75 45.2442C111.685 45.2442 114.063 42.8567 114.063 39.9116C114.063 36.9664 111.685 34.5789 108.75 34.5789C105.816 34.5789 103.438 36.9664 103.438 39.9116C103.438 42.8567 105.816 45.2442 108.75 45.2442Z" fill="#3E3E54"/>
<path opacity="0.31" d="M94.7225 53.4232C97.6568 53.4232 100.035 51.0357 100.035 48.0905C100.035 45.1454 97.6568 42.7578 94.7225 42.7578C91.7883 42.7578 89.4097 45.1454 89.4097 48.0905C89.4097 51.0357 91.7883 53.4232 94.7225 53.4232Z" fill="#3E3E54"/>
<path opacity="0.31" d="M79.3602 63.8829C82.2945 63.8829 84.6731 61.4954 84.6731 58.5502C84.6731 55.605 82.2945 53.2175 79.3602 53.2175C76.426 53.2175 74.0474 55.605 74.0474 58.5502C74.0474 61.4954 76.426 63.8829 79.3602 63.8829Z" fill="#3E3E54"/>
<path d="M42.8969 71.7245L51.8039 86.0264L46.9935 87.8157L39.6899 75.4799L42.8969 71.7245Z" fill="#3E3E54"/>
<path d="M68.9841 54.6663C73.1927 55.6879 77.5839 54.586 81.831 53.7347C82.2673 53.6094 82.729 53.6027 83.1688 53.7155C83.6713 53.8921 84.0073 54.3579 84.3018 54.8045C85.7693 57.0418 86.9915 59.4318 87.9471 61.9329C88.5232 63.4396 89.0641 65.0779 90.3443 66.0545C91.6245 67.0311 93.9097 66.8126 94.3738 65.2674C92.1878 59.0963 89.4962 53.1211 86.8078 47.1524C86.5645 46.6127 86.2957 46.0409 85.7964 45.7229C85.3592 45.4912 84.8729 45.3689 84.3786 45.3663L69.2209 44.0524C65.8155 43.7568 60.6947 43.3039 61.8373 48.0583C62.6246 51.3736 65.7835 53.8889 68.9841 54.6663Z" fill="#3E3E54"/>
<path d="M68.9841 54.6663C73.1927 55.6879 77.5839 54.586 81.831 53.7347C82.2673 53.6094 82.729 53.6027 83.1688 53.7155C83.6713 53.8921 84.0073 54.3579 84.3018 54.8045C85.7693 57.0418 86.9915 59.4318 87.9471 61.9329C88.5232 63.4396 89.0641 65.0779 90.3443 66.0545C91.6245 67.0311 93.9097 66.8126 94.3738 65.2674C92.1878 59.0963 89.4962 53.1211 86.8078 47.1524C86.5645 46.6127 86.2957 46.0409 85.7964 45.7229C85.3592 45.4912 84.8729 45.3689 84.3786 45.3663L69.2209 44.0524C65.8155 43.7568 60.6947 43.3039 61.8373 48.0583C62.6246 51.3736 65.7835 53.8889 68.9841 54.6663Z" fill="url(#paint6_linear)"/>
<path d="M72.7861 41.5146C72.7861 42.5522 72.7861 43.6252 72.322 44.5568C71.7299 45.7776 70.4529 46.5453 69.1215 46.8569C68.7 46.952 68.2721 47.0154 67.8413 47.0465C66.9224 47.0871 66.0018 47.0667 65.0856 46.9854C63.3285 46.8698 61.3346 46.6289 60.2848 45.209C59.5487 44.2099 59.4847 42.8799 59.4559 41.6367C59.3791 38.2379 59.3631 34.8391 59.3375 31.4404C59.3375 29.4968 58.5534 26.8755 58.8286 25.0154C58.9216 24.2475 59.2196 23.5191 59.6912 22.9073C60.1627 22.2954 60.7903 21.8228 61.5074 21.5396C64.1031 20.4248 67.8733 21.244 69.7136 23.3675C71.189 25.0636 71.7587 27.3605 72.1044 29.5868C72.7349 33.5156 72.7829 37.5247 72.7861 41.5146Z" fill="#9AA5FB"/>
<path d="M67.0127 35.0382C67.1791 37.6082 67.2687 40.1782 67.2816 42.7481C67.2612 43.4565 67.2954 44.1653 67.384 44.8683C67.4704 45.4048 67.8128 45.8995 67.8737 46.4071C67.9 46.621 67.8935 46.8377 67.8544 47.0496C66.9356 47.0903 66.015 47.0699 65.0988 46.9886C63.3417 46.8729 61.3478 46.632 60.298 45.2121C59.5619 44.213 59.4979 42.883 59.4691 41.6398C59.3923 38.241 59.3763 34.8423 59.3507 31.4435C59.3507 29.5 58.5665 26.8786 58.8418 25.0186C58.9348 24.2507 59.2328 23.5223 59.7044 22.9104C60.1759 22.2985 60.8035 21.826 61.5206 21.5427C61.7263 21.6104 61.9255 21.6964 62.1159 21.7997C63.2393 22.3972 64.0874 23.4059 64.862 24.4211C65.2661 24.9262 65.6099 25.4771 65.8861 26.0626C66.1791 26.8303 66.3602 27.6363 66.4238 28.4559C66.6222 30.1424 66.7823 31.8354 66.9135 33.5316C66.9839 34.4375 66.7439 35.0093 67.7168 35.1828C68.5442 35.3278 69.3804 35.4169 70.2196 35.4494C71.0742 35.488 72.0855 35.3884 72.5368 34.6592C72.6871 34.3775 72.7534 34.0585 72.7279 33.74C72.7023 33.4216 72.586 33.1173 72.3928 32.8634C71.9955 32.3619 71.4568 31.9925 70.8469 31.8033C70.2516 31.5848 69.6243 31.4628 69.0226 31.2604C68.4114 31.0729 67.8472 30.7563 67.368 30.332C66.8853 29.9035 66.5813 29.3082 66.5166 28.6647" fill="url(#paint7_linear)"/>
<path d="M63.1781 20.9998C63.1442 21.3084 63.1571 21.6203 63.2165 21.925C63.4053 22.6799 64.1222 23.1747 64.8327 23.4863C65.2712 23.679 65.8569 23.8075 66.1738 23.4381C66.4202 23.1522 66.3594 22.7217 66.2826 22.3491L65.8601 20.322C65.7826 19.8684 65.6593 19.4238 65.492 18.9953C65.3064 18.5616 64.0806 16.7947 63.4597 17.2445C63.2005 17.4308 63.3093 18.7029 63.2933 19.021L63.1781 20.9998Z" fill="url(#paint8_linear)"/>
<path d="M63.2423 17.3023C63.4172 18.1401 63.7979 18.9208 64.3497 19.5735C64.9094 20.228 65.6995 20.64 66.5548 20.7236C66.8666 20.76 67.182 20.6983 67.4574 20.5469C67.7954 20.281 68.0427 19.9161 68.1647 19.5028C68.8912 17.7328 69.6273 15.786 69.0768 13.9485C68.9386 13.3765 68.5823 12.8817 68.0847 12.5703C67.5518 12.3419 66.9558 12.3089 66.4012 12.4772C65.441 12.6956 64.0008 13.1968 63.3799 14.0192C62.759 14.8416 63.0311 16.3996 63.2423 17.3023Z" fill="url(#paint9_linear)"/>
<path d="M66.7662 9.32578C66.0627 9.00871 65.2883 8.88363 64.5212 8.96316C63.7541 9.04269 63.0215 9.32402 62.3974 9.77874C61.5909 10.3859 61.0148 11.2597 60.1923 11.8411C59.4178 12.3905 58.48 12.641 57.6127 13.0265C57.507 13.0715 57.3886 13.139 57.3694 13.2514C57.3374 13.4249 57.5391 13.5373 57.6191 13.6947C57.7407 13.9357 57.5455 14.2119 57.363 14.4143L56.3196 15.5579C56.1917 15.6696 56.1049 15.8212 56.0732 15.9884C56.038 16.4285 56.6589 16.5538 57.0974 16.5153L58.544 16.3868C57.6935 16.9611 56.9575 17.69 56.3741 18.5359C56.6941 18.8764 57.2862 18.7158 57.6799 18.4556C58.0735 18.1954 58.448 17.8131 58.9153 17.8388C58.2144 18.9728 60.4099 18.9278 61.066 18.9118C61.6235 18.8771 62.1681 18.7284 62.6663 18.4749C62.9054 18.3816 63.1231 18.2406 63.3064 18.0605C63.3985 17.9707 63.4671 17.8595 63.5061 17.7368C63.5452 17.6141 63.5536 17.4836 63.5304 17.3569C63.4939 17.246 63.4479 17.1386 63.3928 17.0357C63.3012 16.8334 63.2554 16.6132 63.2587 16.391C63.262 16.1688 63.3144 15.9501 63.412 15.7507C63.444 15.6897 63.4856 15.6222 63.556 15.6126C63.6133 15.6106 63.6692 15.63 63.7129 15.6672L64.1961 15.9884C64.17 15.3365 64.4016 14.7007 64.8404 14.2193C65.2792 13.738 65.8897 13.4501 66.5389 13.4184C67.5375 13.3638 69.365 13.8586 69.1249 12.2234C68.9329 10.9963 67.8575 9.82371 66.7662 9.32578Z" fill="#3E3E54"/>
<path d="M68.3665 13.4024C68.5555 13.3154 68.7154 13.1753 68.8268 12.9989C68.9381 12.8226 68.9961 12.6176 68.9937 12.4089C68.9913 12.2001 68.9287 11.9965 68.8134 11.8228C68.6981 11.649 68.5351 11.5126 68.3441 11.43C67.8828 11.1828 67.3614 11.0714 66.8398 11.1087C65.9636 11.0891 65.0945 11.2704 64.2986 11.6388C63.2104 12.1849 62.4231 13.1904 61.4181 13.8875C60.5659 14.4257 59.6303 14.8176 58.6497 15.0472C58.1986 15.1234 57.7713 15.3038 57.4015 15.574C57.3439 15.6286 57.2863 15.7025 57.3119 15.7764C57.3304 15.8101 57.3567 15.8387 57.3887 15.8599C57.5117 15.9444 57.6516 16.0011 57.7985 16.026C57.9455 16.051 58.0961 16.0436 58.24 16.0045C58.4064 15.9595 58.5601 15.8696 58.7137 15.8117C59.1941 15.6929 59.696 15.6929 60.1763 15.8117C60.8497 15.9416 61.5432 15.923 62.2087 15.7571C62.7674 15.5436 63.3035 15.2745 63.8089 14.954C64.0079 14.8567 64.2278 14.8104 64.449 14.8191C64.2799 15.1795 64.1956 15.5741 64.2026 15.9724L63.7193 15.6511C63.6945 15.632 63.6662 15.6182 63.6359 15.6105C63.6056 15.6028 63.5741 15.6013 63.5433 15.6061C63.4761 15.6061 63.4313 15.6832 63.3993 15.7443C63.3025 15.944 63.2506 16.1626 63.2473 16.3846C63.244 16.6067 63.2893 16.8267 63.3801 17.0293C63.4354 17.1316 63.4805 17.2392 63.5145 17.3505C63.5402 17.4767 63.5337 17.6073 63.4956 17.7303C63.4576 17.8533 63.3892 17.9647 63.2968 18.054C63.111 18.2317 62.894 18.3733 62.6567 18.4717C62.1577 18.7225 61.6135 18.87 61.0565 18.9053C60.4164 18.9053 58.2112 18.9664 58.9089 17.8324C58.4417 17.8324 58.0448 18.2082 57.6735 18.4492C57.3023 18.6901 56.7134 18.8668 56.3677 18.5295C56.9503 17.6828 57.6864 16.9538 58.5377 16.3803L57.091 16.5088C56.6494 16.5474 56.0317 16.4221 56.0669 15.982C56.0986 15.8156 56.1841 15.6643 56.3101 15.5515L57.3567 14.4079C57.5391 14.2055 57.7343 13.9292 57.6127 13.6883C57.5327 13.5309 57.3311 13.4153 57.3631 13.245C57.3823 13.1293 57.5007 13.0651 57.6063 13.0169C58.4705 12.6346 59.4114 12.3744 60.1859 11.8379C61.0117 11.2565 61.5878 10.3763 62.3911 9.77554C63.0143 9.31909 63.7468 9.03643 64.5142 8.95631C65.2815 8.87618 66.0563 9.00145 66.7598 9.31937C67.848 9.83015 68.9266 10.9898 69.1058 12.2106C69.2242 13.0041 68.8754 13.2996 68.3665 13.4024Z" fill="url(#paint10_linear)"/>
<path d="M86.4557 23.1876C87.3615 22.9788 88.4177 23.1876 88.9906 23.9264C89.0631 24.009 89.1079 24.1124 89.1186 24.222C89.1217 24.247 89.1197 24.2723 89.1128 24.2965C89.1058 24.3207 89.0941 24.3433 89.0782 24.3628C89.0624 24.3823 89.0428 24.3984 89.0205 24.4101C88.9983 24.4218 88.974 24.4288 88.949 24.4308H88.28C87.8254 24.7111 87.4044 25.0431 87.0254 25.4202C86.4739 25.8719 85.8198 26.1797 85.1211 26.3165C84.193 26.4996 83.0408 25.8668 83.7609 24.8548C84.3242 24.0614 85.5276 23.4028 86.4557 23.1876Z" fill="url(#paint11_linear)"/>
<path d="M84.8491 31.466C84.9977 31.5377 85.1274 31.6434 85.228 31.7745C85.3286 31.9055 85.3972 32.0585 85.4284 32.2209C85.4334 32.2751 85.4234 32.3295 85.3996 32.3783C85.3132 32.5261 85.0988 32.4908 84.9291 32.4619C83.8249 32.2627 82.7752 33.1268 81.6518 33.1044C81.1378 33.091 80.649 32.878 80.2884 32.5101C79.9683 32.1663 79.6483 31.5174 79.8275 31.0355C80.0163 30.483 80.6564 30.4734 81.1557 30.4573C82.4604 30.4088 83.7488 30.7607 84.8491 31.466Z" fill="url(#paint12_linear)"/>
<path d="M92.1558 19.4225L96.5085 16.1169C96.5085 16.1169 97.5774 15.7571 97.9359 16.2069C98.2943 16.6566 97.8911 30.3609 97.8911 30.3609L92.5014 32.9084L92.1558 19.4225Z" fill="#9AA5FB"/>
<path d="M92.2197 19.4611L96.582 16.1555C96.582 16.1555 97.651 15.7957 98.0095 16.2454C98.3679 16.6952 97.9007 30.3802 97.9007 30.3802L92.575 32.9502L92.2197 19.4611Z" fill="url(#paint13_linear)"/>
<path d="M93.5095 19.3969L98.0095 16.2487C98.0095 16.2487 97.2061 15.6672 96.582 16.1587C95.9579 16.6502 92.2197 19.4611 92.2197 19.4611L93.5095 19.3969Z" fill="url(#paint14_linear)"/>
<path d="M91.9898 68.117C92.025 68.2039 92.076 68.2834 92.1402 68.3515C92.221 68.4188 92.3164 68.4661 92.4187 68.4896C92.681 68.5629 92.956 68.5778 93.2247 68.5334C93.4933 68.489 93.7491 68.3864 93.9741 68.2326C94.161 68.1132 94.3072 67.9395 94.3934 67.7347C94.4745 67.415 94.4532 67.0778 94.3326 66.7709L94.067 65.8458C94.065 65.8327 94.0595 65.8205 94.051 65.8104C94.0285 65.8104 93.9997 65.8104 93.9773 65.8104C93.206 66.273 92.2971 65.8104 91.561 66.1317C90.9401 66.4336 91.7626 67.6479 91.9898 68.117Z" fill="url(#paint15_linear)"/>
<path d="M92.8855 68.0527C92.6261 68.0686 92.3682 68.104 92.1141 68.1587C91.9878 68.1896 91.8715 68.2525 91.7763 68.3414C91.681 68.4302 91.61 68.5421 91.57 68.6662C91.5483 68.9108 91.6129 69.1553 91.7525 69.3569C91.9381 69.7007 92.1237 70.0444 92.3222 70.3817C92.429 70.6077 92.5992 70.7975 92.8119 70.9278C93.0275 71.0141 93.2643 71.0321 93.4904 70.9792C94.1706 70.8483 94.8319 70.6325 95.4587 70.3367C96.7389 69.7949 98.0095 69.2156 99.2705 68.5988C99.4786 68.496 99.709 68.3643 99.7506 68.1362C99.7613 68.0566 99.7526 67.9755 99.7253 67.9C99.6979 67.8245 99.6528 67.7567 99.5938 67.7025C99.4737 67.5961 99.3347 67.5133 99.1841 67.4584C98.2855 67.1128 97.3405 66.9038 96.3805 66.8384C96.0412 66.803 95.4715 66.6424 95.1546 66.7966C94.8378 66.9508 94.5337 67.3299 94.1945 67.5355C93.7995 67.7989 93.3533 67.9752 92.8855 68.0527Z" fill="#3E3E54"/>
<path d="M79.9268 32.8924C79.3694 33.2306 78.7483 33.4493 78.1025 33.5349L74.63 34.2384C73.8677 34.4311 73.0826 34.5176 72.2968 34.4954C71.5834 34.4172 70.8837 34.2433 70.2165 33.9782C67.5216 33.0145 63.2489 31.8805 61.1814 29.7795C59.6163 28.1733 60.0004 24.993 62.0231 24.1963C62.408 24.0466 62.8213 23.9852 63.2329 24.0164C64.9484 24.1256 66.1134 25.7093 67.432 26.8241C70.2613 29.2463 74.2107 29.6671 77.9297 29.9434H78.0065H78.2562C79.2163 30.014 80.4005 30.2646 80.663 31.1866C80.8262 31.8387 80.4613 32.5165 79.9268 32.8924Z" fill="#9AA5FB"/>
<path d="M83.0889 38.1704L92.5752 32.9534L93.5098 19.4096C93.5098 19.4096 92.0696 18.8121 91.9512 20.1838C91.8327 21.5556 90.8246 31.8643 90.8246 31.8643L82.6313 36.214C82.6313 36.214 81.4119 37.4508 83.0889 38.1704Z" fill="#9AA5FB"/>
<path d="M46.7691 87.2086C44.3108 91.0079 40.6259 93.8434 36.3322 95.2398L37.9645 91.7253C35.9161 94.2696 33.8518 96.8267 31.4258 99.0144C28.9998 101.202 26.1674 103.017 23.0116 103.833C22.6916 103.367 23.034 102.744 23.3733 102.291C25.6192 99.2903 28.1127 96.4845 30.8273 93.9034C24.5767 97.5559 18.3005 101.221 11.5762 103.894C15.8995 97.8729 21.0748 92.5171 26.9387 87.9957L22.8164 89.0622C27.6648 83.408 33.508 78.6973 40.0544 75.1651C42.7397 78.8562 44.8808 83.0678 46.7691 87.2086Z" fill="#9AA5FB"/>
<path d="M46.7691 87.2086C44.3108 91.0079 40.6259 93.8434 36.3322 95.2398L37.9645 91.7253C35.9161 94.2696 33.8518 96.8267 31.4258 99.0144C28.9998 101.202 26.1674 103.017 23.0116 103.833C22.6916 103.367 23.034 102.744 23.3733 102.291C25.6192 99.2903 28.1127 96.4845 30.8273 93.9034C24.5767 97.5559 18.3005 101.221 11.5762 103.894C15.8995 97.8729 21.0748 92.5171 26.9387 87.9957L22.8164 89.0622C27.6648 83.408 33.508 78.6973 40.0544 75.1651C42.7397 78.8562 44.8808 83.0678 46.7691 87.2086Z" fill="url(#paint16_linear)"/>
<path d="M33.7783 83.752C33.6278 83.9608 33.4774 84.2403 33.6086 84.4619C33.7095 84.5883 33.8509 84.6758 34.0087 84.7093L35.2409 85.1173C33.6538 86.5186 32.191 88.0556 30.869 89.7111C30.6481 89.9874 30.4337 90.4082 30.6865 90.6556C30.8065 90.7544 30.9571 90.8078 31.1122 90.8066C32.8245 90.9608 34.4216 90.0099 35.881 89.0975C35.6158 90.0652 35.1562 90.9683 34.5304 91.751C36.1818 91.4298 37.6765 90.572 39.0111 89.573C40.3457 88.5739 41.6035 87.4303 42.9798 86.4633L42.5253 87.6519C43.3675 87.0955 44.0937 86.3797 44.6632 85.5445C44.8005 85.395 44.8871 85.2057 44.9106 85.0037C44.9342 84.8018 44.8935 84.5975 44.7945 84.4202C44.108 82.5534 43.1256 80.8101 41.8852 79.2578C41.6721 78.9578 41.3997 78.7052 41.085 78.5157C40.0801 77.9856 37.9837 79.7107 37.1772 80.305C35.8711 81.268 34.7241 82.4312 33.7783 83.752Z" fill="#9AA5FB"/>
<path d="M33.7783 83.752C33.6278 83.9608 33.4774 84.2403 33.6086 84.4619C33.7095 84.5883 33.8509 84.6758 34.0087 84.7093L35.2409 85.1173C33.6538 86.5186 32.191 88.0556 30.869 89.7111C30.6481 89.9874 30.4337 90.4082 30.6865 90.6556C30.8065 90.7544 30.9571 90.8078 31.1122 90.8066C32.8245 90.9608 34.4216 90.0099 35.881 89.0975C35.6158 90.0652 35.1562 90.9683 34.5304 91.751C36.1818 91.4298 37.6765 90.572 39.0111 89.573C40.3457 88.5739 41.6035 87.4303 42.9798 86.4633L42.5253 87.6519C43.3675 87.0955 44.0937 86.3797 44.6632 85.5445C44.8005 85.395 44.8871 85.2057 44.9106 85.0037C44.9342 84.8018 44.8935 84.5975 44.7945 84.4202C44.108 82.5534 43.1256 80.8101 41.8852 79.2578C41.6721 78.9578 41.3997 78.7052 41.085 78.5157C40.0801 77.9856 37.9837 79.7107 37.1772 80.305C35.8711 81.268 34.7241 82.4312 33.7783 83.752Z" fill="url(#paint17_linear)"/>
<path d="M79.3541 31.1705C79.1618 31.246 78.9548 31.2757 78.7492 31.2573C76.6112 31.2573 74.4573 31.2251 72.3481 30.8493C70.239 30.4734 68.1586 29.7217 66.4944 28.3757C65.3198 27.4119 64.3916 26.2201 63.2138 25.2821C62.8938 25.0155 62.0616 24.6814 62.02 24.1963C62.4049 24.0466 62.8182 23.9852 63.2298 24.0164C64.9453 24.1256 66.1103 25.7093 67.4289 26.8241C70.2582 29.2463 74.2076 29.6671 77.9266 29.9434H78.0034C78.4741 29.9827 78.9312 30.1217 79.3445 30.3513C79.4726 30.4138 79.5721 30.523 79.6229 30.6565C79.6439 30.7602 79.6286 30.8679 79.5796 30.9615C79.5306 31.0552 79.451 31.129 79.3541 31.1705Z" fill="url(#paint18_linear)"/>
<path d="M135.273 24.5528L134.88 26.7437C133.775 30.7182 132.206 34.5474 130.204 38.1512C125.745 46.3526 117.587 57.0886 102.791 67.0633C79.5523 82.7593 59.1586 85.3743 51.6341 85.7726L49.0737 82.2036C107.925 64.7632 121.828 36.8533 123.447 36.622C125.067 36.3907 129.938 24.5303 129.938 24.5303L135.273 24.5528Z" fill="url(#paint19_linear)"/>
</g>
<defs>
<linearGradient id="paint0_linear" x1="26.4107" y1="67.725" x2="54.6521" y2="67.725" gradientUnits="userSpaceOnUse">
<stop stop-opacity="0"/>
<stop offset="0.99"/>
</linearGradient>
<linearGradient id="paint1_linear" x1="3445.25" y1="6313.56" x2="4708.35" y2="6313.56" gradientUnits="userSpaceOnUse">
<stop stop-opacity="0"/>
<stop offset="0.99"/>
</linearGradient>
<linearGradient id="paint2_linear" x1="4871.14" y1="559.489" x2="4539" y2="1508.65" gradientUnits="userSpaceOnUse">
<stop stop-opacity="0"/>
<stop offset="0.99"/>
</linearGradient>
<linearGradient id="paint3_linear" x1="2941.91" y1="1095.39" x2="3076.25" y2="1299.99" gradientUnits="userSpaceOnUse">
<stop stop-opacity="0"/>
<stop offset="0.99"/>
</linearGradient>
<linearGradient id="paint4_linear" x1="8004.96" y1="3593.45" x2="12026.8" y2="7173.72" gradientUnits="userSpaceOnUse">
<stop stop-opacity="0"/>
<stop offset="0.99"/>
</linearGradient>
<linearGradient id="paint5_linear" x1="7377.9" y1="1342.19" x2="7917.45" y2="1896.26" gradientUnits="userSpaceOnUse">
<stop stop-opacity="0"/>
<stop offset="0.99"/>
</linearGradient>
<linearGradient id="paint6_linear" x1="6998.54" y1="4173.73" x2="10339.4" y2="4173.73" gradientUnits="userSpaceOnUse">
<stop stop-opacity="0"/>
<stop offset="0.99"/>
</linearGradient>
<linearGradient id="paint7_linear" x1="4073.59" y1="2802.99" x2="613.161" y2="3008.44" gradientUnits="userSpaceOnUse">
<stop stop-opacity="0"/>
<stop offset="0.99"/>
</linearGradient>
<linearGradient id="paint8_linear" x1="63.1621" y1="20.4216" x2="66.3498" y2="20.4216" gradientUnits="userSpaceOnUse">
<stop stop-color="#E5C5D5"/>
<stop offset="0.42" stop-color="#EAD4D1"/>
<stop offset="1" stop-color="#F0E9CB"/>
</linearGradient>
<linearGradient id="paint9_linear" x1="1419.7" y1="522.069" x2="1542.44" y2="522.069" gradientUnits="userSpaceOnUse">
<stop stop-color="#E5C5D5"/>
<stop offset="0.42" stop-color="#EAD4D1"/>
<stop offset="1" stop-color="#F0E9CB"/>
</linearGradient>
<linearGradient id="paint10_linear" x1="2886.54" y1="373.152" x2="2865.3" y2="673.711" gradientUnits="userSpaceOnUse">
<stop stop-opacity="0"/>
<stop offset="0.99"/>
</linearGradient>
<linearGradient id="paint11_linear" x1="1649.92" y1="302.79" x2="1747.32" y2="302.79" gradientUnits="userSpaceOnUse">
<stop stop-color="#E5C5D5"/>
<stop offset="0.42" stop-color="#EAD4D1"/>
<stop offset="1" stop-color="#F0E9CB"/>
</linearGradient>
<linearGradient id="paint12_linear" x1="-6503.18" y1="-4623.53" x2="-6416.57" y2="-4577.19" gradientUnits="userSpaceOnUse">
<stop stop-color="#E5C5D5"/>
<stop offset="0.42" stop-color="#EAD4D1"/>
<stop offset="1" stop-color="#F0E9CB"/>
</linearGradient>
<linearGradient id="paint13_linear" x1="1971.23" y1="981.593" x2="1901.25" y2="2285.71" gradientUnits="userSpaceOnUse">
<stop stop-opacity="0"/>
<stop offset="0.99"/>
</linearGradient>
<linearGradient id="paint14_linear" x1="1912.46" y1="234.346" x2="1930.88" y2="269.162" gradientUnits="userSpaceOnUse">
<stop stop-opacity="0"/>
<stop offset="0.99"/>
</linearGradient>
<linearGradient id="paint15_linear" x1="1038.82" y1="666.376" x2="1069.06" y2="666.376" gradientUnits="userSpaceOnUse">
<stop stop-color="#E5C5D5"/>
<stop offset="0.42" stop-color="#EAD4D1"/>
<stop offset="1" stop-color="#F0E9CB"/>
</linearGradient>
<linearGradient id="paint16_linear" x1="59.584" y1="88.5257" x2="10.462" y2="90.2189" gradientUnits="userSpaceOnUse">
<stop offset="0.02" stop-color="white" stop-opacity="0"/>
<stop offset="0.58" stop-color="white" stop-opacity="0.39"/>
<stop offset="0.68" stop-color="white" stop-opacity="0.68"/>
<stop offset="1" stop-color="white"/>
</linearGradient>
<linearGradient id="paint17_linear" x1="3255.59" y1="3304.73" x2="1352.67" y2="4057.7" gradientUnits="userSpaceOnUse">
<stop offset="0.02" stop-color="white" stop-opacity="0"/>
<stop offset="0.58" stop-color="white" stop-opacity="0.39"/>
<stop offset="0.68" stop-color="white" stop-opacity="0.68"/>
<stop offset="1" stop-color="white"/>
</linearGradient>
<linearGradient id="paint18_linear" x1="4420.83" y1="597.299" x2="4322.05" y2="1169.74" gradientUnits="userSpaceOnUse">
<stop offset="0.02" stop-color="white" stop-opacity="0"/>
<stop offset="0.58" stop-color="white" stop-opacity="0.39"/>
<stop offset="0.68" stop-color="white" stop-opacity="0.68"/>
<stop offset="1" stop-color="white"/>
</linearGradient>
<linearGradient id="paint19_linear" x1="26326.2" y1="9609.56" x2="27216.3" y2="18737.4" gradientUnits="userSpaceOnUse">
<stop stop-opacity="0"/>
<stop offset="0.99"/>
</linearGradient>
<clipPath id="clip0">
<rect width="147" height="118" fill="white"/>
</clipPath>
</defs>
</svg>
