<svg width="144" height="112" viewBox="0 0 144 112" fill="none" xmlns="http://www.w3.org/2000/svg">
<g clip-path="url(#clip0)">
<path opacity="0.18" d="M142.297 92.3232C140.783 95.7596 138.602 98.8597 135.88 101.443C133.159 104.026 129.951 106.041 126.444 107.369C121.832 109.102 116.845 109.552 111.931 109.927C93.1346 111.356 74.2712 111.686 55.4365 110.918C40.6414 110.314 30.2418 104.854 17.0492 98.9064C15.2207 98.1354 13.4502 97.2332 11.7514 96.2067C4.33223 91.4628 0.798456 82.4196 0.112453 73.5554C0.0605708 72.8855 0.0288649 72.2185 0.00868832 71.5516C-0.057606 68.875 0.0922768 66.106 1.06075 63.5911C4.66659 54.1985 18.1013 51.0831 20.6839 41.3585C22.0184 36.3229 19.9575 30.7792 21.6149 25.8447C23.157 21.2596 27.5295 18.2885 31.8185 16.071C49.741 6.79681 71.3443 4.94024 90.587 11.0066C103.065 14.9363 115.577 23.5983 117.817 36.5077C119.096 43.8878 116.894 51.9868 120.293 58.6595C123.965 65.8779 133.082 69.2012 138.89 74.5255C141.262 76.6968 143.081 79.203 143.746 82.4398C144.43 85.7545 143.651 89.2193 142.297 92.3232Z" fill="#9AA5FB"/>
<path d="M142.296 92.3232C140.783 95.7596 138.602 98.8598 135.88 101.443C133.158 104.026 129.95 106.041 126.443 107.369C121.832 109.102 116.845 109.552 111.931 109.927C93.1344 111.356 74.2711 111.686 55.4364 110.918C40.6412 110.314 30.2417 104.854 17.0491 98.9064C15.2206 98.1355 13.45 97.2332 11.7513 96.2067C4.33209 91.4628 0.798307 82.4196 0.112305 73.5554C0.385089 73.4614 0.667313 73.3975 0.953955 73.3648C5.24868 72.7498 9.62699 72.1406 13.9246 72.8307C16.5937 73.2667 19.1618 74.1993 21.8223 74.6873C29.3164 76.079 36.825 73.8817 44.3422 74.3639C50.6978 74.771 56.9583 76.1367 63.3975 76.3302C70.1768 76.5381 76.9648 76.3013 83.7412 75.9923C97.2883 75.3716 110.931 74.3985 124.463 75.8942C126.34 76.0992 128.21 76.3533 130.101 76.1829C131.617 76.0414 133.093 75.6228 134.58 75.2849C136.008 74.9589 137.451 74.7064 138.904 74.5284C141.276 76.6997 143.095 79.206 143.761 82.4427C144.429 85.7545 143.651 89.2193 142.296 92.3232Z" fill="url(#paint0_linear)"/>
<path d="M27.0709 76.2695C27.2986 75.949 27.535 75.5592 27.4168 75.1839C27.3637 75.0541 27.2854 74.9362 27.1865 74.8371C27.0875 74.738 26.9698 74.6595 26.8403 74.6064C25.4712 73.9337 23.7475 74.6266 22.7675 75.796C21.7875 76.9654 21.3696 78.4928 20.9805 79.9711C21.0785 76.1829 21.1332 72.2041 19.3692 68.8519C19.0321 68.1251 18.5103 67.4998 17.856 67.0386C17.1786 66.6171 16.2563 66.5189 15.5991 66.9693C14.9419 67.4198 14.7344 68.2225 14.7344 68.9905C14.7344 70.258 15.3108 71.4448 15.674 72.6546C16.3139 74.7363 16.409 76.9394 16.6108 79.1107C16.9711 83.0086 17.3833 86.9614 18.4584 90.7265C18.418 90.5879 20.0235 89.5023 20.1878 89.1731C20.8277 87.9345 20.8421 86.1645 21.4532 84.8219C22.8655 81.7007 25.1109 79.0472 27.0709 76.2695Z" fill="#9AA5FB"/>
<path d="M27.0709 76.2695C27.2986 75.949 27.535 75.5592 27.4168 75.1839C27.3637 75.0541 27.2854 74.9362 27.1865 74.8371C27.0875 74.738 26.9698 74.6595 26.8403 74.6064C25.4712 73.9337 23.7475 74.6266 22.7675 75.796C21.7875 76.9654 21.3696 78.4928 20.9805 79.9711C21.0785 76.1829 21.1332 72.2041 19.3692 68.8519C19.0321 68.1251 18.5103 67.4998 17.856 67.0386C17.1786 66.6171 16.2563 66.5189 15.5991 66.9693C14.9419 67.4198 14.7344 68.2225 14.7344 68.9905C14.7344 70.258 15.3108 71.4448 15.674 72.6546C16.3139 74.7363 16.409 76.9394 16.6108 79.1107C16.9711 83.0086 17.3833 86.9614 18.4584 90.7265C18.418 90.5879 20.0235 89.5023 20.1878 89.1731C20.8277 87.9345 20.8421 86.1645 21.4532 84.8219C22.8655 81.7007 25.1109 79.0472 27.0709 76.2695Z" fill="url(#paint1_linear)"/>
<path d="M73.5924 0.392693C75.5236 -0.271398 77.6882 -0.0461848 79.5819 0.727627C81.1265 1.32214 82.4646 2.35457 83.4328 3.69872C83.9085 4.37294 84.237 5.14002 84.3969 5.94994C84.5568 6.75987 84.5445 7.59447 84.3609 8.39933C84.0727 9.47632 83.4414 10.5244 83.6403 11.6216C83.8132 12.586 84.6117 13.3136 85.4447 13.8276C86.2777 14.3415 87.2058 14.7198 87.935 15.3752C88.5647 15.96 89.0074 16.7185 89.2075 17.555C89.4075 18.3915 89.3559 19.2686 89.0591 20.0758C88.8228 20.685 88.4394 21.2943 88.5461 21.941C88.6527 22.5878 89.2551 23.07 89.8749 23.3125C90.4946 23.5551 91.169 23.6359 91.7887 23.89C92.3744 24.1242 92.8917 24.5026 93.2925 24.9903C93.6933 25.478 93.9648 26.0591 94.0818 26.6799C94.1988 27.3006 94.1575 27.9409 93.9617 28.5414C93.7659 29.1419 93.422 29.6832 92.9619 30.1151C92.1173 30.912 90.9586 31.2701 89.8374 31.5588C85.4885 32.6535 80.986 33.0021 76.5209 32.5896C73.0822 32.2691 69.6378 31.4953 66.2049 31.8938C64.0633 32.1421 61.9937 32.8437 59.8637 33.1238C57.7336 33.4038 55.3845 33.1988 53.6983 31.8504C52.8522 31.1233 52.1695 30.2248 51.6951 29.2143C50.8534 27.5541 50.3259 25.6657 50.6344 23.8323C50.9428 21.9988 52.2283 20.2577 54.0298 19.79C54.8311 19.585 55.6756 19.6398 56.5028 19.5965C58.1388 19.5058 59.7297 19.0258 61.1434 18.1961C61.57 17.9449 62.0082 17.6187 62.1235 17.1422C62.3137 16.3511 61.5672 15.6986 61.1694 14.9825C60.3739 13.5619 61.253 11.4975 62.8267 11.0875C63.7491 10.8478 64.879 11.0586 65.5275 10.3598C66.3404 9.49364 65.9282 8.11349 66.8044 7.20108C67.5884 6.38685 68.6837 6.08079 69.3121 5.06732C70.5428 3.06927 71.102 1.25313 73.5924 0.392693Z" fill="#3F3D56"/>
<path d="M73.5924 0.392693C75.5236 -0.271398 77.6882 -0.0461848 79.5819 0.727627C81.1265 1.32214 82.4646 2.35457 83.4328 3.69872C83.9085 4.37294 84.237 5.14002 84.3969 5.94994C84.5568 6.75987 84.5445 7.59447 84.3609 8.39933C84.0727 9.47632 83.4414 10.5244 83.6403 11.6216C83.8132 12.586 84.6117 13.3136 85.4447 13.8276C86.2777 14.3415 87.2058 14.7198 87.935 15.3752C88.5647 15.96 89.0074 16.7185 89.2075 17.555C89.4075 18.3915 89.3559 19.2686 89.0591 20.0758C88.8228 20.685 88.4394 21.2943 88.5461 21.941C88.6527 22.5878 89.2551 23.07 89.8749 23.3125C90.4946 23.5551 91.169 23.6359 91.7887 23.89C92.3744 24.1242 92.8917 24.5026 93.2925 24.9903C93.6933 25.478 93.9648 26.0591 94.0818 26.6799C94.1988 27.3006 94.1575 27.9409 93.9617 28.5414C93.7659 29.1419 93.422 29.6832 92.9619 30.1151C92.1173 30.912 90.9586 31.2701 89.8374 31.5588C85.4885 32.6535 80.986 33.0021 76.5209 32.5896C73.0822 32.2691 69.6378 31.4953 66.2049 31.8938C64.0633 32.1421 61.9937 32.8437 59.8637 33.1238C57.7336 33.4038 55.3845 33.1988 53.6983 31.8504C52.8522 31.1233 52.1695 30.2248 51.6951 29.2143C50.8534 27.5541 50.3259 25.6657 50.6344 23.8323C50.9428 21.9988 52.2283 20.2577 54.0298 19.79C54.8311 19.585 55.6756 19.6398 56.5028 19.5965C58.1388 19.5058 59.7297 19.0258 61.1434 18.1961C61.57 17.9449 62.0082 17.6187 62.1235 17.1422C62.3137 16.3511 61.5672 15.6986 61.1694 14.9825C60.3739 13.5619 61.253 11.4975 62.8267 11.0875C63.7491 10.8478 64.879 11.0586 65.5275 10.3598C66.3404 9.49364 65.9282 8.11349 66.8044 7.20108C67.5884 6.38685 68.6837 6.08079 69.3121 5.06732C70.5428 3.06927 71.102 1.25313 73.5924 0.392693Z" fill="url(#paint2_linear)"/>
<path d="M16.2823 91.8122C21.2919 98.635 30.2214 101.398 38.6062 102.475C124.114 113.447 136.045 92.4879 136.434 92.0345C137.84 90.4032 117.076 72.0252 55.9609 76.1743C51.6864 76.463 13.5671 88.1135 16.2823 91.8122Z" fill="#9AA5FB"/>
<path d="M38.2804 81.2589C37.6765 81.5356 37.1491 81.9558 36.7441 82.4831C36.3781 83.0346 36.2974 83.8315 36.7268 84.3339C37.0324 84.6949 37.5195 84.8335 37.9807 84.9489C44.9052 86.6555 52.136 86.6842 59.0738 85.0327C61.8812 84.3599 64.6339 83.4129 67.4961 83.0346C69.802 82.7315 72.1511 82.8036 74.4829 82.9076C83.0637 83.2887 91.6272 84.0625 100.162 85.0327C105.004 85.5842 109.884 86.1876 114.735 85.7343C115.216 85.6881 115.738 85.613 116.07 85.2608C116.836 84.4494 115.905 83.127 114.894 82.6622C113.398 81.9663 111.363 81.6747 110.858 80.0982C110.812 79.8317 110.714 79.5767 110.57 79.3475C110.309 79.1055 109.966 78.9714 109.61 78.9721C90.0274 76.691 70.2684 76.339 50.6169 77.9211C46.0397 78.2849 42.3215 79.0645 38.2804 81.2589Z" fill="url(#paint3_linear)"/>
<path d="M34.9228 62.1128C34.9228 62.1128 38.4825 55.3073 54.0156 60.6547C69.5486 66.0021 91.7169 75.5679 91.7169 75.5679L89.9385 82.3763C89.9385 82.3763 53.3699 77.999 48.1903 75.0799C43.0107 72.1608 33.9514 71.8403 34.9228 62.1128Z" fill="#9AA5FB"/>
<path d="M34.9228 62.1128C34.9228 62.1128 38.4825 55.3073 54.0156 60.6547C69.5486 66.0021 91.7169 75.5679 91.7169 75.5679L89.9385 82.3763C89.9385 82.3763 53.3699 77.999 48.1903 75.0799C43.0107 72.1608 33.9514 71.8403 34.9228 62.1128Z" fill="url(#paint4_linear)"/>
<path d="M60.6504 76.2146C60.6504 76.2146 87.6725 63.1003 100.79 61.6277C113.908 60.1552 114.868 63.0858 115.355 63.7355C115.842 64.3852 120.693 72.8105 103.056 76.8643C85.4185 80.9181 60.1777 83.3464 60.1777 83.3464C60.1777 83.3464 58.8691 81.7266 60.6504 76.2146Z" fill="#9AA5FB"/>
<path d="M60.6504 76.2146C60.6504 76.2146 87.6725 63.1003 100.79 61.6277C113.908 60.1552 114.868 63.0858 115.355 63.7355C115.842 64.3852 120.693 72.8105 103.056 76.8643C85.4185 80.9181 60.1777 83.3464 60.1777 83.3464C60.1777 83.3464 58.8691 81.7266 60.6504 76.2146Z" fill="url(#paint5_linear)"/>
<path d="M88.5176 0.921053L88.8894 0.548584" stroke="#3CB6D5" stroke-width="3.43" stroke-miterlimit="10"/>
<path d="M71.6789 22.4694C70.5591 23.1597 69.3661 23.7233 68.1221 24.1498C68.7814 25.2297 69.6786 26.1443 70.745 26.8235C72.2986 27.7648 74.1722 28.0218 75.988 28.0391C77.0147 28.08 78.0413 27.9562 79.0289 27.6724C80.3519 27.2451 81.4847 26.376 82.5425 25.4722C83.0152 25.0622 83.5283 24.5165 83.4072 23.9044C82.4394 23.9612 81.4772 23.7215 80.6488 23.217C79.8203 22.7126 79.1648 21.9674 78.7695 21.0806C78.6105 20.6758 78.4814 20.2599 78.3833 19.8361C78.3372 19.6571 78.1613 18.5253 78.0374 18.3924C77.8866 18.2467 77.7036 18.1386 77.5033 18.0769C77.303 18.0152 77.091 18.0017 76.8845 18.0373C75.9563 18.2048 74.6679 17.8871 74.0021 18.6465C73.2239 19.5156 72.7194 21.8111 71.6789 22.4694Z" fill="url(#paint6_linear)"/>
<path d="M74.6591 21.7764C75.1417 22.0918 75.717 22.2333 76.2905 22.1778C76.867 22.1114 77.3167 20.7341 77.5934 20.223C77.675 20.063 77.7444 19.897 77.8009 19.7264C78.047 19.1201 78.1977 18.4792 78.2477 17.8265C78.2477 18.0084 77.0457 18.199 76.8901 18.2221C76.3885 18.2972 75.8784 18.3232 75.374 18.3751C74.6735 18.4473 73.2727 18.4791 73.584 19.4925C73.7397 20.0094 74.2066 21.4935 74.6591 21.7764Z" fill="url(#paint7_linear)"/>
<path d="M68.1246 24.1499C68.1246 24.1499 64.2104 24.5888 63.1583 26.7774C62.1062 28.966 46.7288 48.9032 46.6539 50.1996C46.5789 51.496 53.9347 58.9541 53.9347 58.9541L57.333 51.6577L56.281 49.3912L62.8355 40.3133L62.5761 63.7586L76.3624 69.2735L88.9728 64.417L89.4397 40.2325C89.4397 40.2325 94.9421 48.011 95.1035 49.9571C95.265 51.9032 94.4579 53.0379 94.4579 53.0379L99.1504 59.8434C99.1504 59.8434 106.431 52.2265 105.947 48.6607C105.463 45.0948 90.4139 26.9391 88.9728 26.1422C87.5316 25.3453 83.404 23.916 83.404 23.916L68.1246 24.1499Z" fill="#9AA5FB"/>
<path d="M60.1259 62.9674C58.9515 63.0953 57.7879 63.3076 56.644 63.6027C56.252 63.7037 55.8052 63.8654 55.6813 64.2523C55.5112 64.7778 56.0646 65.2456 56.569 65.4708C59.6964 66.8654 63.357 65.7075 66.7409 66.2504C69.6406 66.7181 72.1914 68.4101 75.0018 69.2734C75.1352 69.3242 75.2769 69.3496 75.4197 69.3485C75.7356 69.3541 76.0512 69.329 76.3622 69.2734C77.7054 68.8086 78.8353 68.2571 80.3111 68.0896L85.8625 67.4631C88.1828 67.2003 90.088 66.0742 92.3968 65.7306C93.3797 65.5834 94.4145 65.6758 95.3282 65.2658C95.6625 65.1128 96.0027 64.723 95.7894 64.4256C95.6984 64.3226 95.5774 64.2509 95.4435 64.2206C94.4433 63.8943 93.3711 63.9174 92.3219 63.9318C81.6081 64.1224 70.782 61.8125 60.1259 62.9674Z" fill="#9AA5FB"/>
<path d="M60.1259 62.9674C58.9515 63.0953 57.7879 63.3076 56.644 63.6027C56.252 63.7037 55.8052 63.8654 55.6813 64.2523C55.5112 64.7778 56.0646 65.2456 56.569 65.4708C59.6964 66.8654 63.357 65.7075 66.7409 66.2504C69.6406 66.7181 72.1914 68.4101 75.0018 69.2734C75.1352 69.3242 75.2769 69.3496 75.4197 69.3485C75.7356 69.3541 76.0512 69.329 76.3622 69.2734C77.7054 68.8086 78.8353 68.2571 80.3111 68.0896L85.8625 67.4631C88.1828 67.2003 90.088 66.0742 92.3968 65.7306C93.3797 65.5834 94.4145 65.6758 95.3282 65.2658C95.6625 65.1128 96.0027 64.723 95.7894 64.4256C95.6984 64.3226 95.5774 64.2509 95.4435 64.2206C94.4433 63.8943 93.3711 63.9174 92.3219 63.9318C81.6081 64.1224 70.782 61.8125 60.1259 62.9674Z" fill="url(#paint8_linear)"/>
<path d="M89.29 36.141L89.561 40.1111L94.461 47.7308C94.8801 48.3833 95.1333 49.1286 95.1987 49.9017C95.264 50.6747 95.1394 51.4521 94.8357 52.1658L94.4639 53.032L96.9917 55.2062L99.508 49.6394L89.29 36.141Z" fill="url(#paint9_linear)"/>
<path d="M63.2045 55.6509C63.7035 55.8254 64.1758 56.0683 64.6082 56.3727C65.7035 57.2129 66.0638 58.6999 66.1532 60.0801C66.1887 60.3344 66.1558 60.5935 66.0581 60.8308C65.9427 61.0074 65.7812 61.1489 65.5911 61.2401C65.4011 61.3312 65.1897 61.3684 64.98 61.3476C63.9655 61.3476 63.0604 60.6604 62.0487 60.5623C61.5299 60.5103 60.9995 60.6143 60.4893 60.5103C59.2903 60.2649 58.6216 59.0291 57.8952 58.0503C57.2245 57.1669 56.3897 56.4217 55.4365 55.8559C53.5774 54.7558 54.5718 52.6451 56.5895 53.0552C58.8204 53.5142 61.0802 54.7876 63.2045 55.6509Z" fill="url(#paint10_linear)"/>
<path d="M89.0274 55.059C88.5601 55.1408 88.1099 55.3009 87.6958 55.5325C87.102 55.9108 86.7359 56.5547 86.2546 57.0571C85.8453 57.47 85.3207 57.8309 85.1737 58.3939C85.0976 58.7407 85.1413 59.1031 85.2976 59.4218C85.5406 59.9251 85.9481 60.3301 86.4524 60.5696C86.9568 60.8091 87.5277 60.8687 88.0705 60.7385C88.5143 60.6172 88.915 60.3689 89.356 60.2447C90.7251 59.8549 92.3306 60.6605 93.5499 59.93C93.9351 59.6577 94.278 59.3298 94.5673 58.957C95.223 58.2286 95.9872 57.6062 96.8329 57.1119C97.0468 57.0125 97.2344 56.8642 97.3805 56.6788C97.6688 56.2226 97.3546 55.6278 97.0087 55.2121C95.997 53.9994 95.4147 53.5749 93.89 53.9243C92.2585 54.2939 90.6444 54.6808 89.0274 55.059Z" fill="url(#paint11_linear)"/>
<path d="M57.0591 77.7132C54.341 77.9846 51.6172 76.9769 48.8962 77.2339C47.9151 77.3389 46.952 77.5719 46.0311 77.9268C45.5839 78.0639 45.1711 78.2952 44.8205 78.6054C44.2153 79.203 44.0971 80.153 44.2441 80.9903C44.5323 82.6246 45.7314 84.0191 47.2129 84.7612C48.1283 85.2312 49.1564 85.4362 50.1817 85.3531C50.6689 85.2942 51.1507 85.1977 51.6229 85.0644C52.6862 84.8413 53.7208 84.4984 54.7071 84.0422C55.3296 83.7246 55.9032 83.3204 56.5287 83.0143C57.4165 82.5812 58.3936 82.3589 59.267 81.8998C59.3349 81.8705 59.3965 81.8283 59.4485 81.7757C59.5025 81.7081 59.5426 81.6306 59.5667 81.5476C60.0013 80.3219 60.2131 79.0281 60.1922 77.7276C60.1922 77.5428 60.2527 77.1501 60.0625 77.0491C59.9155 76.974 59.2814 77.2627 59.1113 77.3089C58.4394 77.4996 57.753 77.6348 57.0591 77.7132Z" fill="url(#paint12_linear)"/>
<path d="M94.9364 81.5188C96.245 81.8508 97.4325 82.5496 98.7296 82.9163C99.8439 83.2026 100.992 83.3356 102.142 83.3118C103.872 83.3118 105.69 83.179 107.189 82.2984C107.431 82.1707 107.642 81.9925 107.809 81.7757C108.195 81.2243 108.025 80.462 107.769 79.8383C107.325 78.744 106.596 77.6786 105.497 77.2397C104.2 76.7344 102.756 77.2397 101.407 77.566C98.0868 78.4004 94.5962 78.2734 91.2383 78.9375C91.0589 78.934 90.885 78.9993 90.7521 79.1201C90.6192 79.2408 90.5374 79.4079 90.5235 79.5871C90.4284 79.9914 90.1805 80.6583 90.3332 81.0741C90.5091 81.5592 90.9875 81.3859 91.4084 81.3628C92.5848 81.2181 93.7772 81.2708 94.9364 81.5188Z" fill="url(#paint13_linear)"/>
<path d="M97.6628 79.9826C97.5444 80.2168 97.4055 80.44 97.2477 80.6496C97.0091 80.9929 96.9064 81.4127 96.9595 81.8276C97.0266 82.0717 97.142 82.2998 97.299 82.4982C97.456 82.6967 97.6513 82.8614 97.8732 82.9826C99.1357 83.8084 100.712 83.9614 102.22 84.0134C103.027 84.0631 103.838 84.0273 104.638 83.9065C105.209 83.7941 105.771 83.6437 106.321 83.4561C106.88 83.3185 107.406 83.0722 107.869 82.7314C108.223 82.4171 108.494 82.0205 108.659 81.5764C108.882 81.0703 108.942 80.5073 108.832 79.9653C108.708 79.5504 108.502 79.1646 108.227 78.8306C107.944 78.4513 107.635 78.0915 107.304 77.7536C107.062 77.4834 106.768 77.2653 106.44 77.1126C106.044 76.9855 105.627 76.9412 105.215 76.9827C102.846 77.0403 100.485 77.2884 98.1557 77.7247C97.9735 77.7459 97.7999 77.8135 97.6512 77.9211C97.3486 78.1838 97.6512 78.5332 97.7089 78.8363C97.8118 79.2141 97.7957 79.6144 97.6628 79.9826Z" fill="#9AA5FB"/>
<path d="M55.8831 80.9326C56.154 81.1203 56.4596 81.2502 56.719 81.4523C56.8553 81.545 56.9669 81.6699 57.0437 81.8159C57.1206 81.9619 57.1606 82.1246 57.16 82.2897C57.1225 82.6881 56.7507 82.9624 56.4106 83.1559C54.8464 84.1034 53.1531 84.8182 51.3837 85.2781C50.6115 85.5103 49.8052 85.608 49 85.5668C48.3425 85.4885 47.7004 85.3123 47.0948 85.0442C46.0312 84.6053 44.9993 84.0134 44.2845 83.1126C43.5696 82.2117 43.2237 80.9557 43.6302 79.8787C43.9732 78.9663 44.7831 78.3224 45.5556 77.7363C45.9498 77.4062 46.3946 77.142 46.8728 76.9538C47.3414 76.822 47.8276 76.7635 48.314 76.7806C49.5909 76.7604 50.8649 76.7633 52.1418 76.7633C53.0065 76.7633 54.7215 76.7488 54.9204 77.8778C55.0126 78.3946 54.7936 78.9143 54.9204 79.4514C55.0444 80.0486 55.388 80.5773 55.8831 80.9326Z" fill="#9AA5FB"/>
<path d="M97.6628 79.9826C97.5444 80.2168 97.4055 80.44 97.2477 80.6496C97.0091 80.9929 96.9064 81.4127 96.9595 81.8276C97.0266 82.0717 97.142 82.2998 97.299 82.4982C97.456 82.6967 97.6513 82.8614 97.8732 82.9826C99.1357 83.8084 100.712 83.9614 102.22 84.0134C103.027 84.0631 103.838 84.0273 104.638 83.9065C105.209 83.7941 105.771 83.6437 106.321 83.4561C106.88 83.3185 107.406 83.0722 107.869 82.7314C108.223 82.4171 108.494 82.0205 108.659 81.5764C108.882 81.0703 108.942 80.5073 108.832 79.9653C108.708 79.5504 108.502 79.1646 108.227 78.8306C107.944 78.4513 107.635 78.0915 107.304 77.7536C107.062 77.4834 106.768 77.2653 106.44 77.1126C106.044 76.9855 105.627 76.9412 105.215 76.9827C102.846 77.0403 100.485 77.2884 98.1557 77.7247C97.9735 77.7459 97.7999 77.8135 97.6512 77.9211C97.3486 78.1838 97.6512 78.5332 97.7089 78.8363C97.8118 79.2141 97.7957 79.6144 97.6628 79.9826Z" fill="url(#paint14_linear)"/>
<path d="M55.8831 80.9326C56.154 81.1203 56.4596 81.2502 56.719 81.4523C56.8553 81.545 56.9669 81.6699 57.0437 81.8159C57.1206 81.9619 57.1606 82.1246 57.16 82.2897C57.1225 82.6881 56.7507 82.9624 56.4106 83.1559C54.8464 84.1034 53.1531 84.8182 51.3837 85.2781C50.6115 85.5103 49.8052 85.608 49 85.5668C48.3425 85.4885 47.7004 85.3123 47.0948 85.0442C46.0312 84.6053 44.9993 84.0134 44.2845 83.1126C43.5696 82.2117 43.2237 80.9557 43.6302 79.8787C43.9732 78.9663 44.7831 78.3224 45.5556 77.7363C45.9498 77.4062 46.3946 77.142 46.8728 76.9538C47.3414 76.822 47.8276 76.7635 48.314 76.7806C49.5909 76.7604 50.8649 76.7633 52.1418 76.7633C53.0065 76.7633 54.7215 76.7488 54.9204 77.8778C55.0126 78.3946 54.7936 78.9143 54.9204 79.4514C55.0444 80.0486 55.388 80.5773 55.8831 80.9326Z" fill="url(#paint15_linear)"/>
<path d="M70.6008 10.0018C70.6008 10.0018 70.3586 20.2144 75.6997 19.6456C81.0407 19.0767 81.2828 9.68418 81.2828 9.68418C81.2828 9.68418 79.098 4.17222 74.4862 4.98356C69.8744 5.79491 70.6008 10.0018 70.6008 10.0018Z" fill="url(#paint16_linear)"/>
<path d="M73.2785 5.56103C74.0106 8.62741 77.1812 10.9026 80.3143 10.6168C80.8533 10.5648 81.4673 10.3858 81.6748 9.88629C81.7522 9.65704 81.7768 9.41324 81.7469 9.17312C81.678 7.60763 81.165 6.09424 80.2682 4.81032C79.8168 4.17619 79.2384 3.64326 78.5699 3.24555C77.9014 2.84784 77.1575 2.59407 76.3857 2.50043C74.1489 2.28966 72.0621 3.68136 70.5431 5.35025C69.5948 6.39836 66.7269 11.1741 69.8542 11.3242C70.8544 11.3704 71.8229 10.6428 72.3042 9.817C73.0652 8.49747 72.408 6.79682 73.2785 5.56103Z" fill="#3F3D56"/>
<path d="M63.1066 36.3431L62.8356 40.3133L56.284 49.3882L57.3332 51.6577L56.5722 53.0552L52.8828 49.8473L63.1066 36.3431Z" fill="url(#paint17_linear)"/>
<path d="M68.4243 25.0045C68.6405 25.582 69.364 25.7437 69.9664 25.8909C71.1193 26.1797 72.2089 26.7572 73.3705 27.0459C74.5847 27.3108 75.8262 27.429 77.0685 27.3982C78.6365 27.4241 80.2074 27.4501 81.7725 27.3375C83.8709 27.1903 85.9722 26.8034 88.0647 27.0141C88.206 26.9102 88.0417 26.6994 87.8889 26.6128C86.7994 25.9949 85.658 25.4781 84.531 24.9323C83.5971 24.4761 82.8015 24.531 81.7639 24.5916C78.9248 24.7533 76.0799 24.5916 73.2379 24.6205C71.626 24.6285 70.0171 24.7568 68.4243 25.0045Z" fill="url(#paint18_linear)"/>
<path d="M93.478 39.2391H59.9302V64.7807H93.478V39.2391Z" fill="#9AA5FB"/>
<path d="M93.6279 39.2391H60.0801V41.0264H93.6279V39.2391Z" fill="url(#paint19_linear)"/>
<path d="M93.6279 41.0612H60.0801V64.6191H93.6279V41.0612Z" fill="url(#paint20_linear)"/>
</g>
<defs>
<linearGradient id="paint0_linear" x1="70.1826" y1="98.5859" x2="73.526" y2="64.9003" gradientUnits="userSpaceOnUse">
<stop stop-color="white" stop-opacity="0"/>
<stop offset="0.76" stop-color="white" stop-opacity="0.76"/>
<stop offset="0.99" stop-color="white"/>
</linearGradient>
<linearGradient id="paint1_linear" x1="20.6749" y1="78.3022" x2="19.2577" y2="99.6481" gradientUnits="userSpaceOnUse">
<stop stop-opacity="0"/>
<stop offset="0.99"/>
</linearGradient>
<linearGradient id="paint2_linear" x1="11649.4" y1="2586.43" x2="11395.3" y2="5953.55" gradientUnits="userSpaceOnUse">
<stop stop-opacity="0"/>
<stop offset="0.99"/>
</linearGradient>
<linearGradient id="paint3_linear" x1="21758.3" y1="2801.1" x2="21773.7" y2="7372.52" gradientUnits="userSpaceOnUse">
<stop stop-opacity="0"/>
<stop offset="0.99"/>
</linearGradient>
<linearGradient id="paint4_linear" x1="12688.7" y1="7408.92" x2="13981.3" y2="2804.62" gradientUnits="userSpaceOnUse">
<stop stop-opacity="0"/>
<stop offset="0.99"/>
</linearGradient>
<linearGradient id="paint5_linear" x1="17876.5" y1="7174.96" x2="17669.7" y2="2536.59" gradientUnits="userSpaceOnUse">
<stop stop-opacity="0"/>
<stop offset="0.99"/>
</linearGradient>
<linearGradient id="paint6_linear" x1="68.125" y1="23.0266" x2="83.4188" y2="23.0266" gradientUnits="userSpaceOnUse">
<stop stop-color="#ECC4D7"/>
<stop offset="0.42" stop-color="#EFD4D1"/>
<stop offset="1" stop-color="#F2EAC9"/>
</linearGradient>
<linearGradient id="paint7_linear" x1="1333.43" y1="513.86" x2="1596.81" y2="1023.91" gradientUnits="userSpaceOnUse">
<stop stop-color="#ECC4D7"/>
<stop offset="0.42" stop-color="#EFD4D1"/>
<stop offset="1" stop-color="#F2EAC9"/>
</linearGradient>
<linearGradient id="paint8_linear" x1="9686.96" y1="1542.36" x2="9854.21" y2="3398.59" gradientUnits="userSpaceOnUse">
<stop stop-opacity="0"/>
<stop offset="0.99"/>
</linearGradient>
<linearGradient id="paint9_linear" x1="-51533.5" y1="4309.61" x2="-54394.8" y2="3768.23" gradientUnits="userSpaceOnUse">
<stop stop-opacity="0"/>
<stop offset="0.99"/>
</linearGradient>
<linearGradient id="paint10_linear" x1="2364.63" y1="2169.61" x2="2840.96" y2="2169.61" gradientUnits="userSpaceOnUse">
<stop stop-color="#ECC4D7"/>
<stop offset="0.42" stop-color="#EFD4D1"/>
<stop offset="1" stop-color="#F2EAC9"/>
</linearGradient>
<linearGradient id="paint11_linear" x1="3837.01" y1="1831.31" x2="4366.85" y2="1831.31" gradientUnits="userSpaceOnUse">
<stop stop-color="#ECC4D7"/>
<stop offset="0.42" stop-color="#EFD4D1"/>
<stop offset="1" stop-color="#F2EAC9"/>
</linearGradient>
<linearGradient id="paint12_linear" x1="2632.58" y1="2883.42" x2="3522.5" y2="2883.42" gradientUnits="userSpaceOnUse">
<stop stop-color="#ECC4D7"/>
<stop offset="0.42" stop-color="#EFD4D1"/>
<stop offset="1" stop-color="#F2EAC9"/>
</linearGradient>
<linearGradient id="paint13_linear" x1="5798.25" y1="2171.73" x2="6891.55" y2="2171.73" gradientUnits="userSpaceOnUse">
<stop stop-color="#ECC4D7"/>
<stop offset="0.42" stop-color="#EFD4D1"/>
<stop offset="1" stop-color="#F2EAC9"/>
</linearGradient>
<linearGradient id="paint14_linear" x1="4211.43" y1="2439.7" x2="4706.45" y2="2439.7" gradientUnits="userSpaceOnUse">
<stop stop-opacity="0"/>
<stop offset="0.99"/>
</linearGradient>
<linearGradient id="paint15_linear" x1="2223.46" y1="3043.26" x2="2875.03" y2="3043.26" gradientUnits="userSpaceOnUse">
<stop stop-opacity="0"/>
<stop offset="0.99"/>
</linearGradient>
<linearGradient id="paint16_linear" x1="2784.95" y1="1452.01" x2="3183.87" y2="1452.01" gradientUnits="userSpaceOnUse">
<stop stop-color="#ECC4D7"/>
<stop offset="0.42" stop-color="#EFD4D1"/>
<stop offset="1" stop-color="#F2EAC9"/>
</linearGradient>
<linearGradient id="paint17_linear" x1="1839.89" y1="2817.06" x2="4673.07" y2="2205.15" gradientUnits="userSpaceOnUse">
<stop stop-opacity="0"/>
<stop offset="0.99"/>
</linearGradient>
<linearGradient id="paint18_linear" x1="5399.07" y1="466.868" x2="5468.04" y2="18.3905" gradientUnits="userSpaceOnUse">
<stop stop-color="white" stop-opacity="0"/>
<stop offset="0.76" stop-color="white" stop-opacity="0.76"/>
<stop offset="0.99" stop-color="white"/>
</linearGradient>
<linearGradient id="paint19_linear" x1="8989.84" y1="306.668" x2="8989.94" y2="263.371" gradientUnits="userSpaceOnUse">
<stop stop-color="white" stop-opacity="0"/>
<stop offset="0.76" stop-color="white" stop-opacity="0.76"/>
<stop offset="0.99" stop-color="white"/>
</linearGradient>
<linearGradient id="paint20_linear" x1="8069.29" y1="5625.24" x2="9238.73" y2="2399.75" gradientUnits="userSpaceOnUse">
<stop stop-color="white" stop-opacity="0"/>
<stop offset="0.76" stop-color="white" stop-opacity="0.76"/>
<stop offset="0.99" stop-color="white"/>
</linearGradient>
<clipPath id="clip0">
<rect width="144" height="111.319" fill="white"/>
</clipPath>
</defs>
</svg>
