<svg width="133" height="125" viewBox="0 0 133 125" fill="none" xmlns="http://www.w3.org/2000/svg">
<path opacity="0.18" d="M132.983 52.5694C132.864 48.7387 132.009 44.7793 129.6 41.7988C126.589 38.0731 121.745 36.5083 117.574 34.1645C110.815 30.3287 105.609 24.2452 102.859 16.9688C102.068 14.8452 101.469 12.5962 100.153 10.7605C96.5268 5.76129 88.9562 5.72742 83.1852 7.92218C77.4142 10.1169 72.2826 13.9849 66.2714 15.3329C59.3503 16.8808 52.1856 14.9129 45.1055 14.5505C38.0254 14.1881 29.7917 16.2203 26.7472 22.6454C24.8258 26.7098 25.4889 31.6311 23.6588 35.7462C19.5318 45.0469 5.15846 46.0325 1.03826 55.323C-2.05696 62.2934 2.3068 70.368 7.71921 75.7364C13.1316 81.1047 19.8972 85.4739 23.3104 92.2818C27.0314 99.6756 26.9806 109.914 34.1961 113.958C41.4115 118.003 51.3129 112.712 58.4843 116.868C60.9368 118.29 62.706 120.648 65.0029 122.311C73.0877 128.163 84.7853 123.598 91.8857 116.58C100.823 107.743 110.345 97.3995 118.156 87.6213C126.099 77.6771 133.396 65.7685 132.983 52.5694Z" fill="#9AA5FB"/>
<path opacity="0.18" d="M66.6136 114.257C66.8984 113.971 67.0956 113.611 67.1819 113.217C67.192 112.72 67.0294 112.235 66.7219 111.845C65.586 110.031 64.2628 108.342 62.7742 106.805C62.4428 106.503 62.1639 106.149 61.9488 105.755C61.6308 105.078 61.6985 104.19 61.1505 103.672C58.5018 104.187 55.7753 105.146 54.0467 107.232C53.7189 107.588 53.4953 108.027 53.4006 108.502C53.316 109.142 53.6204 109.765 53.9249 110.338C54.4346 111.302 54.9611 112.259 55.5046 113.21C55.9086 114 56.426 114.727 57.0404 115.367C57.4935 115.765 57.969 116.136 58.4646 116.478C59.1783 117.024 59.7669 117.887 60.5145 118.362C61.2621 118.836 61.8372 118.304 62.4799 117.887C64.0295 116.888 65.4225 115.665 66.6136 114.257Z" fill="#9AA5FB"/>
<path d="M63.0579 5.94417L62.3373 5.63257L49.1006 10.3574L43.4243 27.8952L43.9723 27.9088L63.0579 5.94417Z" fill="#9AA5FB"/>
<path d="M47.7849 79.0657C47.5622 78.9062 47.2898 78.8317 47.017 78.8557C46.835 78.9093 46.6697 79.0084 46.5366 79.1436C44.1416 81.1972 41.906 83.43 39.8489 85.8228C39.7348 85.9373 39.648 86.0763 39.5952 86.2292C39.5758 86.3964 39.6047 86.5657 39.6785 86.7169C39.7522 86.8682 39.8677 86.9952 40.0113 87.0827C41.0261 87.8482 42.4672 87.5671 43.6478 87.1064C44.6688 86.7278 45.6268 86.1968 46.4893 85.5315C46.929 85.1928 47.3316 84.7864 47.7341 84.3935C48.5967 83.5501 49.5168 82.6458 49.9667 81.4976C50.1968 80.9083 50.261 80.6915 49.8281 80.2817C49.3003 79.777 48.4242 79.4248 47.7849 79.0657Z" fill="#3E3E54"/>
<path d="M49.7945 90.8863C49.4041 91.4475 49.105 92.0671 48.9082 92.722C48.8444 92.9225 48.8444 93.1379 48.9082 93.3385C48.9775 93.4868 49.0835 93.615 49.216 93.711C50.0786 94.3884 51.3235 94.4426 52.3586 94.0497C53.375 93.6129 54.2828 92.9572 55.0174 92.1293C55.9056 91.2199 56.7148 90.2364 57.4361 89.1894C57.5049 89.113 57.5578 89.0237 57.5915 88.9265C57.6252 88.8293 57.6391 88.7264 57.6323 88.6238C57.5951 88.4911 57.5184 88.373 57.4124 88.2851C56.3976 87.3164 54.4153 87.0895 53.096 87.3841C51.6482 87.7262 50.5522 89.7178 49.7945 90.8863Z" fill="#3E3E54"/>
<path d="M87.2348 64.329C87.2348 64.329 90.6175 91.6653 86.0407 93.1624C81.4638 94.6594 69.3975 91.1674 68.403 91.0692C67.4084 90.971 57.5308 89.2707 57.5308 89.2707L58.2276 84.2817C58.2276 84.2817 78.0573 86.6763 79.4544 85.1826C80.8515 83.689 78.2569 72.2105 78.2569 72.2105L78.5546 66.2257L87.2348 64.329Z" fill="#3E3E54"/>
<path d="M87.2348 64.329C87.2348 64.329 90.6175 91.6653 86.0407 93.1624C81.4638 94.6594 69.3975 91.1674 68.403 91.0692C67.4084 90.971 57.5308 89.2707 57.5308 89.2707L58.2276 84.2817C58.2276 84.2817 78.0573 86.6763 79.4544 85.1826C80.8515 83.689 78.2569 72.2105 78.2569 72.2105L78.5546 66.2257L87.2348 64.329Z" fill="url(#paint0_linear)"/>
<path d="M68.1018 70.3138C68.1018 70.3138 65.0134 84.6813 63.0277 84.3833C61.042 84.0852 50.4709 80.092 50.4709 80.092C50.4709 80.092 48.4784 82.0869 48.5799 83.9836C48.6814 85.8803 62.9296 95.3571 66.2176 93.7618C69.5057 92.1666 74.4817 81.4027 79.1804 70.4154L80.5775 67.5703L68.1018 70.3138Z" fill="#3E3E54"/>
<path d="M68.1018 70.3138C68.1018 70.3138 65.0134 84.6813 63.0277 84.3833C61.042 84.0852 50.4709 80.092 50.4709 80.092C50.4709 80.092 48.4784 82.0869 48.5799 83.9836C48.6814 85.8803 62.9296 95.3571 66.2176 93.7618C69.5057 92.1666 74.4817 81.4027 79.1804 70.4154L80.5775 67.5703L68.1018 70.3138Z" fill="url(#paint1_linear)"/>
<path d="M49.7905 10.7028L43.9722 27.9087L52.7741 27.404L62.1207 17.7139L63.0577 5.94409L49.7905 10.7028Z" fill="#9AA5FB"/>
<path d="M49.7905 10.7028L43.9722 27.9087L52.7741 27.404L62.1207 17.7139L63.0577 5.94409L49.7905 10.7028Z" fill="url(#paint2_linear)"/>
<path d="M86.3959 16.8909C87.659 15.2919 88.7903 13.5929 89.7786 11.8104C91.5117 14.3216 92.6575 17.1914 93.1309 20.2068C93.2199 20.6213 93.2279 21.0491 93.1546 21.4667C93.0406 21.8661 92.8549 22.2414 92.6066 22.5743C90.9132 25.1092 88.8545 27.3794 86.4974 29.311C85.5874 30.0595 84.6098 30.7809 84.0212 31.8004C82.8474 33.8326 83.5138 36.3694 84.1362 38.6252C86.4094 46.8555 91.7914 71.3197 92.0349 79.8685C84.7417 84.0277 69.8982 80.5086 61.5089 80.7931C65.3957 72.8303 63.021 56.356 61.6611 49.2942C55.8191 52.295 49.791 55.3501 43.2488 55.9428L39.707 48.9453C42.9815 46.3035 47.254 45.2433 50.7788 42.9436C53.7928 40.9757 56.154 38.1713 58.938 35.8851C62.2667 33.1552 66.0587 31.438 70.135 30.1611C74.4031 28.878 78.2551 26.4844 81.2981 23.2246C83.1147 21.2108 84.8167 19.0962 86.3959 16.8909Z" fill="#9AA5FB"/>
<path d="M93.1581 21.4532C93.0454 21.8531 92.8596 22.2287 92.61 22.5607C90.9169 25.0998 88.8582 27.3745 86.5008 29.311C85.5908 30.0561 84.6098 30.7809 84.0212 31.8004C82.8474 33.8326 83.5138 36.3694 84.1362 38.6252C86.4094 46.8555 91.7914 71.3197 92.035 79.8685C87.9757 82.1784 81.6059 82.1208 75.2937 81.6602C70.2432 81.2944 65.2401 80.6678 61.5089 80.7931C65.3923 72.8303 63.021 56.3594 61.6612 49.2942C55.8157 52.295 49.791 55.3501 43.2488 55.9428L39.707 48.9453C42.9815 46.3035 47.254 45.2433 50.7788 42.9436C53.7928 40.9757 56.154 38.1679 58.9346 35.8885C62.2667 33.1552 66.0621 31.438 70.135 30.1611C74.3972 28.8741 78.2422 26.4782 81.2778 23.2178C83.1021 21.2076 84.8109 19.0952 86.3959 16.8909C87.6584 15.2915 88.7897 13.5925 89.7787 11.8104C91.5119 14.3203 92.6577 17.189 93.131 20.2034C93.2197 20.6144 93.2289 21.0387 93.1581 21.4532Z" fill="url(#paint3_linear)"/>
<path d="M73.4806 28.8604L74.5259 28.3761C74.5259 28.3761 74.0895 33.1179 73.785 33.67C73.4806 34.222 70.3346 38.0493 70.3346 38.0493C68.7745 38.5252 67.183 38.8908 65.5717 39.1433C63.1699 39.482 58.9753 40.7623 57.3584 40.8063C55.9427 40.8899 54.5324 41.0482 53.1333 41.2805C53.1333 41.2805 56.2793 37.8698 56.6717 37.6497C57.0641 37.4295 73.4806 28.8604 73.4806 28.8604Z" fill="url(#paint4_linear)"/>
<path d="M52.7104 38.2255C54.3195 39.2149 56.1811 39.715 58.0687 39.665C59.8481 39.6142 61.5699 39.0756 63.268 38.5405C65.8728 37.7174 67.4424 39.1569 69.9963 38.2018C70.4496 38.029 71.9583 35.5803 72.2696 35.2111C72.4955 34.9081 72.6577 34.5625 72.7465 34.195C73.4637 31.7086 73.6742 29.1031 73.3656 26.5336C73.4298 27.0654 67.9532 29.3821 67.3172 29.6801C65.7451 30.3997 64.1308 31.0229 62.4832 31.5464C58.6291 32.7384 55.2234 35.0661 52.7104 38.2255Z" fill="#9AA5FB"/>
<path d="M52.7104 38.2255C54.3195 39.2149 56.1811 39.715 58.0687 39.665C59.8481 39.6142 61.5699 39.0756 63.268 38.5405C65.8728 37.7174 67.4424 39.1569 69.9963 38.2018C70.4496 38.029 71.9583 35.5803 72.2696 35.2111C72.4955 34.9081 72.6577 34.5625 72.7465 34.195C73.4637 31.7086 73.6742 29.1031 73.3656 26.5336C73.4298 27.0654 67.9532 29.3821 67.3172 29.6801C65.7451 30.3997 64.1308 31.0229 62.4832 31.5464C58.6291 32.7384 55.2234 35.0661 52.7104 38.2255Z" fill="url(#paint5_linear)"/>
<path d="M64.7564 30.4693C65.0454 31.0688 65.1456 31.742 65.0439 32.3998C64.8832 32.9854 64.6479 33.5477 64.3437 34.073C64.0395 34.6039 63.9329 35.2254 64.0426 35.8275C64.1295 36.0967 64.2715 36.3449 64.4597 36.556C64.6478 36.7672 64.8779 36.9366 65.1353 37.0536C65.6512 37.2823 66.2006 37.4264 66.7624 37.4803C66.9947 37.5202 67.2303 37.5384 67.466 37.5345C68.0223 37.4798 68.5578 37.2941 69.0288 36.9926C69.8667 36.5727 70.5865 35.9498 71.1228 35.1806C71.3863 34.7934 71.5461 34.345 71.587 33.8783C71.6279 33.4116 71.5484 32.9422 71.3562 32.515C71.1333 32.0934 70.7761 31.7584 70.3413 31.5633C69.9185 31.3702 69.4212 31.316 69.0694 31.0146C68.8585 30.8079 68.6887 30.5631 68.5688 30.2931L67.4423 28.1221C67.3773 27.972 67.279 27.8388 67.1548 27.7326C67.0211 27.6442 66.865 27.5961 66.7049 27.5937C65.8084 27.5226 64.9763 27.9663 64.2557 28.4439C63.8058 28.7385 63.7517 28.8435 64.0595 29.2906C64.3279 29.661 64.5612 30.0556 64.7564 30.4693Z" fill="url(#paint6_linear)"/>
<path d="M67.7873 22.808C68.4334 24.051 68.6838 25.5819 68.1256 26.8724C67.7978 27.5498 67.2928 28.1257 66.6642 28.5387C66.3769 28.7497 66.052 28.9037 65.7069 28.9926C65.2848 29.0637 64.8538 29.0637 64.4316 28.9926C63.6063 28.9415 62.7922 28.7751 62.013 28.4981C61.5782 28.3086 61.1654 28.0724 60.7816 27.7936C60.6272 27.6617 60.4381 27.5771 60.237 27.5498C60.1217 27.557 60.0079 27.5798 59.8987 27.6175C59.6049 27.695 59.2973 27.7054 58.9989 27.648C58.8139 27.6268 58.6372 27.5588 58.4857 27.4504C58.3342 27.342 58.2128 27.1966 58.1329 27.0282C58.0044 26.6895 58.2649 26.2017 58.6336 26.2356C57.8352 25.8156 57.3684 24.9689 56.9422 24.1729C56.7962 23.9314 56.6921 23.6669 56.6344 23.3905C56.6041 22.9761 56.681 22.5608 56.8576 22.1848C57.0355 21.6786 57.2729 21.1954 57.5646 20.7453C58.2412 19.7868 59.3135 19.1873 60.4163 18.7978C61.58 18.3913 62.9804 18.1576 64.1373 18.6894C64.526 18.9275 64.8695 19.2325 65.1522 19.5903C65.6156 20.0577 66.079 20.5251 66.5053 21.023C67.0003 21.5662 67.4305 22.1652 67.7873 22.808Z" fill="url(#paint7_linear)"/>
<path d="M60.5212 20.3998C59.7323 20.7455 59.0502 21.2963 58.5457 21.9951C58.3072 22.4208 58.1263 22.8764 58.0078 23.3499C57.8454 23.7362 57.8298 24.1687 57.9638 24.5658C58.0758 24.7604 58.2253 24.9308 58.4036 25.0671L60.1153 26.5709C59.3102 25.863 58.0586 26.2627 57.0133 26.0391C56.6017 25.9386 56.2171 25.7488 55.8869 25.4831C55.5566 25.2174 55.2887 24.8823 55.102 24.5014C54.7281 23.7301 54.6313 22.8532 54.828 22.0188C54.8851 21.8123 54.9258 21.6017 54.9498 21.3888C54.9735 21.0501 54.8618 20.6877 54.8585 20.3321C54.8585 19.5023 55.4572 18.8011 56.0763 18.2491C56.6953 17.697 57.3989 17.172 57.7237 16.4066C57.8249 16.0591 57.9692 15.7257 58.1533 15.4142C58.3528 15.1601 59.6789 15.0958 59.9664 14.9468C60.643 14.6081 60.2573 14.1813 60.9204 13.8426C61.0353 13.7704 61.1671 13.7295 61.3026 13.7241C61.4764 13.7464 61.6368 13.8291 61.7559 13.9578C62.5441 14.6352 63.9446 16.1932 63.816 17.3447C63.6198 18.9874 61.7864 19.7597 60.5212 20.3998Z" fill="#3E3E54"/>
<path d="M56.9556 25.8833C56.4347 26.1441 55.8325 25.7987 55.3556 25.4667L52.9369 23.7732C52.7294 23.6474 52.5489 23.4817 52.4058 23.2855C52.3023 23.0884 52.2368 22.8735 52.213 22.6521C51.928 21.1283 52.0363 19.5568 52.5276 18.0865C52.7783 17.3552 53.1837 16.6867 53.7162 16.1268C54.2486 15.5668 54.8955 15.1284 55.6126 14.8418C55.8258 14.7673 56.7526 14.0187 56.9658 14.0458C57.1789 14.0729 58.4508 14.6792 59.9561 14.9434C60.2606 14.9976 57.6491 16.6369 56.7154 20.0984C55.8122 23.4853 56.685 23.7631 56.9556 25.8833Z" fill="#9AA5FB"/>
<path d="M56.9556 25.8833C56.4347 26.1441 55.8325 25.7987 55.3556 25.4667L52.9369 23.7732C52.7294 23.6474 52.5489 23.4817 52.4058 23.2855C52.3023 23.0884 52.2368 22.8735 52.213 22.6521C51.928 21.1283 52.0363 19.5568 52.5276 18.0865C52.7783 17.3552 53.1837 16.6867 53.7162 16.1268C54.2486 15.5668 54.8955 15.1284 55.6127 14.8418C55.8258 14.7673 56.7526 14.0187 56.9658 14.0458C57.9837 14.269 58.9834 14.569 59.9561 14.9434C60.2436 15.0551 57.6491 16.6369 56.7154 20.0984C55.8122 23.4853 56.685 23.7631 56.9556 25.8833Z" fill="url(#paint8_linear)"/>
<path d="M45.4473 23.5836C45.2984 24.7758 44.9906 25.9544 45.0007 27.1467C45.0244 30.2187 46.0798 33.1823 46.4621 36.2306C46.5586 36.7966 46.5586 37.3749 46.4621 37.941C46.3234 38.5879 45.9682 39.1637 45.7348 39.7835C45.3187 40.891 45.3018 42.1036 45.2883 43.2856L46.0088 41.8767L46.0866 42.4863C46.1103 42.3779 46.3132 42.51 46.2219 42.5744C46.3757 42.2759 46.4436 41.9406 46.4181 41.6057C46.4947 42.0303 46.5107 42.4637 46.4655 42.8928C46.9103 41.5061 47.1874 40.0711 47.2909 38.6184C47.3416 37.941 47.2739 37.1281 46.6786 36.8097C46.6017 35.6199 46.4275 34.4384 46.1576 33.2771C45.7855 31.9867 45.109 28.8164 45.2612 26.344C45.3467 24.8911 45.5963 23.4526 46.0054 22.056C46.0054 22.056 45.6367 22.0696 45.4473 23.5836Z" fill="#9AA5FB"/>
<path d="M33.9593 53.3349C33.3944 53.1994 32.8091 52.9962 32.2476 53.1418C31.6861 53.2874 31.2328 54.0156 31.615 54.4661C31.9059 54.8048 32.5994 54.9674 32.4844 55.4077C32.444 55.5221 32.3711 55.6221 32.2747 55.6956C31.5609 56.312 30.5833 56.4611 29.697 56.8268C28.8107 57.1926 27.9718 58.0123 28.1646 58.9369C28.8553 59.6211 29.6557 60.1844 30.5325 60.6033C31.1275 60.8377 31.7667 60.9376 32.4047 60.896C33.0426 60.8545 33.6636 60.6724 34.2231 60.3629C35.7454 59.506 36.5911 57.8226 37.9442 56.7083C39.0199 55.8209 40.373 55.3298 41.5062 54.5169C41.6077 54.4424 42.1828 54.2866 42.2301 54.1782C42.2532 54.065 42.2438 53.9476 42.2031 53.8395C41.99 53.0775 41.354 51.5669 40.7519 51.0961C38.844 52.82 36.6317 53.9682 33.9593 53.3349Z" fill="url(#paint9_linear)"/>
<path d="M92.008 15.9696C93.3375 13.4395 92.485 10.2117 93.6419 7.61053C94.0478 6.69266 94.6838 5.9001 95.1202 4.99917C95.5566 4.09823 95.7764 2.99746 95.313 2.11007C95.1519 1.83307 94.9602 1.57516 94.7413 1.34122L93.8178 0.250614C93.7396 0.129012 93.619 0.0408803 93.4795 0.00336377C93.28 -0.0203451 93.1176 0.162552 93.0195 0.342062C92.6508 1.01946 92.6812 1.83911 92.5763 2.60795C92.4715 3.3768 92.1467 4.22355 91.4194 4.4945C91.1915 3.7576 90.6838 3.13975 90.0054 2.77392C89.8938 4.27774 91.0981 5.59866 91.1793 7.10248C91.1849 7.75355 91.0702 8.40005 90.841 9.00935C90.5309 9.97889 90.1603 10.928 89.7314 11.851C90.0697 12.7012 90.4655 13.6258 90.797 14.4759C90.9304 14.8722 91.1195 15.2474 91.3586 15.5903C91.5412 15.824 91.751 15.824 92.008 15.9696Z" fill="url(#paint10_linear)"/>
<path opacity="0.18" d="M111.594 66.544C112.636 63.4169 114.038 60.4218 115.771 57.6194C116.553 56.356 117.439 54.9741 117.202 53.5076C112.575 51.376 107.989 49.1587 103.445 46.8555C103.248 46.7539 99.6965 52.4745 99.4361 53.0537C98.6648 54.7709 98.7967 56.146 99.9739 57.6194C102.859 61.2333 107.717 64.0953 111.594 66.544Z" fill="#9AA5FB"/>
<path d="M112.687 65.4501C113.73 62.3234 115.132 59.3285 116.864 56.5254C117.646 55.262 118.532 53.8801 118.295 52.4136C113.665 50.2888 109.084 48.0669 104.551 45.748C104.355 45.6464 100.803 51.367 100.543 51.9462C99.7712 53.6634 99.9032 55.0385 101.08 56.5118C103.966 60.1393 108.81 63.0013 112.687 65.4501Z" fill="white"/>
<path opacity="0.18" d="M31.4835 70.0666C30.445 69.3384 25.0562 77.6771 24.4947 78.5103C23.5205 77.7279 22.8574 76.3562 21.8967 75.4248C20.8549 74.4087 19.9483 73.8193 19.9855 72.2275C20.0396 69.7042 23.1247 66.2393 24.7416 64.5526C27.0318 66.3104 29.0817 68.3934 31.4835 70.0666Z" fill="#9AA5FB"/>
<path d="M30.9996 68.9725C29.9611 68.2477 24.5724 76.5831 24.0108 77.4163C23.0366 76.6339 22.3736 75.2621 21.4129 74.3307C20.371 73.3146 19.4644 72.7287 19.5016 71.1368C19.5557 68.6101 22.6408 65.1486 24.2578 63.4585C26.5513 65.2163 28.6012 67.2993 30.9996 68.9725Z" fill="white"/>
<path d="M65.1148 112.783C65.1172 113.172 64.9858 113.55 64.7427 113.853C64.5067 114.158 64.239 114.436 63.9444 114.683L55.5687 122.097C54.7467 122.826 53.8773 123.574 52.8287 123.876C50.5385 124.529 48.2721 122.907 46.4386 121.383C44.8724 120.085 43.2724 118.744 42.0173 117.163C41.4158 116.416 40.9069 115.6 40.5019 114.731C40.1433 113.952 47.5414 109.701 48.2416 109.311L58.143 103.584L64.3808 111.34C64.7326 111.757 65.0945 112.224 65.1148 112.783Z" fill="white"/>
<path d="M64.7425 113.853C64.5064 114.158 64.2388 114.436 63.9442 114.683L55.5684 122.097C54.7464 122.826 53.8771 123.574 52.8284 123.876C50.5383 124.529 48.2718 122.907 46.4384 121.383C44.8721 120.085 43.2721 118.744 42.0171 117.163C42.5752 115.903 44.067 114.988 45.3999 114.04C48.5999 111.747 51.8271 109.433 55.4061 107.804C55.4618 107.764 55.5254 107.735 55.5929 107.72C55.6603 107.706 55.7301 107.705 55.7977 107.719C55.8652 107.734 55.9291 107.762 55.9852 107.802C56.0412 107.842 56.0883 107.894 56.1232 107.953C57.4425 109.362 58.7956 110.739 60.1825 112.082C60.6657 112.592 61.2179 113.033 61.8232 113.389C62.1273 113.566 62.4639 113.678 62.8127 113.721C63.1616 113.763 63.5153 113.735 63.8528 113.637C64.1539 113.535 64.5666 113.4 64.712 113.681C64.7381 113.734 64.7487 113.794 64.7425 113.853Z" fill="#9AA5FB"/>
<path d="M64.7425 113.853C64.5064 114.158 64.2388 114.436 63.9442 114.683L55.5684 122.097C54.7464 122.826 53.8771 123.574 52.8284 123.876C50.5383 124.529 48.2718 122.907 46.4384 121.383C44.8721 120.085 43.2721 118.744 42.0171 117.163C42.5752 115.903 44.067 114.988 45.3999 114.04C48.5999 111.747 51.8271 109.433 55.4061 107.804C55.4618 107.764 55.5254 107.735 55.5929 107.72C55.6603 107.706 55.7301 107.705 55.7977 107.719C55.8652 107.734 55.9291 107.762 55.9852 107.802C56.0412 107.842 56.0883 107.894 56.1232 107.953C57.4425 109.362 58.7956 110.739 60.1825 112.082C60.6657 112.592 61.2179 113.033 61.8232 113.389C62.1273 113.566 62.4639 113.678 62.8127 113.721C63.1616 113.763 63.5153 113.735 63.8528 113.637C64.1539 113.535 64.5666 113.4 64.712 113.681C64.7381 113.734 64.7487 113.794 64.7425 113.853Z" fill="url(#paint11_linear)"/>
<path d="M55.2271 106.422L56.0761 106.124C56.1265 106.1 56.1832 106.092 56.2385 106.101C56.2887 106.124 56.331 106.162 56.3603 106.209C57.4342 107.625 58.6643 108.914 60.0272 110.053C60.1413 110.129 60.2298 110.238 60.2809 110.365" stroke="#9AA5FB" stroke-width="1.17" stroke-miterlimit="10"/>
<path d="M57.9736 105.962C58.6859 106.99 59.4886 107.952 60.372 108.837L63.2812 111.886" stroke="#9AA5FB" stroke-width="1.17" stroke-miterlimit="10"/>
<path d="M75.2935 81.6602C70.2431 81.2944 65.24 80.6678 61.5088 80.7931C65.3922 72.8303 63.0209 56.3594 61.661 49.2942L63.782 47.5837C63.782 47.5837 66.3597 62.8489 66.9686 65.9988C67.5775 69.1487 69.4177 77.9853 72.0427 79.3841C74.2246 80.5425 75.0737 81.4028 75.2935 81.6602Z" fill="url(#paint12_linear)"/>
<defs>
<linearGradient id="paint0_linear" x1="86.4737" y1="81.501" x2="80.7046" y2="79.5815" gradientUnits="userSpaceOnUse">
<stop stop-opacity="0"/>
<stop offset="0.99"/>
</linearGradient>
<linearGradient id="paint1_linear" x1="7300.39" y1="6509.63" x2="5243.82" y2="5477.6" gradientUnits="userSpaceOnUse">
<stop stop-opacity="0"/>
<stop offset="0.99"/>
</linearGradient>
<linearGradient id="paint2_linear" x1="2785.61" y1="578.561" x2="3793.97" y2="2017.93" gradientUnits="userSpaceOnUse">
<stop stop-opacity="0"/>
<stop offset="0.99"/>
</linearGradient>
<linearGradient id="paint3_linear" x1="14913.8" y1="6183.75" x2="272.905" y2="20609.6" gradientUnits="userSpaceOnUse">
<stop stop-opacity="0"/>
<stop offset="0.99"/>
</linearGradient>
<linearGradient id="paint4_linear" x1="4036.43" y1="1261.13" x2="4434.68" y2="2356.57" gradientUnits="userSpaceOnUse">
<stop stop-opacity="0"/>
<stop offset="0.99"/>
</linearGradient>
<linearGradient id="paint5_linear" x1="64.1611" y1="41.0706" x2="62.0145" y2="24.492" gradientUnits="userSpaceOnUse">
<stop offset="0.02" stop-color="white" stop-opacity="0"/>
<stop offset="0.58" stop-color="white" stop-opacity="0.39"/>
<stop offset="0.68" stop-color="white" stop-opacity="0.68"/>
<stop offset="1" stop-color="white"/>
</linearGradient>
<linearGradient id="paint6_linear" x1="63.8667" y1="32.5624" x2="71.6031" y2="32.5624" gradientUnits="userSpaceOnUse">
<stop stop-color="#E5C5D5"/>
<stop offset="0.42" stop-color="#EAD4D1"/>
<stop offset="1" stop-color="#F0E9CB"/>
</linearGradient>
<linearGradient id="paint7_linear" x1="2067.38" y1="782.774" x2="2479.54" y2="782.774" gradientUnits="userSpaceOnUse">
<stop stop-color="#E5C5D5"/>
<stop offset="0.42" stop-color="#EAD4D1"/>
<stop offset="1" stop-color="#F0E9CB"/>
</linearGradient>
<linearGradient id="paint8_linear" x1="1412.9" y1="485.871" x2="1242.18" y2="953.405" gradientUnits="userSpaceOnUse">
<stop stop-opacity="0"/>
<stop offset="0.99"/>
</linearGradient>
<linearGradient id="paint9_linear" x1="1242.78" y1="1689.13" x2="1831.7" y2="1689.13" gradientUnits="userSpaceOnUse">
<stop stop-color="#E5C5D5"/>
<stop offset="0.42" stop-color="#EAD4D1"/>
<stop offset="1" stop-color="#F0E9CB"/>
</linearGradient>
<linearGradient id="paint10_linear" x1="1655.93" y1="402.882" x2="1756.73" y2="402.882" gradientUnits="userSpaceOnUse">
<stop stop-color="#E5C5D5"/>
<stop offset="0.42" stop-color="#EAD4D1"/>
<stop offset="1" stop-color="#F0E9CB"/>
</linearGradient>
<linearGradient id="paint11_linear" x1="3607.68" y1="5603.95" x2="3918.74" y2="6238.98" gradientUnits="userSpaceOnUse">
<stop stop-opacity="0"/>
<stop offset="0.99"/>
</linearGradient>
<linearGradient id="paint12_linear" x1="2142.87" y1="4462.19" x2="9337.51" y2="9292.33" gradientUnits="userSpaceOnUse">
<stop stop-opacity="0"/>
<stop offset="0.99"/>
</linearGradient>
</defs>
</svg>
