<svg width="22" height="21" viewBox="0 0 22 21" fill="none" xmlns="http://www.w3.org/2000/svg">
<path d="M4.94462 15.1489C5.01 15.206 5.08817 15.2343 5.16598 15.2343C5.27044 15.2343 5.37384 15.1837 5.44419 15.0866C5.56642 14.9173 5.54119 14.6709 5.3877 14.5362C5.10309 14.2862 4.82737 14.0147 4.5687 13.7291L1.94011 10.831L4.65078 7.84231C7.25664 4.96961 11.0475 3.98905 14.5423 5.28262C14.7281 5.35039 14.9296 5.2407 14.9925 5.03581C15.0547 4.83093 14.9548 4.60841 14.7686 4.53946C11.0158 3.15071 6.94609 4.20373 4.14837 7.28799L0.934929 10.831L4.06594 14.2831C4.34343 14.5894 4.63941 14.8805 4.94462 15.1489Z" fill="white"/>
<path fill-rule="evenodd" clip-rule="evenodd" d="M4.03727 7.18721C6.87394 4.06002 11.0075 2.98767 14.8207 4.39879C15.0908 4.49881 15.2182 4.80865 15.136 5.07937C15.0513 5.35536 14.7679 5.52455 14.4909 5.42354C11.0565 4.15235 7.32879 5.11333 4.76188 7.94309L2.14261 10.831L4.67981 13.6284C4.93467 13.9098 5.20639 14.1773 5.48667 14.4234C5.70033 14.611 5.73167 14.9447 5.56579 15.1744C5.46817 15.3092 5.32012 15.3843 5.16598 15.3843C5.05117 15.3843 4.93807 15.3424 4.84586 15.2617C4.53641 14.9897 4.23611 14.6944 3.95476 14.3838L0.732422 10.831L4.03727 7.18721ZM4.25947 7.38877C4.25947 7.38877 4.25947 7.38876 4.25947 7.38877L1.13744 10.831L4.17704 14.1823C4.45063 14.4843 4.74254 14.7714 5.04345 15.036C5.08198 15.0697 5.12519 15.0843 5.16598 15.0843C5.22077 15.0843 5.27962 15.0581 5.3227 14.9986C5.40114 14.8898 5.38201 14.7308 5.28873 14.6489C4.9998 14.3951 4.72 14.1196 4.45753 13.8298L1.7376 10.831L4.53967 7.74154C7.18437 4.82601 11.0388 3.82609 14.5939 5.14178C14.6886 5.17614 14.808 5.1255 14.8491 4.9919C14.891 4.85298 14.8187 4.71797 14.7165 4.68013C11.0242 3.31376 7.01824 4.34746 4.25947 7.38877Z" fill="white"/>
<path d="M18.7847 7.28827C18.3057 6.76019 17.7806 6.28382 17.2235 5.8717C17.0607 5.75143 16.8394 5.79922 16.7303 5.97864C16.6208 6.15807 16.6646 6.40173 16.8273 6.52239C17.346 6.90592 17.8357 7.35016 18.2819 7.8422L20.9105 10.7404L18.1999 13.729C15.5759 16.6221 11.622 17.6003 8.12605 16.219C7.94129 16.1457 7.7377 16.2519 7.67161 16.4556C7.60552 16.6593 7.70146 16.8834 7.88622 16.9567C9.01682 17.4033 10.1922 17.6199 11.3597 17.6199C14.0676 17.6199 16.7335 16.4537 18.7023 14.283L21.9153 10.7404L18.7847 7.28827Z" fill="white"/>
<path fill-rule="evenodd" clip-rule="evenodd" d="M16.6022 5.90054C16.6023 5.90047 16.6022 5.9006 16.6022 5.90054V5.90054Z" fill="white"/>
<path d="M11.7859 15.2992C11.0209 15.2992 10.2754 15.0649 9.62912 14.6214C9.46319 14.5078 9.24396 14.5635 9.13985 14.7472C9.0361 14.9309 9.08727 15.1722 9.25391 15.2866C10.0125 15.8077 10.8883 16.0827 11.7859 16.0827C14.4308 16.0827 16.5826 13.7102 16.5826 10.794C16.5826 9.74218 16.3029 8.72598 15.7742 7.85512C15.6648 7.6753 15.4438 7.62712 15.2814 7.74739C15.1183 7.86804 15.0746 8.11132 15.1837 8.29074C15.6339 9.03233 15.8719 9.8977 15.8719 10.794C15.8719 13.2785 14.0389 15.2992 11.7859 15.2992Z" fill="white"/>
<path fill-rule="evenodd" clip-rule="evenodd" d="M15.1921 7.62685C15.4305 7.45027 15.7505 7.52753 15.9024 7.77713C16.4458 8.67223 16.7326 9.71564 16.7326 10.794C16.7326 13.7789 14.5271 16.2327 11.7859 16.2327C10.8573 16.2327 9.95197 15.948 9.16902 15.4103C8.93405 15.249 8.86982 14.9203 9.00924 14.6734C9.15324 14.4193 9.46984 14.3306 9.71386 14.4977C10.3358 14.9244 11.052 15.1492 11.7859 15.1492C13.9426 15.1492 15.7219 13.2098 15.7219 10.794C15.7219 9.92422 15.4909 9.08592 15.0555 8.36858C14.9084 8.12662 14.9633 7.79618 15.1921 7.62685ZM15.646 7.93296C15.579 7.82305 15.457 7.80399 15.3707 7.86792C15.2734 7.9399 15.2408 8.09597 15.3119 8.21282C15.7768 8.97865 16.0219 9.87119 16.0219 10.794C16.0219 13.3472 14.1352 15.4492 11.7859 15.4492C10.9898 15.4492 10.2149 15.2053 9.5443 14.7451C9.45646 14.6851 9.33454 14.7079 9.27036 14.8211C9.20228 14.9417 9.24048 15.0955 9.3388 15.163C10.073 15.6672 10.9194 15.9327 11.7859 15.9327C14.3345 15.9327 16.4326 13.6415 16.4326 10.794C16.4326 9.76877 16.16 8.77955 15.646 7.93296Z" fill="white"/>
<path d="M11.7858 6.28891C12.5195 6.28891 13.2387 6.50555 13.8662 6.91571C14.0346 7.02579 14.2527 6.96468 14.3529 6.77821C14.4528 6.59212 14.3973 6.35198 14.2282 6.24151C13.4913 5.76005 12.6467 5.50541 11.7854 5.50541C9.14051 5.50541 6.98874 7.87785 6.98874 10.794C6.98874 11.6104 7.1529 12.3936 7.47694 13.1214C7.53877 13.2601 7.6649 13.3408 7.79637 13.3408C7.8486 13.3408 7.90225 13.3279 7.95235 13.3009C8.12858 13.2053 8.20142 12.9706 8.11508 12.7767C7.83936 12.1569 7.69937 11.4902 7.69937 10.7944C7.69972 8.30995 9.53277 6.28891 11.7858 6.28891Z" fill="white"/>
<path fill-rule="evenodd" clip-rule="evenodd" d="M6.83874 10.794C6.83874 7.80912 9.04422 5.35541 11.7854 5.35541C12.6766 5.35541 13.5495 5.61892 14.3102 6.11592M11.7854 5.65541C9.2368 5.65541 7.13874 7.94658 7.13874 10.794C7.13874 11.59 7.2987 12.3523 7.61398 13.0604C7.65337 13.1487 7.72814 13.1908 7.79637 13.1908C7.82379 13.1908 7.85295 13.184 7.88112 13.1688C7.98228 13.114 8.03551 12.9668 7.97805 12.8377C7.69358 12.1983 7.54937 11.5107 7.54937 10.7944C7.54973 8.24125 9.43648 6.13891 11.7858 6.13891C12.5493 6.13891 13.2969 6.3644 13.9482 6.79015C13.9482 6.79016 13.9482 6.79015 13.9482 6.79015C14.0369 6.84808 14.1586 6.82289 14.2208 6.70729C14.2208 6.70726 14.2207 6.70731 14.2208 6.70729C14.2867 6.58447 14.2452 6.43177 14.1462 6.36709C13.4331 5.90118 12.6169 5.65541 11.7854 5.65541ZM14.3102 6.11592C14.5495 6.27219 14.6189 6.59978 14.4851 6.84912C14.3469 7.1064 14.0323 7.20349 13.7841 7.04127C13.1805 6.64669 12.4897 6.43891 11.7858 6.43891C9.62908 6.43891 7.84972 8.37866 7.84937 10.7944M6.83874 10.794C6.83874 11.6309 7.00709 12.4349 7.33991 13.1824L6.83874 10.794ZM8.25211 12.7157C7.98515 12.1156 7.84937 11.4697 7.84937 10.7944L8.25211 12.7157ZM8.25211 12.7157C8.3673 12.9744 8.27516 13.2964 8.02386 13.4327C7.95183 13.4716 7.87341 13.4908 7.79637 13.4908C7.60169 13.4908 7.42417 13.3715 7.33991 13.1824" fill="white"/>
<path d="M20.3424 1.11498C20.2035 0.961804 19.9789 0.961804 19.84 1.11498L3.31801 19.3314C3.17909 19.4846 3.17909 19.7321 3.31801 19.8853C3.3873 19.9617 3.47826 20.0001 3.56922 20.0001C3.66018 20.0001 3.75114 19.9617 3.82043 19.8853L20.3424 1.66891C20.4813 1.51613 20.4813 1.26815 20.3424 1.11498Z" fill="white"/>
<path fill-rule="evenodd" clip-rule="evenodd" d="M19.7289 1.01421C19.9274 0.795395 20.2551 0.795395 20.4535 1.01421C20.6442 1.22448 20.6444 1.55976 20.4534 1.76983L3.93153 19.9861C3.83438 20.0932 3.70334 20.1501 3.56922 20.1501C3.4351 20.1501 3.30406 20.0932 3.20691 19.9861C3.01612 19.7757 3.01612 19.441 3.20691 19.2306L19.7289 1.01421ZM20.2313 1.21575C20.1519 1.12821 20.0305 1.12821 19.9511 1.21575L3.42912 19.4322C3.34205 19.5282 3.34205 19.6885 3.42912 19.7845C3.47054 19.8302 3.52142 19.8501 3.56922 19.8501C3.61702 19.8501 3.6679 19.8302 3.70932 19.7845L20.2313 1.56814C20.3181 1.47265 20.3184 1.31182 20.2313 1.21575Z" fill="white"/>
</svg>
