<svg width="35" height="35" viewBox="0 0 35 35" fill="none" xmlns="http://www.w3.org/2000/svg">
<path d="M7.64814 31.264C10.2401 29.2 11.5841 26.512 11.5841 23.44V2.07999C11.5841 1.31199 10.9601 0.687988 10.1921 0.687988C7.55214 0.687988 5.10414 1.69599 3.32814 3.47199C1.60014 5.24799 0.640137 7.64799 0.640137 10.192V32.608C0.640137 33.04 0.832137 33.472 1.16814 33.712C1.40814 33.904 1.69614 34 2.03214 34H22.3841C23.1521 34 23.7281 33.376 23.7281 32.608C23.7281 31.888 23.1521 31.264 22.3841 31.264H7.64814ZM3.37614 10.192C3.37614 8.36799 4.04814 6.63999 5.29614 5.39199C6.20814 4.43198 7.45614 3.80799 8.80014 3.56799V23.44C8.80014 25.888 7.64814 27.904 5.39214 29.536C4.67214 30.016 4.00014 30.352 3.37614 30.64V10.192Z" fill="white"/>
<path d="M27.3681 14.38C29.7201 14.38 31.4601 14.896 32.5881 15.928C33.7161 16.96 34.2801 18.604 34.2801 20.86V34H31.9761L31.3641 31.264H31.2201C30.3801 32.32 29.4921 33.1 28.5561 33.604C27.6441 34.108 26.3721 34.36 24.7401 34.36C22.9881 34.36 21.5361 33.904 20.3841 32.992C19.2321 32.056 18.6561 30.604 18.6561 28.636C18.6561 26.716 19.4121 25.24 20.9241 24.208C22.4361 23.152 24.7641 22.576 27.9081 22.48L31.1841 22.372V21.22C31.1841 19.612 30.8361 18.496 30.1401 17.872C29.4441 17.248 28.4601 16.936 27.1881 16.936C26.1801 16.936 25.2201 17.092 24.3081 17.404C23.3961 17.692 22.5441 18.028 21.7521 18.412L20.7801 16.036C21.6201 15.58 22.6161 15.196 23.7681 14.884C24.9201 14.548 26.1201 14.38 27.3681 14.38ZM31.1481 24.568L28.3041 24.676C25.9041 24.772 24.2361 25.156 23.3001 25.828C22.3881 26.5 21.9321 27.448 21.9321 28.672C21.9321 29.752 22.2561 30.544 22.9041 31.048C23.5761 31.552 24.4281 31.804 25.4601 31.804C27.0921 31.804 28.4481 31.36 29.5281 30.472C30.6081 29.56 31.1481 28.168 31.1481 26.296V24.568Z" fill="white"/>
</svg>
