<svg width="142" height="127" viewBox="0 0 142 127" fill="none" xmlns="http://www.w3.org/2000/svg">
<g clip-path="url(#clip0)">
<path opacity="0.18" d="M141.952 75.307C141.952 103.426 110.622 126.222 71.9702 126.222C47.7131 126.222 26.3416 117.246 13.7846 103.61C-7.64003 83.5663 -3.92289 33.2534 23.7792 33.6307C26.7477 33.6896 29.7168 33.538 32.6638 33.177C39.6621 32.2761 43.9045 30.1667 46.4861 27.8772C47.124 27.3154 47.913 26.1515 48.8252 24.5721C71.1387 -14.5707 130.409 -4.93978 139.287 39.2189C142.175 53.5668 142.092 67.2469 141.941 74.4335C141.952 74.7197 141.952 75.0123 141.952 75.307Z" fill="#9AA5FB"/>
<path opacity="0.05" d="M58.2792 112.604C71.2768 112.604 81.8134 111.598 81.8134 110.357C81.8134 109.115 71.2768 108.109 58.2792 108.109C45.2817 108.109 34.7451 109.115 34.7451 110.357C34.7451 111.598 45.2817 112.604 58.2792 112.604Z" fill="#000405"/>
<path d="M24.625 14.2885H118.623V82.8394H24.625V14.2885Z" fill="#9AA5FB"/>
<path d="M24.625 14.5132L118.623 14.2885V82.8395L24.625 83.0642V14.5132Z" fill="url(#paint0_linear)"/>
<path d="M115.391 16.3067H27.0537V80.4206H115.391V16.3067Z" fill="#9AA5FB"/>
<path d="M28.2593 17.0169H114.358V79.3203H28.2593V17.0169Z" fill="url(#paint1_linear)"/>
<path d="M70.9785 63.7938L68.5415 62.7995L68.1162 62.6278L66.113 65.2947L62.1747 56.3909L59.3911 63.3867L64.4841 70.5161C64.6507 70.7491 64.8755 70.9344 65.1363 71.0539C65.397 71.1733 65.6846 71.2226 65.9704 71.1969C66.2561 71.1712 66.5302 71.0713 66.7652 70.9072C67.0003 70.7432 67.1882 70.5206 67.3102 70.2617L70.9785 63.7938Z" fill="#9AA5FB"/>
<path d="M70.9785 63.7938L68.5415 62.7995L68.1162 62.6278L66.113 65.2947L62.1747 56.3909L59.3911 63.3867L64.4841 70.5161C64.6507 70.7491 64.8755 70.9344 65.1363 71.0539C65.397 71.1733 65.6846 71.2226 65.9704 71.1969C66.2561 71.1712 66.5302 71.0713 66.7652 70.9072C67.0003 70.7432 67.1882 70.5206 67.3102 70.2617L70.9785 63.7938Z" fill="url(#paint2_linear)"/>
<path d="M53.1117 55.3818C53.1117 55.3818 47.283 57.1901 45.9624 58.6529C44.6418 60.1156 44.2017 74.7433 44.2017 74.7433L48.6567 77.6668L49.435 82.8395L63.9612 81.5675L62.1749 56.3909L56.2207 55.386L53.1117 55.3818Z" fill="#9AA5FB"/>
<path d="M53.1117 55.3818C53.1117 55.3818 47.283 57.1901 45.9624 58.6529C44.6418 60.1156 44.2017 74.7433 44.2017 74.7433L48.6567 77.6668L49.435 82.8395L63.9612 81.5675L62.1749 56.3909L56.2207 55.386L53.1117 55.3818Z" fill="url(#paint3_linear)"/>
<path d="M35.032 41.6147L35.3191 42.2041L35.9698 42.2995L35.5105 42.7574L35.6062 43.3849L35.032 43.0818L34.4579 43.3849L34.5727 42.7574L34.0942 42.2995L34.7449 42.2041L35.032 41.6147Z" fill="url(#paint4_linear)"/>
<path d="M38.5345 35.8443L38.2857 36.4548L38.6685 37.006L37.9986 36.9678L37.5967 37.483L37.4436 36.8534L36.812 36.6244L37.367 36.2831L37.3862 35.6153L37.9029 36.035L38.5345 35.8443Z" fill="url(#paint5_linear)"/>
<path d="M106.761 27.1036L107.048 27.676L107.699 27.7714L107.22 28.2272L107.335 28.8759L106.761 28.5706L106.168 28.8759L106.283 28.2272L105.823 27.7714L106.455 27.676L106.761 27.1036Z" fill="url(#paint6_linear)"/>
<path d="M110.242 21.3352L110.015 21.9436L110.376 22.4779L109.728 22.4397L109.326 22.9718L109.153 22.3252L108.541 22.1154L109.096 21.7528L109.115 21.1063L109.613 21.526L110.242 21.3352Z" fill="url(#paint7_linear)"/>
<path d="M69.605 33.4826L69.2988 33.8642L69.4519 34.3221L68.9926 34.1695L68.6098 34.4557L68.629 33.9787L68.2271 33.6925L68.6864 33.5589L68.8395 33.1031L69.1074 33.5017L69.605 33.4826Z" fill="url(#paint8_linear)"/>
<path d="M74.5616 33.8833L74.0831 33.9405L73.8343 34.3602L73.6429 33.9023L73.1836 33.826L73.5281 33.5017L73.4707 33.0268L73.8917 33.2748L74.3319 33.065L74.2362 33.5398L74.5616 33.8833Z" fill="url(#paint9_linear)"/>
<path d="M100.792 49.3653L100.505 49.7448L100.658 50.2027L100.199 50.05L99.8164 50.3362V49.8592L99.4336 49.5731L99.8929 49.4416L100.046 48.9837L100.314 49.3844L100.792 49.3653Z" fill="url(#paint10_linear)"/>
<path d="M105.747 49.7638L105.269 49.821L105.039 50.2408L104.848 49.802L104.369 49.7066L104.733 49.3843L104.675 48.9073L105.096 49.1554L105.537 48.9455L105.422 49.4225L105.747 49.7638Z" fill="url(#paint11_linear)"/>
<path d="M88.6435 43.3277L88.3564 43.7093L88.5074 44.1651L88.0502 43.9955L87.6483 44.2795L87.6674 43.8047L87.2847 43.5185L87.744 43.3849L87.878 42.9291L88.1651 43.3277H88.6435Z" fill="url(#paint12_linear)"/>
<path d="M93.5982 43.7284L93.1197 43.7665L92.8901 44.1842L92.6987 43.7475L92.2202 43.6521L92.5838 43.3277L92.5264 42.8528L92.9283 43.0988L93.3685 42.9101L93.2728 43.3659L93.5982 43.7284Z" fill="url(#paint13_linear)"/>
<path d="M78.1767 43.1749L77.8896 43.5565L78.0428 44.0144L77.5834 43.8618L77.2007 44.148V43.671L76.8179 43.3848L77.2772 43.2513L77.4303 42.7955L77.6983 43.1749H78.1767Z" fill="url(#paint14_linear)"/>
<path d="M65.6456 51.782L65.1671 51.8392L64.9183 52.259L64.7269 51.8011L64.2676 51.7248L64.6312 51.4025L64.5738 50.9255L64.9757 51.1736L65.4159 50.9637L65.3202 51.4407L65.6456 51.782Z" fill="url(#paint15_linear)"/>
<path d="M39.147 54.8115L39.4128 54.8284L39.585 54.6207L39.6424 54.8857L39.9104 54.9811L39.6807 55.1146L39.6616 55.3817L39.4511 55.21L39.2023 55.2863L39.298 55.0383L39.147 54.8115Z" fill="url(#paint16_linear)"/>
<path d="M37.8262 52.3735L37.9985 52.5834L38.2664 52.5643L38.1133 52.7912L38.209 53.0392L37.9602 52.9629L37.7497 53.1346L37.7305 52.8675L37.52 52.7148L37.7688 52.6216L37.8262 52.3735Z" fill="url(#paint17_linear)"/>
<path d="M40.7715 45.9373L41.0394 45.9564L41.2117 45.7465L41.2691 46.0136L41.5179 46.109L41.2882 46.2426V46.5076L41.0777 46.3359L40.8098 46.4122L40.9246 46.1663L40.7715 45.9373Z" fill="url(#paint18_linear)"/>
<path d="M32.2568 47.5548L32.5248 47.5739L32.697 47.3661L32.7544 47.6121L33.0224 47.7075L32.7927 47.8601L32.7736 48.1272L32.5631 47.9555L32.3143 48.0127L32.4099 47.7838L32.2568 47.5548Z" fill="url(#paint19_linear)"/>
<path d="M39.0495 40.2622L39.2217 40.4912L39.4897 40.4721L39.3365 40.682L39.4322 40.9279L39.1664 40.8706L38.975 41.0424L38.9559 40.7583L38.7241 40.6247L38.975 40.5293L39.0495 40.2622Z" fill="#B5EAFF"/>
<path d="M59.1681 53.1706C59.0385 53.2828 58.8957 53.3789 58.7428 53.4568C57.6328 54.044 56.1166 53.8935 56.257 54.7288C56.2067 55.0445 56.2031 55.3659 56.2463 55.6827C56.257 55.8714 56.2825 56.058 56.3037 56.2488C56.3264 56.4397 56.2991 56.6332 56.2243 56.8104C56.1495 56.9876 56.0298 57.1425 55.877 57.2597C55.7242 57.377 55.5435 57.4528 55.3525 57.4796C55.1616 57.5064 54.9669 57.4833 54.7875 57.4126L53.2352 56.8063L52.5845 48.8628C52.5845 48.8628 54.8407 43.6838 58.9364 46.8637C58.93 46.8701 60.2569 52.2357 59.1681 53.1706Z" fill="url(#paint20_linear)"/>
<path d="M61.2412 109.555L62.9467 111.02H58.4343L56.5736 88.8177L55.5996 111.02H50.9511L52.3461 110.07L50.2217 82.7653L53.5348 82.4536L62.9467 81.5654L61.2412 109.555Z" fill="#9AA5FB"/>
<path d="M61.2412 109.555L62.9467 111.02H58.4343L56.5736 88.8177L55.5996 111.02H50.9511L52.3461 110.07L50.2217 82.7653L53.5348 82.4536L62.9467 81.5654L61.2412 109.555Z" fill="url(#paint21_linear)"/>
<path d="M58.93 46.8702C59.1549 46.6567 59.3072 46.3784 59.3655 46.0742C59.4239 45.7701 59.3853 45.4554 59.2553 45.1742C58.8725 44.0146 57.3415 44.4322 57.3415 44.4322H54.8917C53.9028 44.9271 53.1478 45.7886 52.7886 46.832C52.5525 47.471 52.493 48.1614 52.6164 48.8311L52.7886 52.0493L53.669 50.7773C53.669 50.7773 52.8184 49.4629 53.2097 49.0813C53.6009 48.6997 53.8986 49.3103 53.8986 49.3103C53.8986 49.3103 53.8986 47.538 54.2984 47.4023C54.6982 47.2666 58.93 46.8702 58.93 46.8702Z" fill="#1D3945"/>
<path opacity="0.61" d="M56.5757 88.8199L57.5709 87.8489L58.547 98.8155L58.2982 111.022L56.5757 88.8199Z" fill="url(#paint22_linear)"/>
<path d="M70.0071 59.1702L70.9449 39.5585H71.3085L70.3708 60.6563C70.3708 60.6563 70.1028 61.0951 70.0071 60.6563C69.9625 60.1619 69.9625 59.6646 70.0071 59.1702Z" fill="#1D3945"/>
<path d="M69.1948 61.0229L68.4739 62.4772C68.4589 62.5069 68.4499 62.5392 68.4475 62.5723C68.445 62.6054 68.4491 62.6386 68.4596 62.6701C68.4701 62.7017 68.4867 62.7308 68.5085 62.7559C68.5303 62.781 68.5568 62.8016 68.5866 62.8164H68.6057L70.1751 63.4524C70.2358 63.4781 70.3041 63.4789 70.3654 63.4547C70.4267 63.4305 70.4759 63.3832 70.5026 63.3231L71.2022 61.8052C71.215 61.775 71.2346 61.7481 71.2596 61.7268L72.3802 60.6668C72.4087 60.6398 72.4306 60.6066 72.4443 60.5699C72.4579 60.5331 72.4629 60.4938 72.4589 60.4548L72.0464 57.3194C72.0409 57.2803 72.0266 57.243 72.0045 57.2103C71.9824 57.1776 71.9531 57.1503 71.9188 57.1307L70.9597 56.6028C70.9064 56.5727 70.8439 56.5628 70.7837 56.5748C70.7236 56.5869 70.6698 56.6202 70.6323 56.6685L70.2686 57.137C70.2271 57.19 70.1662 57.2245 70.0992 57.2328C70.0323 57.2412 69.9647 57.2227 69.9114 57.1816C69.8734 57.1538 69.8446 57.1154 69.8285 57.0713L69.6583 56.6177C69.6431 56.5772 69.6177 56.5414 69.5845 56.5135C69.5514 56.4857 69.5116 56.4668 69.4691 56.4587C69.4034 56.4454 69.3352 56.4585 69.2791 56.495C69.223 56.5314 69.1835 56.5885 69.1692 56.6537C69.165 56.6825 69.165 56.7118 69.1692 56.7406L69.3394 58.0232V58.0677L69.2267 60.9212C69.2226 60.9568 69.2118 60.9913 69.1948 61.0229Z" fill="url(#paint23_linear)"/>
<path d="M48.6567 77.6688L52.4185 79.6658L54.9023 76.3438L48.6567 71.6227L50.022 61.9684L51.1958 71.6227L56.1931 75.1821L55.2915 82.286L49.435 82.8394L48.6567 77.6688Z" fill="url(#paint24_linear)"/>
<path opacity="0.61" d="M53.1099 55.3817L51.9722 55.7591L52.7122 61.0908L54.3262 61.6271L53.3714 62.261L58.0923 70.8913L53.1099 55.3817Z" fill="url(#paint25_linear)"/>
<path opacity="0.61" d="M56.2144 55.3817C56.2144 55.3817 56.7906 60.2576 57.3329 64.542C57.7072 67.4951 58.1176 70.0942 58.0921 70.8913L59.5806 62.8991L58.3217 61.396L58.9831 60.2979L57.0692 55.5259L56.2144 55.3817Z" fill="url(#paint26_linear)"/>
<path d="M53.5376 56.7066C53.5376 56.7066 54.9985 57.9786 56.3744 56.5116L58.0926 70.8913L53.5376 56.7066Z" fill="white"/>
<path d="M55.0916 57.2092L54.7109 58.3433L55.6275 58.8182L55.9401 57.7943L55.0916 57.2092Z" fill="#1D3945"/>
<path d="M56.3828 65.5703L55.4194 58.6592L55.7129 58.5363L57.2334 63.7026L58.0925 70.8914L56.3828 65.5703Z" fill="#1D3945"/>
<path d="M53.1221 78.7246C53.1221 78.7246 54.9083 80.1132 55.5527 80.2256C56.197 80.3379 58.4341 80.0136 58.4341 80.0136L58.768 79.6702L59.0976 79.1359C58.826 78.9351 58.5419 78.7517 58.247 78.5868C58.0811 78.5317 58.0343 78.2943 58.0343 78.2943L56.4373 77.7452C56.4373 77.7452 57.2454 77.3615 57.2879 77.2343C57.3304 77.1071 57.0136 77.0499 57.0136 77.0499C57.0136 77.0499 54.5234 77.3149 54.3108 77.1283L53.1221 78.7246Z" fill="url(#paint27_linear)"/>
<path d="M53.5348 82.4536L53.3944 109.653L50.9511 111.02L52.3461 110.07L50.2217 82.7652L53.5348 82.4536Z" fill="url(#paint28_linear)"/>
<path d="M56.2529 54.7351C56.2061 55.0514 56.2061 55.3728 56.2529 55.6891C56.1848 55.706 56.1338 55.7166 56.1019 55.7272C55.9297 55.7739 55.464 55.7527 55.0387 55.1909C54.6134 54.6291 54.5283 53.0985 55.6532 53.5819C56.423 53.9126 57.8924 53.6539 58.743 53.4568C57.6287 54.044 56.1104 53.8935 56.2529 54.7351Z" fill="url(#paint29_linear)"/>
</g>
<defs>
<linearGradient id="paint0_linear" x1="67.1914" y1="-23.1415" x2="75.8735" y2="118.375" gradientUnits="userSpaceOnUse">
<stop offset="0.02" stop-color="white" stop-opacity="0"/>
<stop offset="1" stop-color="white"/>
</linearGradient>
<linearGradient id="paint1_linear" x1="69.4796" y1="3.59546" x2="75.4289" y2="149.463" gradientUnits="userSpaceOnUse">
<stop stop-opacity="0"/>
<stop offset="0.91" stop-opacity="0.8"/>
<stop offset="1"/>
</linearGradient>
<linearGradient id="paint2_linear" x1="3744.64" y1="-4384.37" x2="3232.99" y2="-4296.03" gradientUnits="userSpaceOnUse">
<stop stop-opacity="0"/>
<stop offset="0.91" stop-opacity="0.8"/>
<stop offset="1"/>
</linearGradient>
<linearGradient id="paint3_linear" x1="6231.11" y1="-7731.53" x2="2320.76" y2="-7048.59" gradientUnits="userSpaceOnUse">
<stop stop-opacity="0"/>
<stop offset="0.91" stop-opacity="0.8"/>
<stop offset="1"/>
</linearGradient>
<linearGradient id="paint4_linear" x1="350.467" y1="123.538" x2="330.718" y2="937.003" gradientUnits="userSpaceOnUse">
<stop offset="0.02" stop-color="white" stop-opacity="0"/>
<stop offset="1" stop-color="white"/>
</linearGradient>
<linearGradient id="paint5_linear" x1="372.349" y1="122.631" x2="350.14" y2="980.851" gradientUnits="userSpaceOnUse">
<stop offset="0.02" stop-color="white" stop-opacity="0"/>
<stop offset="1" stop-color="white"/>
</linearGradient>
<linearGradient id="paint6_linear" x1="1051.12" y1="124.42" x2="1031.31" y2="938.861" gradientUnits="userSpaceOnUse">
<stop offset="0.02" stop-color="white" stop-opacity="0"/>
<stop offset="1" stop-color="white"/>
</linearGradient>
<linearGradient id="paint7_linear" x1="1055.55" y1="124.123" x2="1033.12" y2="981.348" gradientUnits="userSpaceOnUse">
<stop offset="0.02" stop-color="white" stop-opacity="0"/>
<stop offset="1" stop-color="white"/>
</linearGradient>
<linearGradient id="paint8_linear" x1="518.632" y1="101.203" x2="502.927" y2="722.72" gradientUnits="userSpaceOnUse">
<stop offset="0.02" stop-color="white" stop-opacity="0"/>
<stop offset="1" stop-color="white"/>
</linearGradient>
<linearGradient id="paint9_linear" x1="555.74" y1="100.966" x2="540.474" y2="713.726" gradientUnits="userSpaceOnUse">
<stop offset="0.02" stop-color="white" stop-opacity="0"/>
<stop offset="1" stop-color="white"/>
</linearGradient>
<linearGradient id="paint10_linear" x1="745.431" y1="122.264" x2="729.519" y2="743.756" gradientUnits="userSpaceOnUse">
<stop offset="0.02" stop-color="white" stop-opacity="0"/>
<stop offset="1" stop-color="white"/>
</linearGradient>
<linearGradient id="paint11_linear" x1="791.524" y1="121.954" x2="776.258" y2="734.7" gradientUnits="userSpaceOnUse">
<stop offset="0.02" stop-color="white" stop-opacity="0"/>
<stop offset="1" stop-color="white"/>
</linearGradient>
<linearGradient id="paint12_linear" x1="654.702" y1="114.082" x2="638.826" y2="734.599" gradientUnits="userSpaceOnUse">
<stop offset="0.02" stop-color="white" stop-opacity="0"/>
<stop offset="1" stop-color="white"/>
</linearGradient>
<linearGradient id="paint13_linear" x1="699.687" y1="113.799" x2="684.47" y2="725.57" gradientUnits="userSpaceOnUse">
<stop offset="0.02" stop-color="white" stop-opacity="0"/>
<stop offset="1" stop-color="white"/>
</linearGradient>
<linearGradient id="paint14_linear" x1="577.366" y1="112.342" x2="561.454" y2="733.844" gradientUnits="userSpaceOnUse">
<stop offset="0.02" stop-color="white" stop-opacity="0"/>
<stop offset="1" stop-color="white"/>
</linearGradient>
<linearGradient id="paint15_linear" x1="492.079" y1="117.505" x2="476.813" y2="730.266" gradientUnits="userSpaceOnUse">
<stop offset="0.02" stop-color="white" stop-opacity="0"/>
<stop offset="1" stop-color="white"/>
</linearGradient>
<linearGradient id="paint16_linear" x1="185.215" y1="90.2917" x2="176.247" y2="440.001" gradientUnits="userSpaceOnUse">
<stop offset="0.02" stop-color="white" stop-opacity="0"/>
<stop offset="1" stop-color="white"/>
</linearGradient>
<linearGradient id="paint17_linear" x1="174.395" y1="87.8847" x2="165.223" y2="437.591" gradientUnits="userSpaceOnUse">
<stop offset="0.02" stop-color="white" stop-opacity="0"/>
<stop offset="1" stop-color="white"/>
</linearGradient>
<linearGradient id="paint18_linear" x1="188.459" y1="81.5393" x2="179.28" y2="431.246" gradientUnits="userSpaceOnUse">
<stop offset="0.02" stop-color="white" stop-opacity="0"/>
<stop offset="1" stop-color="white"/>
</linearGradient>
<linearGradient id="paint19_linear" x1="153.282" y1="82.3828" x2="144.331" y2="432.103" gradientUnits="userSpaceOnUse">
<stop offset="0.02" stop-color="white" stop-opacity="0"/>
<stop offset="1" stop-color="white"/>
</linearGradient>
<linearGradient id="paint20_linear" x1="52.5845" y1="51.6612" x2="59.5977" y2="51.6612" gradientUnits="userSpaceOnUse">
<stop stop-color="#ECC4D7"/>
<stop offset="0.42" stop-color="#EFD4D1"/>
<stop offset="1" stop-color="#F2EAC9"/>
</linearGradient>
<linearGradient id="paint21_linear" x1="3464.48" y1="-2991.57" x2="3234.46" y2="-7792.87" gradientUnits="userSpaceOnUse">
<stop stop-opacity="0"/>
<stop offset="0.91" stop-opacity="0.8"/>
<stop offset="1"/>
</linearGradient>
<linearGradient id="paint22_linear" x1="64.3928" y1="92.9411" x2="47.7049" y2="109.789" gradientUnits="userSpaceOnUse">
<stop offset="0.36" stop-color="#00272E"/>
<stop offset="0.75" stop-color="#3F80A1" stop-opacity="0.25"/>
<stop offset="1" stop-color="#69B9EB" stop-opacity="0"/>
</linearGradient>
<linearGradient id="paint23_linear" x1="1643.09" y1="3248.88" x2="1718.87" y2="3248.88" gradientUnits="userSpaceOnUse">
<stop stop-color="#ECC4D7"/>
<stop offset="0.42" stop-color="#EFD4D1"/>
<stop offset="1" stop-color="#F2EAC9"/>
</linearGradient>
<linearGradient id="paint24_linear" x1="2005.02" y1="-5412.78" x2="1477.3" y2="-5338.28" gradientUnits="userSpaceOnUse">
<stop stop-opacity="0"/>
<stop offset="0.91" stop-opacity="0.8"/>
<stop offset="1"/>
</linearGradient>
<linearGradient id="paint25_linear" x1="48.5931" y1="62.42" x2="71.7345" y2="64.8003" gradientUnits="userSpaceOnUse">
<stop offset="0.36" stop-color="#00272E"/>
<stop offset="0.75" stop-color="#3F80A1" stop-opacity="0.25"/>
<stop offset="0.77" stop-color="#4284A6" stop-opacity="0.06"/>
<stop offset="1" stop-color="#69B9EB" stop-opacity="0"/>
</linearGradient>
<linearGradient id="paint26_linear" x1="1047.94" y1="7241.74" x2="1417.93" y2="7249.97" gradientUnits="userSpaceOnUse">
<stop offset="0.36" stop-color="#00272E"/>
<stop offset="0.75" stop-color="#3F80A1" stop-opacity="0.25"/>
<stop offset="1" stop-color="#69B9EB" stop-opacity="0"/>
</linearGradient>
<linearGradient id="paint27_linear" x1="1966.96" y1="1814.31" x2="2134.87" y2="1814.31" gradientUnits="userSpaceOnUse">
<stop stop-color="#ECC4D7"/>
<stop offset="0.42" stop-color="#EFD4D1"/>
<stop offset="1" stop-color="#F2EAC9"/>
</linearGradient>
<linearGradient id="paint28_linear" x1="891.054" y1="-3863.28" x2="534.12" y2="-3888.24" gradientUnits="userSpaceOnUse">
<stop stop-opacity="0"/>
<stop offset="0.91" stop-opacity="0.8"/>
<stop offset="1"/>
</linearGradient>
<linearGradient id="paint29_linear" x1="1411.94" y1="1037.55" x2="1458.02" y2="1142.66" gradientUnits="userSpaceOnUse">
<stop stop-color="#ECC4D7"/>
<stop offset="0.42" stop-color="#EFD4D1"/>
<stop offset="1" stop-color="#F2EAC9"/>
</linearGradient>
<clipPath id="clip0">
<rect width="142" height="126.222" fill="white"/>
</clipPath>
</defs>
</svg>
