<svg width="18" height="17" viewBox="0 0 18 17" fill="none" xmlns="http://www.w3.org/2000/svg">
<path d="M14.6561 0H0.994629V17H17.6322V2.97882L14.6561 0ZM13.1262 0.693878V5.55102H4.8074V0.693878H13.1262ZM4.11417 16.3061V9.71428H14.166V16.3061H4.11417ZM16.939 16.3061H14.8593V9.02041H3.42094V16.3061H1.68786V0.693878H4.11417V6.2449H13.8194V0.693878H14.3691L16.939 3.26608V16.3061Z" fill="white"/>
<path d="M5.50047 11.449H7.92678C8.11846 11.449 8.2734 11.2939 8.2734 11.102C8.2734 10.9102 8.11846 10.7551 7.92678 10.7551H5.50047C5.30879 10.7551 5.15385 10.9102 5.15385 11.102C5.15385 11.2939 5.30879 11.449 5.50047 11.449Z" fill="white"/>
<path d="M8.96663 12.1429H5.50047C5.30879 12.1429 5.15385 12.2979 5.15385 12.4898C5.15385 12.6817 5.30879 12.8367 5.50047 12.8367H8.96663C9.15831 12.8367 9.31324 12.6817 9.31324 12.4898C9.31324 12.2979 9.15831 12.1429 8.96663 12.1429Z" fill="white"/>
<path d="M9.76047 12.2435C9.69767 12.3091 9.65986 12.3996 9.65986 12.4898C9.65986 12.58 9.69767 12.6702 9.76047 12.7361C9.82604 12.7986 9.91278 12.8368 10.0068 12.8368C10.097 12.8368 10.1872 12.7986 10.2531 12.7361C10.3156 12.6702 10.3537 12.58 10.3537 12.4898C10.3537 12.3996 10.3156 12.3091 10.2531 12.2435C10.1248 12.1151 9.88884 12.1151 9.76047 12.2435Z" fill="white"/>
<path d="M12.4328 1.38776H10.3531V4.85714H12.4328V1.38776ZM11.7396 4.16327H11.0463V2.08163H11.7396V4.16327Z" fill="white"/>
</svg>
