<svg width="17" height="17" viewBox="0 0 17 17" fill="none" xmlns="http://www.w3.org/2000/svg">
<path d="M8.4668 13.1135H2.65625C1.19159 13.1135 0 11.9219 0 10.4573V6.53929C0 5.07463 1.19159 3.88304 2.65625 3.88304H8.4668C8.83356 3.88304 9.13086 4.18034 9.13086 4.5471C9.13086 4.91386 8.83356 5.21116 8.4668 5.21116H2.65625C1.92392 5.21116 1.32812 5.80696 1.32812 6.53929V10.4573C1.32812 11.1896 1.92392 11.7854 2.65625 11.7854H8.4668C8.83356 11.7854 9.13086 12.0827 9.13086 12.4494C9.13086 12.8162 8.83356 13.1135 8.4668 13.1135ZM14.3438 3.88304H13.7461C13.3793 3.88304 13.082 4.18034 13.082 4.5471C13.082 4.91386 13.3793 5.21116 13.7461 5.21116H14.3438C15.0761 5.21116 15.6719 5.80696 15.6719 6.53929V10.4573C15.6719 11.1896 15.0761 11.7854 14.3438 11.7854H13.7461C13.3793 11.7854 13.082 12.0827 13.082 12.4494C13.082 12.8162 13.3793 13.1135 13.7461 13.1135H14.3438C15.8084 13.1135 17 11.9219 17 10.4573V6.53929C17 5.0746 15.8084 3.88304 14.3438 3.88304ZM13.7461 15.6719C12.6476 15.6719 11.7539 14.7782 11.7539 13.6797V3.32031C11.7539 2.22182 12.6476 1.32812 13.7461 1.32812C14.1129 1.32812 14.4102 1.03082 14.4102 0.664062C14.4102 0.297301 14.1129 0 13.7461 0C12.6611 0 11.6961 0.523115 11.0898 1.33032C10.4836 0.523115 9.51854 0 8.43359 0C8.06683 0 7.76953 0.297301 7.76953 0.664062C7.76953 1.03082 8.06683 1.32812 8.43359 1.32812C9.53209 1.32812 10.4258 2.22182 10.4258 3.32031V13.6797C10.4258 14.7782 9.53209 15.6719 8.43359 15.6719C8.06683 15.6719 7.76953 15.9692 7.76953 16.3359C7.76953 16.7027 8.06683 17 8.43359 17C9.51854 17 10.4836 16.4769 11.0898 15.6697C11.6961 16.4769 12.6611 17 13.7461 17C14.1129 17 14.4102 16.7027 14.4102 16.3359C14.4102 15.9692 14.1129 15.6719 13.7461 15.6719Z" fill="white"/>
</svg>
